{"glyphs":{"0":{"ha":572,"x_min":41,"x_max":530,"o":"m 285 11 l 285 11 q 203 11 149 -32 q 94 -76 68 -158 q 41 -240 41 -357 l 41 -357 q 41 -476 66 -558 q 90 -640 145 -682 q 199 -725 285 -725 l 285 -725 q 368 -725 422 -682 q 476 -639 503 -557 q 530 -475 530 -357 l 530 -357 q 530 -268 517 -199 q 503 -131 474 -84 q 444 -38 398 -13 q 351 11 285 11 z m 285 -94 l 285 -94 q 322 -94 346 -113 q 369 -132 382 -167 q 394 -203 399 -251 q 404 -300 404 -357 l 404 -357 q 404 -414 399 -462 q 394 -510 381 -545 q 368 -581 345 -601 q 321 -621 285 -621 l 285 -621 q 249 -621 226 -601 q 202 -581 190 -545 q 178 -510 173 -462 q 168 -414 168 -357 l 168 -357 q 168 -297 173 -248 q 178 -200 191 -165 q 204 -131 227 -112 q 250 -94 285 -94 z"},"1":{"ha":572,"x_min":71,"x_max":392,"o":"m 392 -714 l 392 0 l 265 0 l 265 -445 q 265 -477 267 -514 q 268 -552 269 -580 l 269 -580 q 263 -574 249 -560 q 235 -547 222 -537 l 222 -537 l 134 -465 l 71 -543 l 287 -714 l 392 -714 z"},"2":{"ha":572,"x_min":43,"x_max":532,"o":"m 532 0 l 43 0 l 43 -93 l 225 -277 q 280 -332 314 -371 q 348 -410 365 -444 q 381 -479 381 -519 l 381 -519 q 381 -551 369 -573 q 356 -595 334 -606 q 311 -618 279 -618 l 279 -618 q 234 -618 196 -599 q 157 -581 114 -546 l 114 -546 l 45 -629 q 77 -657 113 -678 q 149 -699 192 -711 q 234 -724 286 -724 l 286 -724 q 354 -724 404 -700 q 453 -676 481 -633 q 508 -590 508 -532 l 508 -532 q 508 -474 485 -425 q 461 -377 418 -329 q 374 -281 316 -224 l 316 -224 l 202 -115 l 202 -109 l 532 -109 l 532 0 z"},"3":{"ha":572,"x_min":41,"x_max":526,"o":"m 243 11 l 243 11 q 184 11 134 1 q 83 -9 41 -28 l 41 -28 l 41 -139 q 87 -116 138 -104 q 189 -92 234 -92 l 234 -92 q 318 -92 356 -123 q 393 -154 393 -212 l 393 -212 q 393 -247 375 -270 q 357 -294 317 -305 q 277 -317 210 -317 l 210 -317 l 151 -317 l 151 -418 l 211 -418 q 274 -418 311 -432 q 347 -446 363 -471 q 378 -496 378 -529 l 378 -529 q 378 -571 351 -595 q 323 -620 266 -620 l 266 -620 q 214 -620 176 -604 q 137 -588 103 -565 l 103 -565 l 43 -653 q 89 -685 145 -704 q 200 -724 272 -724 l 272 -724 q 341 -724 393 -705 q 445 -686 475 -647 q 505 -608 505 -551 l 505 -551 q 505 -504 486 -468 q 466 -433 432 -410 q 398 -387 353 -376 l 353 -376 l 353 -373 q 438 -363 482 -320 q 526 -277 526 -206 l 526 -206 q 526 -138 493 -89 q 460 -41 397 -15 q 334 11 243 11 z"},"4":{"ha":572,"x_min":19,"x_max":554,"o":"m 461 0 l 338 0 l 338 -153 l 19 -153 l 19 -247 l 340 -716 l 461 -716 l 461 -256 l 554 -256 l 554 -153 l 461 -153 l 461 0 z m 296 -494 l 134 -256 l 338 -256 l 338 -416 q 338 -438 339 -468 q 339 -498 341 -526 q 342 -555 343 -572 l 343 -572 l 339 -572 q 331 -553 321 -533 q 310 -514 296 -494 l 296 -494 z"},"5":{"ha":572,"x_min":54,"x_max":522,"o":"m 244 11 l 244 11 q 187 11 138 1 q 89 -9 54 -28 l 54 -28 l 54 -141 q 93 -120 145 -107 q 196 -94 241 -94 l 241 -94 q 290 -94 324 -108 q 358 -123 376 -151 q 394 -180 394 -223 l 394 -223 q 394 -284 355 -314 q 316 -345 237 -345 l 237 -345 q 209 -345 179 -340 q 149 -336 124 -330 l 124 -330 l 70 -360 l 96 -714 l 473 -714 l 473 -604 l 207 -604 l 193 -439 q 215 -443 238 -446 q 260 -449 291 -449 l 291 -449 q 357 -449 410 -424 q 462 -400 492 -352 q 522 -305 522 -234 l 522 -234 q 522 -157 490 -102 q 457 -47 395 -18 q 333 11 244 11 z"},"6":{"ha":572,"x_min":42,"x_max":533,"o":"m 296 11 l 296 11 q 238 11 191 -10 q 144 -32 111 -73 q 78 -114 60 -172 q 42 -230 42 -304 l 42 -304 q 42 -374 53 -436 q 63 -499 87 -551 q 111 -604 151 -642 q 191 -681 250 -702 q 309 -723 388 -723 l 388 -723 q 411 -723 437 -721 q 463 -720 481 -715 l 481 -715 l 481 -612 q 463 -617 441 -619 q 419 -622 395 -622 l 395 -622 q 311 -622 261 -593 q 211 -564 188 -508 q 165 -453 162 -374 l 162 -374 l 168 -374 q 183 -400 206 -418 q 228 -437 259 -447 q 289 -458 328 -458 l 328 -458 q 392 -458 438 -431 q 484 -404 509 -354 q 533 -304 533 -235 l 533 -235 q 533 -160 505 -104 q 477 -49 424 -19 q 370 11 296 11 z m 294 -93 l 294 -93 q 347 -93 379 -128 q 410 -164 410 -233 l 410 -233 q 410 -293 382 -326 q 353 -359 297 -359 l 297 -359 q 259 -359 231 -343 q 202 -327 186 -301 q 169 -276 169 -248 l 169 -248 q 169 -219 178 -191 q 186 -164 202 -141 q 217 -119 241 -106 q 264 -93 294 -93 z"},"7":{"ha":572,"x_min":33,"x_max":533,"o":"m 255 0 l 121 0 l 398 -604 l 33 -604 l 33 -713 l 533 -713 l 533 -629 l 255 0 z"},"8":{"ha":572,"x_min":41,"x_max":531,"o":"m 287 11 l 287 11 q 212 11 157 -11 q 102 -33 72 -75 q 41 -118 41 -181 l 41 -181 q 41 -227 59 -262 q 76 -298 108 -325 q 140 -353 182 -373 l 182 -373 q 146 -395 119 -421 q 92 -447 78 -479 q 63 -512 63 -553 l 63 -553 q 63 -611 95 -649 q 126 -687 177 -705 q 228 -724 286 -724 l 286 -724 q 346 -724 397 -705 q 447 -687 478 -649 q 509 -611 509 -552 l 509 -552 q 509 -512 493 -480 q 477 -448 448 -423 q 418 -398 378 -377 l 378 -377 q 418 -357 453 -330 q 488 -304 510 -268 q 531 -233 531 -185 l 531 -185 q 531 -123 499 -79 q 467 -35 412 -12 q 357 11 287 11 z m 285 -85 l 285 -85 q 343 -85 377 -111 q 411 -138 411 -187 l 411 -187 q 411 -215 396 -238 q 381 -261 354 -279 q 327 -298 291 -314 l 291 -314 l 276 -321 q 239 -305 213 -284 q 187 -264 174 -240 q 160 -217 160 -186 l 160 -186 q 160 -141 192 -113 q 224 -85 285 -85 z m 288 -429 l 288 -429 q 318 -443 341 -459 q 363 -475 376 -496 q 388 -517 388 -544 l 388 -544 q 388 -586 358 -607 q 328 -628 285 -628 l 285 -628 q 240 -628 212 -606 q 184 -584 184 -544 l 184 -544 q 184 -515 198 -494 q 212 -473 236 -458 q 259 -444 288 -429 z"},"9":{"ha":572,"x_min":38,"x_max":529,"o":"m 183 11 l 183 11 q 163 11 135 9 q 107 7 89 3 l 89 3 l 89 -101 q 109 -96 131 -93 q 153 -90 176 -90 l 176 -90 q 240 -90 284 -106 q 327 -123 354 -155 q 380 -187 394 -233 q 407 -279 409 -338 l 409 -338 l 403 -338 q 388 -314 366 -295 q 344 -276 314 -265 q 284 -255 241 -255 l 241 -255 q 178 -255 133 -282 q 87 -309 63 -358 q 38 -408 38 -477 l 38 -477 q 38 -553 67 -608 q 95 -663 149 -693 q 203 -723 275 -723 l 275 -723 q 333 -723 380 -701 q 427 -680 461 -639 q 494 -599 512 -541 q 529 -484 529 -411 l 529 -411 q 529 -341 519 -277 q 508 -213 484 -160 q 460 -108 420 -69 q 380 -31 322 -10 q 263 11 183 11 z m 274 -354 l 274 -354 q 312 -354 341 -370 q 369 -386 386 -411 q 402 -437 402 -465 l 402 -465 q 402 -493 394 -520 q 386 -548 370 -570 q 354 -593 331 -606 q 308 -620 277 -620 l 277 -620 q 225 -620 194 -584 q 162 -549 162 -479 l 162 -479 q 162 -420 190 -387 q 218 -354 274 -354 z"},"\r":{"ha":309,"x_min":0,"x_max":0,"o":""}," ":{"ha":309,"x_min":0,"x_max":0,"o":""},"ഀ":{"ha":0,"x_min":-441,"x_max":-114,"o":"m -441 -716 l -441 -716 q -441 -779 -397 -821 q -353 -864 -278 -864 l -278 -864 q -202 -864 -158 -822 q -114 -780 -114 -716 l -114 -716 q -114 -653 -157 -610 q -201 -568 -278 -568 l -278 -568 q -355 -568 -398 -611 q -441 -654 -441 -716 z m -349 -716 l -349 -716 q -349 -689 -331 -668 q -314 -647 -278 -647 l -278 -647 q -241 -647 -223 -668 q -206 -690 -206 -717 l -206 -717 q -206 -745 -224 -765 q -243 -785 -278 -785 l -278 -785 q -314 -785 -331 -764 q -349 -744 -349 -716 z"},"ഁ":{"ha":0,"x_min":-465,"x_max":-91,"o":"m -278 -642 l -278 -642 q -370 -642 -417 -685 q -465 -729 -465 -805 l -465 -805 q -465 -823 -463 -837 q -461 -851 -457 -863 l -457 -863 l -374 -846 q -377 -836 -378 -826 q -379 -816 -379 -808 l -379 -808 q -379 -775 -365 -756 q -351 -737 -328 -730 q -305 -723 -278 -723 l -278 -723 q -253 -723 -229 -730 q -206 -737 -191 -756 q -177 -776 -177 -810 l -177 -810 q -177 -818 -178 -827 q -179 -836 -182 -846 l -182 -846 l -98 -863 q -95 -851 -93 -836 q -91 -822 -91 -806 l -91 -806 q -91 -730 -139 -686 q -188 -642 -278 -642 z m -279 -755 l -279 -755 q -308 -755 -322 -769 q -336 -784 -336 -808 l -336 -808 q -336 -830 -322 -845 q -308 -861 -279 -861 l -279 -861 q -250 -861 -235 -845 q -221 -830 -221 -808 l -221 -808 q -221 -784 -235 -769 q -250 -755 -279 -755 z"},"ം":{"ha":484,"x_min":30,"x_max":453,"o":"m 241 12 l 241 12 q 177 12 130 -12 q 82 -37 56 -80 q 30 -123 30 -178 l 30 -178 q 30 -235 57 -278 q 84 -321 132 -345 q 179 -369 241 -369 l 241 -369 q 304 -369 352 -345 q 399 -322 426 -279 q 453 -237 453 -178 l 453 -178 q 453 -121 426 -78 q 399 -35 352 -11 q 304 12 241 12 z m 241 -279 l 241 -279 q 201 -279 174 -254 q 147 -229 147 -177 l 147 -177 q 147 -128 174 -102 q 201 -77 242 -77 l 242 -77 q 282 -77 310 -102 q 337 -127 337 -178 l 337 -178 q 337 -229 310 -254 q 282 -279 241 -279 z"},"ഃ":{"ha":355,"x_min":31,"x_max":325,"o":"m 31 -437 l 31 -437 q 31 -494 71 -532 q 111 -571 177 -571 l 177 -571 q 244 -571 285 -533 q 325 -495 325 -437 l 325 -437 q 325 -381 285 -342 q 245 -304 178 -304 l 178 -304 q 110 -304 71 -342 q 31 -381 31 -437 z m 120 -438 l 120 -438 q 120 -414 135 -397 q 150 -381 178 -381 l 178 -381 q 206 -381 221 -397 q 235 -414 235 -438 l 235 -438 q 235 -462 221 -478 q 206 -494 177 -494 l 177 -494 q 150 -494 135 -478 q 120 -462 120 -438 z m 31 -122 l 31 -122 q 31 -178 71 -216 q 111 -255 177 -255 l 177 -255 q 244 -255 285 -217 q 325 -179 325 -122 l 325 -122 q 325 -65 285 -26 q 245 12 178 12 l 178 12 q 110 12 71 -26 q 31 -65 31 -122 z m 120 -123 l 120 -123 q 120 -98 135 -81 q 150 -65 178 -65 l 178 -65 q 206 -65 221 -81 q 235 -98 235 -123 l 235 -123 q 235 -146 221 -162 q 206 -178 177 -178 l 177 -178 q 150 -178 135 -162 q 120 -146 120 -123 z"},"ഄ":{"ha":619,"x_min":33,"x_max":586,"o":"m 49 -332 l 49 -332 l 164 -312 q 158 -291 155 -267 q 152 -244 152 -222 l 152 -222 q 152 -157 189 -121 q 226 -85 308 -85 l 308 -85 q 392 -85 429 -121 q 466 -157 466 -222 l 466 -222 q 466 -244 463 -267 q 460 -291 454 -312 l 454 -312 l 569 -332 q 576 -311 581 -280 q 586 -250 586 -219 l 586 -219 q 586 -152 560 -101 q 533 -50 472 -20 q 411 9 308 9 l 308 9 q 207 9 147 -20 q 86 -50 60 -101 q 33 -152 33 -219 l 33 -219 q 33 -250 38 -280 q 42 -311 49 -332 z m 259 -180 l 259 -412 l 360 -412 l 360 -180 l 259 -180 z"},"അ":{"ha":1597,"x_min":38,"x_max":1559,"o":"m 390 -571 l 390 -571 q 443 -571 502 -561 q 560 -552 610 -531 l 610 -531 q 618 -527 626 -521 q 634 -516 641 -512 l 641 -512 q 682 -499 710 -478 q 737 -457 752 -430 q 766 -403 766 -371 l 766 -371 q 766 -346 758 -325 q 749 -304 730 -286 q 710 -269 678 -254 l 678 -254 l 678 -262 q 724 -245 751 -214 q 777 -183 777 -137 l 777 -137 q 777 -98 757 -64 q 736 -30 691 -9 q 645 12 568 12 l 568 12 q 481 12 427 -21 q 372 -55 346 -111 q 320 -167 320 -237 l 320 -237 q 320 -293 338 -345 q 356 -397 394 -441 q 432 -485 494 -519 l 494 -519 q 500 -522 505 -525 q 510 -529 517 -531 l 517 -531 q 556 -550 605 -560 q 654 -571 712 -571 l 712 -571 q 781 -571 828 -556 q 874 -542 908 -517 q 941 -493 967 -462 l 967 -462 l 1015 -230 l 1015 0 l 890 0 l 890 -262 q 890 -337 879 -378 q 867 -419 836 -444 l 836 -444 q 814 -463 784 -473 q 753 -483 706 -483 l 706 -483 q 677 -483 650 -479 q 623 -475 603 -470 l 603 -470 q 558 -457 526 -431 q 493 -405 474 -372 q 455 -339 446 -304 q 437 -270 437 -240 l 437 -240 q 437 -157 470 -117 q 503 -77 565 -77 l 565 -77 q 612 -77 635 -94 q 657 -111 657 -144 l 657 -144 q 657 -174 632 -191 q 607 -209 555 -209 l 555 -209 l 531 -209 l 531 -300 l 548 -300 q 602 -300 624 -319 q 646 -339 646 -370 l 646 -370 q 646 -406 617 -431 q 588 -457 519 -470 l 519 -470 q 490 -477 460 -479 q 429 -482 398 -482 l 398 -482 q 318 -482 267 -455 q 215 -429 190 -383 q 165 -337 165 -278 l 165 -278 q 165 -230 178 -191 q 190 -153 215 -121 q 239 -89 274 -60 l 274 -60 l 194 11 q 150 -22 115 -62 q 80 -103 59 -156 q 38 -210 38 -279 l 38 -279 q 38 -337 58 -389 q 77 -441 119 -482 q 160 -523 228 -547 q 295 -571 390 -571 z m 1328 12 l 1328 12 q 1255 12 1209 -17 q 1163 -47 1141 -96 q 1119 -145 1119 -202 l 1119 -202 q 1119 -295 1170 -351 q 1221 -408 1313 -408 l 1313 -408 q 1372 -408 1416 -378 q 1460 -348 1486 -302 q 1512 -256 1515 -205 l 1515 -205 l 1471 -208 q 1465 -235 1448 -260 q 1430 -286 1404 -302 q 1377 -319 1342 -319 l 1342 -319 q 1288 -319 1264 -287 q 1239 -255 1239 -200 l 1239 -200 q 1239 -165 1249 -137 q 1259 -110 1280 -95 q 1300 -80 1332 -80 l 1332 -80 q 1366 -80 1390 -96 q 1413 -113 1426 -149 q 1438 -185 1438 -242 l 1438 -242 q 1438 -255 1437 -271 q 1435 -288 1433 -304 l 1433 -304 q 1432 -310 1433 -317 q 1434 -324 1432 -330 l 1432 -330 q 1425 -367 1398 -400 q 1371 -434 1324 -455 q 1276 -477 1204 -477 l 1204 -477 q 1160 -477 1129 -469 q 1098 -461 1072 -440 l 1072 -440 q 1055 -425 1042 -404 q 1029 -383 1022 -349 q 1015 -316 1015 -261 l 1015 -261 l 1015 -208 l 941 -465 q 969 -494 1004 -518 q 1038 -543 1088 -557 q 1137 -571 1207 -571 l 1207 -571 q 1294 -571 1360 -545 q 1425 -520 1470 -475 q 1515 -430 1537 -369 q 1559 -309 1559 -239 l 1559 -239 q 1559 -152 1531 -96 q 1502 -41 1450 -14 q 1397 12 1328 12 z"},"ആ":{"ha":1762,"x_min":38,"x_max":1734,"o":"m 390 -571 l 390 -571 q 443 -571 502 -561 q 560 -552 610 -531 l 610 -531 q 618 -527 626 -521 q 634 -516 641 -512 l 641 -512 q 682 -499 710 -478 q 737 -457 752 -430 q 766 -403 766 -371 l 766 -371 q 766 -346 758 -325 q 749 -304 730 -286 q 710 -269 678 -254 l 678 -254 l 678 -262 q 724 -245 751 -214 q 777 -183 777 -137 l 777 -137 q 777 -98 757 -64 q 736 -30 691 -9 q 645 12 568 12 l 568 12 q 481 12 427 -21 q 372 -55 346 -111 q 320 -167 320 -237 l 320 -237 q 320 -293 338 -345 q 356 -397 394 -441 q 432 -485 494 -519 l 494 -519 q 500 -522 505 -525 q 510 -529 517 -531 l 517 -531 q 556 -550 605 -560 q 654 -571 712 -571 l 712 -571 q 781 -571 828 -556 q 874 -542 908 -517 q 941 -493 967 -462 l 967 -462 l 1015 -230 l 1015 0 l 890 0 l 890 -262 q 890 -337 879 -378 q 867 -419 836 -444 l 836 -444 q 814 -463 784 -473 q 753 -483 706 -483 l 706 -483 q 677 -483 650 -479 q 623 -475 603 -470 l 603 -470 q 558 -457 526 -431 q 493 -405 474 -372 q 455 -339 446 -304 q 437 -270 437 -240 l 437 -240 q 437 -157 470 -117 q 503 -77 565 -77 l 565 -77 q 612 -77 635 -94 q 657 -111 657 -144 l 657 -144 q 657 -174 632 -191 q 607 -209 555 -209 l 555 -209 l 531 -209 l 531 -300 l 548 -300 q 602 -300 624 -319 q 646 -339 646 -370 l 646 -370 q 646 -406 617 -431 q 588 -457 519 -470 l 519 -470 q 490 -477 460 -479 q 429 -482 398 -482 l 398 -482 q 318 -482 267 -455 q 215 -429 190 -383 q 165 -337 165 -278 l 165 -278 q 165 -230 178 -191 q 190 -153 215 -121 q 239 -89 274 -60 l 274 -60 l 194 11 q 150 -22 115 -62 q 80 -103 59 -156 q 38 -210 38 -279 l 38 -279 q 38 -337 58 -389 q 77 -441 119 -482 q 160 -523 228 -547 q 295 -571 390 -571 z m 1196 -571 l 1196 -571 q 1286 -571 1354 -541 q 1421 -511 1464 -458 q 1507 -406 1522 -336 l 1522 -336 q 1529 -311 1532 -283 q 1534 -256 1534 -227 l 1534 -227 q 1534 -145 1507 -92 q 1480 -39 1429 -13 q 1378 12 1306 12 l 1306 12 q 1237 12 1192 -14 q 1146 -41 1124 -84 q 1101 -127 1101 -178 l 1101 -178 q 1101 -280 1175 -337 q 1249 -394 1382 -394 l 1382 -394 q 1401 -394 1416 -393 q 1431 -393 1444 -391 l 1444 -391 l 1478 -388 q 1559 -375 1616 -334 q 1673 -293 1704 -232 q 1734 -171 1734 -97 l 1734 -97 q 1734 -33 1715 22 q 1695 76 1655 116 q 1614 156 1552 179 q 1489 201 1404 201 l 1404 201 q 1352 201 1308 193 q 1263 185 1228 173 l 1228 173 l 1264 83 q 1294 95 1327 101 q 1359 106 1401 106 l 1401 106 q 1463 106 1504 90 q 1544 73 1569 44 q 1593 15 1604 -21 q 1614 -58 1614 -97 l 1614 -97 q 1614 -147 1601 -183 q 1587 -220 1562 -246 q 1536 -272 1500 -289 l 1500 -289 l 1462 -295 q 1446 -301 1426 -303 q 1406 -305 1387 -305 l 1387 -305 q 1332 -305 1296 -290 q 1259 -275 1241 -246 q 1223 -218 1223 -176 l 1223 -176 q 1223 -150 1232 -128 q 1241 -106 1261 -92 q 1281 -79 1312 -79 l 1312 -79 q 1364 -79 1391 -115 q 1417 -151 1417 -228 l 1417 -228 q 1417 -260 1412 -290 q 1407 -321 1397 -346 l 1397 -346 l 1390 -369 q 1375 -402 1348 -426 q 1321 -451 1283 -464 q 1244 -477 1192 -477 l 1192 -477 q 1158 -477 1128 -469 q 1097 -461 1071 -440 l 1071 -440 q 1054 -425 1042 -404 q 1029 -383 1022 -349 q 1015 -315 1015 -259 l 1015 -259 l 1015 -208 l 939 -462 q 967 -494 1003 -518 q 1038 -543 1086 -557 q 1134 -571 1196 -571 z"},"ഇ":{"ha":1030,"x_min":38,"x_max":992,"o":"m 351 -571 l 351 -571 q 414 -571 458 -558 q 502 -546 533 -524 q 564 -503 587 -476 l 587 -476 l 555 -482 q 590 -531 639 -551 q 687 -571 745 -571 l 745 -571 q 808 -571 855 -549 q 901 -527 932 -489 q 962 -452 977 -405 q 992 -358 992 -308 l 992 -308 q 992 -219 967 -159 q 941 -99 891 -62 l 891 -62 q 863 -41 828 -27 q 792 -14 743 -7 q 694 0 626 0 l 626 0 l 289 0 q 246 0 227 3 q 207 5 197 11 l 197 11 q 182 18 177 29 q 171 39 171 51 l 171 51 q 171 64 176 75 q 180 85 191 92 l 191 92 q 203 99 223 103 q 243 107 286 107 l 286 107 l 972 107 l 972 201 l 272 201 q 217 201 175 193 q 133 184 107 168 l 107 168 q 77 149 62 121 q 46 93 46 57 l 46 57 q 46 21 61 -9 q 76 -39 107 -59 l 107 -59 q 124 -70 145 -77 q 165 -84 195 -88 q 225 -92 267 -92 l 267 -92 l 589 -92 q 662 -92 707 -99 q 751 -107 777 -121 q 803 -136 822 -155 l 822 -155 q 848 -184 857 -221 q 866 -259 866 -302 l 866 -302 q 866 -345 853 -385 q 839 -426 810 -452 q 780 -478 731 -478 l 731 -478 q 707 -478 688 -470 q 668 -462 654 -444 l 654 -444 q 640 -426 634 -397 q 628 -369 628 -311 l 628 -311 l 628 -137 l 505 -137 l 505 -303 q 505 -363 494 -395 q 482 -427 460 -446 l 460 -446 q 442 -462 414 -471 q 386 -480 341 -480 l 341 -480 q 305 -480 276 -473 q 246 -466 222 -453 q 198 -440 181 -421 q 164 -403 153 -379 l 153 -379 q 150 -373 149 -366 q 148 -359 147 -353 l 147 -353 q 145 -344 144 -333 q 142 -322 142 -309 l 142 -309 q 142 -260 163 -232 q 183 -205 221 -205 l 221 -205 q 258 -205 275 -226 q 292 -248 292 -278 l 292 -278 q 292 -298 285 -313 q 278 -328 263 -337 q 247 -346 223 -346 l 223 -346 q 185 -346 160 -330 q 135 -315 112 -298 l 112 -298 l 53 -327 q 71 -348 101 -371 q 131 -394 169 -409 q 207 -425 247 -425 l 247 -425 q 303 -425 339 -404 q 374 -384 391 -351 q 407 -318 407 -279 l 407 -279 q 407 -237 388 -201 q 369 -166 328 -144 q 287 -122 223 -122 l 223 -122 q 168 -122 126 -145 q 84 -169 61 -212 q 38 -256 38 -317 l 38 -317 q 38 -388 76 -445 q 114 -503 184 -537 q 254 -571 351 -571 z"},"ഈ":{"ha":1832,"x_min":38,"x_max":1794,"o":"m 351 -571 l 351 -571 q 414 -571 458 -558 q 502 -546 533 -524 q 564 -503 587 -476 l 587 -476 l 555 -482 q 590 -531 639 -551 q 687 -571 745 -571 l 745 -571 q 808 -571 855 -549 q 901 -527 932 -489 q 962 -452 977 -405 q 992 -358 992 -308 l 992 -308 q 992 -219 967 -159 q 941 -99 891 -62 l 891 -62 q 863 -41 828 -27 q 792 -14 743 -7 q 694 0 626 0 l 626 0 l 289 0 q 246 0 227 3 q 207 5 197 11 l 197 11 q 182 18 177 29 q 171 39 171 51 l 171 51 q 171 64 176 75 q 180 85 191 92 l 191 92 q 203 99 223 103 q 243 107 286 107 l 286 107 l 972 107 l 972 201 l 272 201 q 217 201 175 193 q 133 184 107 168 l 107 168 q 77 149 62 121 q 46 93 46 57 l 46 57 q 46 21 61 -9 q 76 -39 107 -59 l 107 -59 q 124 -70 145 -77 q 165 -84 195 -88 q 225 -92 267 -92 l 267 -92 l 589 -92 q 662 -92 707 -99 q 751 -107 777 -121 q 803 -136 822 -155 l 822 -155 q 848 -184 857 -221 q 866 -259 866 -302 l 866 -302 q 866 -345 853 -385 q 839 -426 810 -452 q 780 -478 731 -478 l 731 -478 q 707 -478 688 -470 q 668 -462 654 -444 l 654 -444 q 640 -426 634 -397 q 628 -369 628 -311 l 628 -311 l 628 -137 l 505 -137 l 505 -303 q 505 -363 494 -395 q 482 -427 460 -446 l 460 -446 q 442 -462 414 -471 q 386 -480 341 -480 l 341 -480 q 305 -480 276 -473 q 246 -466 222 -453 q 198 -440 181 -421 q 164 -403 153 -379 l 153 -379 q 150 -373 149 -366 q 148 -359 147 -353 l 147 -353 q 145 -344 144 -333 q 142 -322 142 -309 l 142 -309 q 142 -260 163 -232 q 183 -205 221 -205 l 221 -205 q 258 -205 275 -226 q 292 -248 292 -278 l 292 -278 q 292 -298 285 -313 q 278 -328 263 -337 q 247 -346 223 -346 l 223 -346 q 185 -346 160 -330 q 135 -315 112 -298 l 112 -298 l 53 -327 q 71 -348 101 -371 q 131 -394 169 -409 q 207 -425 247 -425 l 247 -425 q 303 -425 339 -404 q 374 -384 391 -351 q 407 -318 407 -279 l 407 -279 q 407 -237 388 -201 q 369 -166 328 -144 q 287 -122 223 -122 l 223 -122 q 168 -122 126 -145 q 84 -169 61 -212 q 38 -256 38 -317 l 38 -317 q 38 -388 76 -445 q 114 -503 184 -537 q 254 -571 351 -571 z m 1574 -571 l 1574 -571 q 1644 -571 1693 -538 q 1742 -505 1769 -445 q 1795 -386 1795 -307 l 1795 -307 q 1795 -206 1761 -134 q 1726 -63 1660 -25 q 1594 12 1496 12 l 1496 12 q 1420 12 1364 -2 q 1308 -16 1256 -42 l 1256 -42 l 1306 -130 q 1349 -107 1390 -94 q 1431 -82 1487 -82 l 1487 -82 q 1556 -82 1596 -110 q 1635 -139 1652 -189 q 1669 -240 1669 -305 l 1669 -305 q 1669 -395 1641 -436 q 1612 -478 1566 -478 l 1566 -478 q 1541 -478 1524 -468 q 1507 -459 1498 -442 l 1498 -442 q 1490 -427 1488 -407 q 1485 -387 1485 -349 l 1485 -349 l 1485 -260 l 1361 -260 l 1361 -333 q 1361 -375 1358 -401 q 1355 -428 1345 -443 l 1345 -443 q 1334 -462 1317 -470 q 1300 -478 1279 -478 l 1279 -478 q 1232 -478 1210 -448 q 1187 -418 1187 -377 l 1187 -377 q 1187 -345 1192 -323 q 1196 -301 1202 -282 l 1202 -282 l 1083 -256 q 1073 -284 1068 -318 q 1063 -352 1063 -379 l 1063 -379 q 1063 -430 1085 -473 q 1107 -517 1153 -544 q 1198 -571 1268 -571 l 1268 -571 q 1325 -571 1363 -551 q 1401 -532 1427 -498 l 1427 -498 l 1415 -500 q 1445 -538 1484 -554 q 1523 -571 1574 -571 z"},"ഉ":{"ha":734,"x_min":38,"x_max":697,"o":"m 366 -571 l 366 -571 q 459 -571 523 -546 q 586 -522 625 -482 q 663 -442 680 -392 q 697 -343 697 -293 l 697 -293 q 697 -221 676 -168 q 655 -115 613 -80 l 613 -80 q 579 -50 535 -32 q 491 -15 433 -7 q 375 0 299 0 l 299 0 l 288 0 q 246 0 227 3 q 207 5 197 11 l 197 11 q 182 18 177 29 q 171 39 171 51 l 171 51 q 171 64 176 75 q 180 85 191 92 l 191 92 q 203 99 223 103 q 243 107 286 107 l 286 107 l 677 107 l 677 201 l 272 201 q 217 201 175 193 q 133 184 107 168 l 107 168 q 77 149 62 121 q 46 93 46 57 l 46 57 q 46 21 61 -9 q 76 -39 107 -59 l 107 -59 q 131 -75 167 -83 q 203 -92 267 -92 l 267 -92 l 272 -92 q 348 -92 398 -99 q 448 -106 480 -120 q 511 -135 532 -158 l 532 -158 q 553 -182 562 -215 q 571 -249 571 -292 l 571 -292 q 571 -325 561 -358 q 550 -391 525 -418 q 500 -446 459 -462 q 418 -479 356 -479 l 356 -479 q 313 -479 279 -471 q 245 -464 219 -449 q 192 -435 175 -414 q 157 -394 148 -366 l 148 -366 q 147 -363 148 -360 q 148 -357 147 -354 l 147 -354 q 145 -345 144 -334 q 142 -324 142 -309 l 142 -309 q 142 -260 163 -232 q 183 -205 221 -205 l 221 -205 q 258 -205 275 -226 q 292 -248 292 -278 l 292 -278 q 292 -298 285 -313 q 278 -328 263 -337 q 247 -346 223 -346 l 223 -346 q 185 -346 160 -330 q 134 -315 112 -298 l 112 -298 l 53 -327 q 71 -348 101 -371 q 131 -394 169 -409 q 207 -425 247 -425 l 247 -425 q 303 -425 339 -404 q 374 -384 391 -351 q 407 -318 407 -279 l 407 -279 q 407 -237 388 -201 q 369 -166 328 -144 q 287 -122 223 -122 l 223 -122 q 168 -122 126 -145 q 84 -168 61 -212 q 38 -256 38 -317 l 38 -317 q 38 -368 60 -414 q 81 -460 123 -495 q 164 -531 226 -551 q 287 -571 366 -571 z"},"ഊ":{"ha":1536,"x_min":38,"x_max":1499,"o":"m 366 -571 l 366 -571 q 459 -571 523 -546 q 586 -522 625 -482 q 663 -442 680 -392 q 697 -343 697 -293 l 697 -293 q 697 -221 676 -168 q 655 -115 613 -80 l 613 -80 q 579 -50 535 -32 q 491 -15 433 -7 q 375 0 299 0 l 299 0 l 288 0 q 246 0 227 3 q 207 5 197 11 l 197 11 q 182 18 177 29 q 171 39 171 51 l 171 51 q 171 64 176 75 q 180 85 191 92 l 191 92 q 203 99 223 103 q 243 107 286 107 l 286 107 l 677 107 l 677 201 l 272 201 q 217 201 175 193 q 133 184 107 168 l 107 168 q 77 149 62 121 q 46 93 46 57 l 46 57 q 46 21 61 -9 q 76 -39 107 -59 l 107 -59 q 131 -75 167 -83 q 203 -92 267 -92 l 267 -92 l 272 -92 q 348 -92 398 -99 q 448 -106 480 -120 q 511 -135 532 -158 l 532 -158 q 553 -182 562 -215 q 571 -249 571 -292 l 571 -292 q 571 -325 561 -358 q 550 -391 525 -418 q 500 -446 459 -462 q 418 -479 356 -479 l 356 -479 q 313 -479 279 -471 q 245 -464 219 -449 q 192 -435 175 -414 q 157 -394 148 -366 l 148 -366 q 147 -363 148 -360 q 148 -357 147 -354 l 147 -354 q 145 -345 144 -334 q 142 -324 142 -309 l 142 -309 q 142 -260 163 -232 q 183 -205 221 -205 l 221 -205 q 258 -205 275 -226 q 292 -248 292 -278 l 292 -278 q 292 -298 285 -313 q 278 -328 263 -337 q 247 -346 223 -346 l 223 -346 q 185 -346 160 -330 q 134 -315 112 -298 l 112 -298 l 53 -327 q 71 -348 101 -371 q 131 -394 169 -409 q 207 -425 247 -425 l 247 -425 q 303 -425 339 -404 q 374 -384 391 -351 q 407 -318 407 -279 l 407 -279 q 407 -237 388 -201 q 369 -166 328 -144 q 287 -122 223 -122 l 223 -122 q 168 -122 126 -145 q 84 -168 61 -212 q 38 -256 38 -317 l 38 -317 q 38 -368 60 -414 q 81 -460 123 -495 q 164 -531 226 -551 q 287 -571 366 -571 z m 1278 -571 l 1278 -571 q 1348 -571 1397 -538 q 1446 -505 1473 -445 q 1499 -386 1499 -307 l 1499 -307 q 1499 -206 1465 -134 q 1430 -63 1364 -25 q 1298 12 1200 12 l 1200 12 q 1124 12 1068 -2 q 1012 -16 960 -42 l 960 -42 l 1010 -130 q 1053 -107 1094 -94 q 1135 -82 1191 -82 l 1191 -82 q 1260 -82 1300 -110 q 1339 -139 1356 -189 q 1373 -240 1373 -305 l 1373 -305 q 1373 -395 1345 -436 q 1316 -478 1270 -478 l 1270 -478 q 1245 -478 1228 -468 q 1211 -459 1202 -442 l 1202 -442 q 1194 -427 1192 -407 q 1189 -387 1189 -349 l 1189 -349 l 1189 -260 l 1065 -260 l 1065 -333 q 1065 -375 1062 -401 q 1059 -428 1049 -443 l 1049 -443 q 1038 -462 1021 -470 q 1004 -478 983 -478 l 983 -478 q 936 -478 914 -448 q 891 -418 891 -377 l 891 -377 q 891 -345 896 -323 q 900 -301 906 -282 l 906 -282 l 787 -256 q 777 -284 772 -318 q 767 -352 767 -379 l 767 -379 q 767 -430 789 -473 q 811 -517 857 -544 q 902 -571 972 -571 l 972 -571 q 1029 -571 1067 -551 q 1105 -532 1131 -498 l 1131 -498 l 1119 -500 q 1149 -538 1188 -554 q 1227 -571 1278 -571 z"},"ഋ":{"ha":958,"x_min":35,"x_max":922,"o":"m 711 -571 l 711 -571 q 808 -571 865 -514 q 922 -457 922 -349 l 922 -349 q 922 -279 894 -224 q 865 -170 813 -133 l 813 -133 q 769 -103 709 -87 q 648 -72 563 -72 l 563 -72 l 395 -72 q 342 -72 300 -77 q 257 -83 224 -94 q 191 -106 162 -123 l 162 -123 q 101 -159 68 -217 q 35 -275 35 -348 l 35 -348 q 35 -418 62 -467 q 89 -517 139 -544 q 188 -571 255 -571 l 255 -571 q 320 -571 362 -547 q 404 -524 425 -484 q 446 -445 446 -399 l 446 -399 q 446 -350 425 -313 q 404 -276 363 -255 q 322 -235 264 -235 l 264 -235 q 217 -235 180 -250 q 143 -266 117 -288 q 90 -310 73 -329 l 73 -329 l 102 -417 q 119 -394 137 -372 q 154 -351 180 -336 q 205 -321 242 -321 l 242 -321 q 283 -321 305 -342 q 327 -364 327 -402 l 327 -402 q 327 -438 306 -460 q 285 -482 248 -482 l 248 -482 q 216 -482 194 -467 q 172 -452 161 -424 q 149 -397 149 -359 l 149 -359 q 149 -343 152 -328 q 154 -313 157 -299 l 157 -299 l 150 -285 q 165 -246 194 -222 q 223 -198 263 -185 q 302 -172 350 -167 q 397 -163 448 -163 l 448 -163 l 508 -163 q 559 -163 607 -167 q 655 -172 696 -184 q 736 -197 765 -221 q 794 -246 809 -285 l 809 -285 l 801 -299 q 805 -312 807 -326 q 809 -341 809 -354 l 809 -354 q 809 -396 798 -424 q 786 -453 765 -467 q 744 -482 713 -482 l 713 -482 q 674 -482 653 -460 q 632 -438 632 -402 l 632 -402 q 632 -364 654 -342 q 676 -321 716 -321 l 716 -321 q 753 -321 779 -335 q 804 -350 823 -371 q 841 -393 856 -415 l 856 -415 l 885 -328 q 869 -309 842 -287 q 815 -266 779 -250 q 742 -235 695 -235 l 695 -235 q 636 -235 595 -255 q 554 -276 534 -313 q 513 -351 513 -400 l 513 -400 q 513 -446 535 -485 q 556 -524 600 -547 q 644 -571 711 -571 z m 483 235 l 483 235 q 353 235 267 216 q 180 196 137 152 q 94 108 94 36 l 94 36 q 94 -11 120 -43 q 145 -76 190 -95 q 235 -115 293 -123 q 350 -132 413 -132 l 413 -132 l 540 -132 q 607 -132 666 -123 q 724 -115 769 -95 q 814 -76 840 -43 q 865 -10 865 39 l 865 39 q 865 101 827 145 q 789 189 705 212 q 621 235 483 235 z m 482 140 l 482 140 q 575 140 631 129 q 687 117 713 94 q 738 70 738 35 l 738 35 q 738 1 718 -19 q 697 -40 662 -50 q 626 -61 581 -65 q 536 -69 488 -69 l 488 -69 l 469 -69 q 401 -69 344 -60 q 287 -52 254 -29 q 220 -7 220 34 l 220 34 q 220 71 246 95 q 271 118 329 129 q 386 140 482 140 z"},"ഌ":{"ha":1249,"x_min":39,"x_max":1211,"o":"m 384 -571 l 384 -571 q 471 -571 528 -544 q 585 -518 630 -468 l 630 -468 l 649 -396 l 667 -227 l 667 0 l 543 0 l 543 -283 q 543 -353 532 -388 q 520 -423 499 -442 l 499 -442 q 479 -459 453 -468 q 426 -478 381 -478 l 381 -478 q 314 -478 263 -449 q 212 -421 183 -367 q 154 -314 154 -240 l 154 -240 l 154 -234 q 154 -178 167 -143 q 180 -108 203 -92 q 225 -77 254 -77 l 254 -77 q 277 -77 293 -87 q 309 -97 318 -116 q 327 -135 327 -163 l 327 -163 q 327 -206 307 -228 q 286 -251 247 -251 l 247 -251 q 209 -251 175 -231 q 140 -211 108 -175 l 108 -175 l 95 -260 q 123 -291 171 -315 q 218 -340 275 -340 l 275 -340 q 328 -340 367 -319 q 406 -299 427 -261 q 447 -223 447 -171 l 447 -171 q 447 -114 424 -73 q 401 -32 359 -10 q 316 12 257 12 l 257 12 q 200 12 150 -14 q 100 -40 70 -96 q 39 -152 39 -242 l 39 -242 q 39 -349 85 -422 q 131 -495 209 -533 q 287 -571 384 -571 z m 980 12 l 980 12 q 907 12 861 -17 q 815 -47 793 -96 q 771 -145 771 -202 l 771 -202 q 771 -295 822 -351 q 873 -408 965 -408 l 965 -408 q 1024 -408 1068 -378 q 1112 -348 1138 -302 q 1164 -256 1167 -205 l 1167 -205 l 1123 -208 q 1117 -235 1100 -260 q 1082 -286 1056 -302 q 1029 -319 994 -319 l 994 -319 q 940 -319 916 -287 q 891 -255 891 -200 l 891 -200 q 891 -165 901 -137 q 911 -110 932 -95 q 952 -80 985 -80 l 985 -80 q 1018 -80 1042 -96 q 1065 -113 1078 -149 q 1090 -185 1090 -242 l 1090 -242 q 1090 -255 1089 -271 q 1087 -288 1085 -304 l 1085 -304 q 1084 -310 1085 -317 q 1086 -324 1084 -330 l 1084 -330 q 1077 -367 1050 -400 q 1023 -434 976 -455 q 928 -477 856 -477 l 856 -477 q 812 -477 781 -469 q 750 -461 724 -440 l 724 -440 q 707 -425 694 -404 q 681 -383 674 -349 q 667 -316 667 -261 l 667 -261 l 667 -208 l 593 -465 q 621 -494 656 -518 q 690 -543 740 -557 q 789 -571 859 -571 l 859 -571 q 946 -571 1012 -545 q 1078 -520 1123 -475 q 1167 -430 1189 -369 q 1211 -309 1211 -239 l 1211 -239 q 1211 -152 1183 -96 q 1154 -41 1102 -14 q 1050 12 980 12 z"},"എ":{"ha":1349,"x_min":30,"x_max":1306,"o":"m 251 -356 l 251 -356 q 328 -356 376 -328 q 424 -301 448 -259 q 471 -217 471 -172 l 471 -172 q 471 -137 461 -109 q 450 -82 437 -64 l 437 -64 l 420 -92 l 916 -92 l 911 0 l 356 0 l 313 -56 q 328 -74 339 -99 q 350 -124 350 -160 l 350 -160 q 350 -206 326 -235 q 301 -265 252 -265 l 252 -265 q 220 -265 198 -251 q 175 -238 164 -214 q 153 -191 153 -163 l 153 -163 q 153 -124 167 -96 q 181 -69 203 -47 l 203 -47 l 115 10 q 75 -27 53 -70 q 30 -113 30 -168 l 30 -168 q 30 -225 58 -267 q 86 -309 136 -332 q 186 -356 251 -356 z m 957 -571 l 957 -571 q 1042 -571 1107 -544 q 1172 -518 1217 -466 q 1261 -415 1284 -340 q 1306 -266 1306 -170 l 1306 -170 q 1306 -95 1289 -25 q 1272 45 1239 109 q 1206 172 1157 228 l 1157 228 l 1065 167 q 1105 118 1130 65 q 1155 11 1167 -48 q 1178 -107 1178 -172 l 1178 -172 q 1178 -232 1167 -287 q 1155 -342 1129 -385 q 1103 -429 1061 -454 q 1018 -479 954 -479 l 954 -479 q 875 -479 823 -436 q 771 -394 746 -318 q 720 -242 720 -141 l 720 -141 q 720 -115 721 -91 q 722 -68 724 -47 l 724 -47 q 724 -42 724 -37 q 724 -33 725 -26 l 725 -26 q 730 35 746 71 q 761 107 785 123 q 808 139 834 139 l 834 139 q 859 139 871 123 l 871 123 q 876 116 879 104 q 881 91 881 71 l 881 71 l 881 -395 l 1005 -395 l 1005 50 q 1005 101 995 133 q 985 164 963 186 l 963 186 q 943 205 912 217 q 881 228 838 228 l 838 228 q 764 228 710 188 q 655 147 625 65 q 595 -18 595 -143 l 595 -143 q 595 -236 618 -314 q 640 -392 685 -449 q 730 -507 798 -539 q 866 -571 957 -571 z"},"ഏ":{"ha":1358,"x_min":30,"x_max":1327,"o":"m 251 -356 l 251 -356 q 328 -356 376 -328 q 424 -301 448 -259 q 471 -217 471 -172 l 471 -172 q 471 -137 461 -109 q 450 -82 437 -64 l 437 -64 l 414 -92 l 912 -92 l 911 0 l 356 0 l 313 -56 q 328 -74 339 -99 q 350 -124 350 -160 l 350 -160 q 350 -206 326 -235 q 301 -265 252 -265 l 252 -265 q 220 -265 198 -251 q 175 -238 164 -214 q 153 -191 153 -163 l 153 -163 q 153 -124 167 -97 q 181 -70 203 -47 l 203 -47 l 115 10 q 75 -27 53 -70 q 30 -113 30 -168 l 30 -168 q 30 -225 58 -267 q 86 -309 136 -332 q 186 -356 251 -356 z m 1002 -571 l 1002 -571 q 1088 -571 1148 -551 q 1208 -531 1246 -497 q 1283 -464 1300 -421 q 1317 -379 1317 -334 l 1317 -334 q 1317 -286 1301 -249 q 1285 -212 1259 -185 q 1232 -159 1200 -141 l 1200 -141 l 1200 -149 q 1261 -124 1294 -81 q 1327 -38 1327 31 l 1327 31 q 1327 99 1300 142 q 1273 185 1226 207 q 1179 228 1117 228 l 1117 228 q 1099 228 1073 226 q 1046 224 1031 220 l 1031 220 l 1047 129 q 1059 133 1074 135 q 1089 136 1097 136 l 1097 136 q 1134 136 1157 123 q 1179 110 1190 86 q 1201 61 1201 27 l 1201 27 q 1201 -24 1168 -58 q 1135 -93 1067 -93 l 1067 -93 l 1067 -184 q 1107 -193 1135 -210 q 1162 -228 1177 -257 q 1191 -286 1191 -330 l 1191 -330 q 1191 -367 1172 -401 q 1153 -435 1111 -456 q 1069 -477 998 -477 l 998 -477 q 899 -477 838 -434 q 776 -391 748 -315 q 720 -240 720 -141 l 720 -141 q 720 -115 721 -91 q 722 -68 724 -47 l 724 -47 q 724 -42 724 -37 q 724 -32 725 -26 l 725 -26 q 730 35 746 71 q 761 107 785 123 q 808 139 834 139 l 834 139 q 859 139 871 123 l 871 123 q 876 116 879 104 q 881 91 881 71 l 881 71 l 881 -395 l 1005 -395 l 1005 50 q 1005 101 995 133 q 985 164 963 186 l 963 186 q 943 205 912 217 q 881 228 838 228 l 838 228 q 764 228 710 188 q 655 147 625 64 q 595 -19 595 -145 l 595 -145 q 595 -239 621 -317 q 646 -395 697 -452 q 747 -509 824 -540 q 900 -571 1002 -571 z"},"ഐ":{"ha":2109,"x_min":37,"x_max":2067,"o":"m 255 12 l 255 12 q 198 12 148 -14 q 98 -41 68 -96 q 37 -151 37 -239 l 37 -239 q 37 -314 63 -375 q 89 -436 138 -480 q 186 -524 253 -547 q 319 -571 401 -571 l 401 -571 q 483 -571 544 -548 q 604 -526 644 -486 q 683 -447 703 -394 q 722 -341 722 -280 l 722 -280 q 722 -212 702 -159 q 682 -106 647 -64 q 611 -23 564 11 l 564 11 l 486 -60 q 517 -86 542 -116 q 567 -147 581 -186 q 595 -225 595 -276 l 595 -276 q 595 -337 572 -382 q 549 -427 504 -452 q 458 -477 390 -477 l 390 -477 q 319 -477 265 -445 q 211 -413 181 -358 q 151 -304 151 -235 l 151 -235 q 151 -178 165 -143 q 178 -108 201 -92 q 224 -77 253 -77 l 253 -77 q 275 -77 292 -87 q 308 -97 317 -116 q 325 -135 325 -163 l 325 -163 q 325 -205 304 -228 q 283 -251 245 -251 l 245 -251 q 207 -251 173 -231 q 138 -211 106 -175 l 106 -175 l 93 -260 q 122 -291 168 -315 q 214 -340 271 -340 l 271 -340 q 326 -340 365 -319 q 403 -299 424 -261 q 445 -223 445 -171 l 445 -171 q 445 -114 422 -73 q 399 -32 357 -10 q 315 12 255 12 z m 1011 -356 l 1011 -356 q 1088 -356 1136 -328 q 1184 -301 1208 -259 q 1231 -217 1231 -172 l 1231 -172 q 1231 -137 1221 -109 q 1210 -82 1197 -64 l 1197 -64 l 1180 -92 l 1676 -92 l 1671 0 l 1116 0 l 1073 -56 q 1088 -74 1099 -99 q 1110 -124 1110 -160 l 1110 -160 q 1110 -206 1086 -235 q 1061 -265 1012 -265 l 1012 -265 q 980 -265 958 -251 q 935 -238 924 -214 q 913 -191 913 -163 l 913 -163 q 913 -124 927 -96 q 941 -69 963 -47 l 963 -47 l 875 10 q 835 -27 813 -70 q 790 -113 790 -168 l 790 -168 q 790 -225 818 -267 q 846 -309 896 -332 q 946 -356 1011 -356 z m 1717 -571 l 1717 -571 q 1802 -571 1867 -544 q 1932 -518 1977 -466 q 2021 -415 2044 -340 q 2066 -266 2066 -170 l 2066 -170 q 2066 -95 2049 -25 q 2032 45 1999 109 q 1966 172 1917 228 l 1917 228 l 1825 167 q 1865 118 1890 65 q 1915 11 1927 -48 q 1938 -107 1938 -172 l 1938 -172 q 1938 -232 1927 -287 q 1915 -342 1889 -385 q 1863 -429 1821 -454 q 1778 -479 1714 -479 l 1714 -479 q 1635 -479 1583 -436 q 1531 -394 1506 -318 q 1480 -242 1480 -141 l 1480 -141 q 1480 -115 1481 -91 q 1482 -68 1484 -47 l 1484 -47 q 1484 -42 1484 -37 q 1484 -33 1485 -26 l 1485 -26 q 1490 35 1506 71 q 1521 107 1545 123 q 1568 139 1594 139 l 1594 139 q 1619 139 1631 123 l 1631 123 q 1636 116 1639 104 q 1641 91 1641 71 l 1641 71 l 1641 -395 l 1765 -395 l 1765 50 q 1765 101 1755 133 q 1745 164 1723 186 l 1723 186 q 1703 205 1672 217 q 1641 228 1598 228 l 1598 228 q 1524 228 1470 188 q 1415 147 1385 65 q 1355 -18 1355 -143 l 1355 -143 q 1355 -236 1378 -314 q 1400 -392 1445 -449 q 1490 -507 1558 -539 q 1626 -571 1717 -571 z"},"ഒ":{"ha":807,"x_min":38,"x_max":772,"o":"m 477 -571 l 477 -571 q 582 -571 644 -549 q 706 -528 734 -491 q 761 -455 761 -407 l 761 -407 q 761 -380 751 -355 q 741 -331 720 -311 q 698 -292 663 -276 l 663 -276 l 660 -282 q 716 -264 744 -228 q 772 -192 772 -142 l 772 -142 q 772 -70 722 -29 q 672 12 578 12 l 578 12 q 543 12 516 8 q 489 4 468 0 l 468 0 l 486 -90 q 502 -86 520 -83 q 537 -80 558 -80 l 558 -80 q 605 -80 626 -96 q 647 -113 647 -151 l 647 -151 q 647 -167 641 -181 q 634 -196 620 -207 l 620 -207 q 606 -218 584 -224 q 562 -231 517 -231 l 517 -231 l 497 -231 l 497 -322 l 516 -322 q 555 -322 578 -328 q 601 -335 617 -349 l 617 -349 q 626 -358 631 -369 q 636 -381 636 -396 l 636 -396 q 636 -434 598 -455 q 559 -477 469 -477 l 469 -477 q 402 -477 344 -461 q 286 -446 244 -416 q 201 -386 177 -343 q 152 -300 152 -244 l 152 -244 l 152 -232 q 152 -177 166 -142 q 179 -108 202 -92 q 224 -77 253 -77 l 253 -77 q 276 -77 293 -87 q 309 -97 318 -116 q 326 -135 326 -163 l 326 -163 q 326 -205 305 -228 q 284 -251 246 -251 l 246 -251 q 210 -251 177 -232 q 144 -214 113 -180 l 113 -180 l 107 -273 q 135 -299 178 -319 q 220 -340 272 -340 l 272 -340 q 327 -340 366 -319 q 404 -299 425 -261 q 446 -223 446 -171 l 446 -171 q 446 -114 423 -73 q 400 -32 358 -10 q 315 12 256 12 l 256 12 q 197 12 148 -14 q 98 -41 68 -95 q 38 -150 38 -235 l 38 -235 q 38 -313 69 -375 q 100 -438 158 -481 q 216 -525 297 -548 q 378 -571 477 -571 z"},"ഓ":{"ha":1350,"x_min":38,"x_max":1309,"o":"m 477 -571 l 477 -571 q 582 -571 644 -549 q 706 -528 734 -491 q 761 -455 761 -407 l 761 -407 q 761 -380 751 -355 q 741 -331 720 -311 q 698 -292 663 -276 l 663 -276 l 660 -282 q 716 -264 744 -228 q 772 -192 772 -142 l 772 -142 q 772 -70 722 -29 q 672 12 578 12 l 578 12 q 543 12 516 8 q 489 4 468 0 l 468 0 l 486 -90 q 502 -86 520 -83 q 537 -80 558 -80 l 558 -80 q 605 -80 626 -96 q 647 -113 647 -151 l 647 -151 q 647 -167 641 -181 q 634 -196 620 -207 l 620 -207 q 606 -218 584 -224 q 562 -231 517 -231 l 517 -231 l 497 -231 l 497 -322 l 516 -322 q 555 -322 578 -328 q 601 -335 617 -349 l 617 -349 q 626 -358 631 -369 q 636 -381 636 -396 l 636 -396 q 636 -434 598 -455 q 559 -477 469 -477 l 469 -477 q 402 -477 344 -461 q 286 -446 244 -416 q 201 -386 177 -343 q 152 -300 152 -244 l 152 -244 l 152 -232 q 152 -177 166 -142 q 179 -108 202 -92 q 224 -77 253 -77 l 253 -77 q 276 -77 293 -87 q 309 -97 318 -116 q 326 -135 326 -163 l 326 -163 q 326 -205 305 -228 q 284 -251 246 -251 l 246 -251 q 210 -251 177 -232 q 144 -214 113 -180 l 113 -180 l 107 -273 q 135 -299 178 -319 q 220 -340 272 -340 l 272 -340 q 327 -340 366 -319 q 404 -299 425 -261 q 446 -223 446 -171 l 446 -171 q 446 -114 423 -73 q 400 -32 358 -10 q 315 12 256 12 l 256 12 q 197 12 148 -14 q 98 -41 68 -95 q 38 -150 38 -235 l 38 -235 q 38 -313 69 -375 q 100 -438 158 -481 q 216 -525 297 -548 q 378 -571 477 -571 z m 1309 -281 l 1309 -281 q 1309 -223 1297 -170 q 1285 -118 1256 -76 q 1227 -35 1179 -11 q 1130 12 1057 12 l 1057 12 q 996 12 954 -5 q 912 -23 885 -51 q 857 -79 842 -112 q 826 -146 819 -178 l 819 -178 l 945 -200 q 952 -174 964 -146 q 975 -118 998 -98 q 1020 -79 1057 -79 l 1057 -79 q 1102 -79 1130 -104 q 1157 -130 1169 -175 q 1181 -220 1181 -280 l 1181 -280 q 1181 -339 1169 -384 q 1157 -429 1130 -454 q 1103 -480 1061 -480 l 1061 -480 q 1027 -480 1004 -461 q 981 -443 968 -415 q 954 -388 948 -361 l 948 -361 l 822 -383 q 832 -417 850 -450 q 867 -483 896 -510 q 924 -538 966 -554 q 1008 -571 1067 -571 l 1067 -571 q 1136 -571 1183 -547 q 1229 -524 1257 -483 q 1285 -443 1297 -391 q 1309 -339 1309 -281 z"},"ഔ":{"ha":1605,"x_min":38,"x_max":1568,"o":"m 477 -571 l 477 -571 q 582 -571 644 -549 q 706 -528 734 -491 q 761 -455 761 -407 l 761 -407 q 761 -380 751 -355 q 741 -331 720 -311 q 698 -292 663 -276 l 663 -276 l 660 -282 q 716 -264 744 -228 q 772 -192 772 -142 l 772 -142 q 772 -70 722 -29 q 672 12 578 12 l 578 12 q 543 12 516 8 q 489 4 468 0 l 468 0 l 486 -90 q 502 -86 520 -83 q 537 -80 558 -80 l 558 -80 q 605 -80 626 -96 q 647 -113 647 -151 l 647 -151 q 647 -167 641 -181 q 634 -196 620 -207 l 620 -207 q 606 -218 584 -224 q 562 -231 517 -231 l 517 -231 l 497 -231 l 497 -322 l 516 -322 q 555 -322 578 -328 q 601 -335 617 -349 l 617 -349 q 626 -358 631 -369 q 636 -381 636 -396 l 636 -396 q 636 -434 598 -455 q 559 -477 469 -477 l 469 -477 q 402 -477 344 -461 q 286 -446 244 -416 q 201 -386 177 -343 q 152 -300 152 -244 l 152 -244 l 152 -232 q 152 -177 166 -142 q 179 -108 202 -92 q 224 -77 253 -77 l 253 -77 q 276 -77 293 -87 q 309 -97 318 -116 q 326 -135 326 -163 l 326 -163 q 326 -205 305 -228 q 284 -251 246 -251 l 246 -251 q 210 -251 177 -232 q 144 -214 113 -180 l 113 -180 l 107 -273 q 135 -299 178 -319 q 220 -340 272 -340 l 272 -340 q 327 -340 366 -319 q 404 -299 425 -261 q 446 -223 446 -171 l 446 -171 q 446 -114 423 -73 q 400 -32 358 -10 q 315 12 256 12 l 256 12 q 197 12 148 -14 q 98 -41 68 -95 q 38 -150 38 -235 l 38 -235 q 38 -313 69 -375 q 100 -438 158 -481 q 216 -525 297 -548 q 378 -571 477 -571 z m 1347 -571 l 1347 -571 q 1417 -571 1466 -538 q 1515 -505 1542 -445 q 1568 -386 1568 -307 l 1568 -307 q 1568 -206 1534 -134 q 1499 -63 1433 -25 q 1367 12 1269 12 l 1269 12 q 1193 12 1137 -2 q 1081 -16 1029 -42 l 1029 -42 l 1079 -130 q 1122 -107 1163 -94 q 1204 -82 1260 -82 l 1260 -82 q 1329 -82 1369 -110 q 1408 -139 1425 -189 q 1442 -240 1442 -305 l 1442 -305 q 1442 -395 1414 -436 q 1385 -478 1339 -478 l 1339 -478 q 1314 -478 1297 -468 q 1280 -459 1271 -442 l 1271 -442 q 1263 -427 1261 -407 q 1258 -387 1258 -349 l 1258 -349 l 1258 -260 l 1134 -260 l 1134 -333 q 1134 -375 1131 -401 q 1128 -428 1118 -443 l 1118 -443 q 1107 -462 1090 -470 q 1073 -478 1052 -478 l 1052 -478 q 1005 -478 983 -448 q 960 -418 960 -377 l 960 -377 q 960 -345 965 -323 q 969 -301 975 -282 l 975 -282 l 856 -256 q 846 -284 841 -318 q 836 -352 836 -379 l 836 -379 q 836 -430 858 -473 q 880 -517 926 -544 q 971 -571 1041 -571 l 1041 -571 q 1098 -571 1136 -551 q 1174 -532 1200 -498 l 1200 -498 l 1188 -500 q 1218 -538 1257 -554 q 1296 -571 1347 -571 z"},"ക":{"ha":1108,"x_min":30,"x_max":1078,"o":"m 225 12 l 225 12 q 130 12 80 -33 q 30 -78 30 -158 l 30 -158 q 30 -206 53 -241 q 75 -277 112 -299 l 112 -299 q 137 -313 168 -322 q 198 -332 241 -336 q 284 -340 349 -340 l 349 -340 l 772 -340 q 862 -340 917 -329 q 972 -319 1011 -292 l 1011 -292 q 1041 -271 1060 -238 q 1078 -206 1078 -158 l 1078 -158 q 1078 -76 1025 -32 q 972 12 885 12 l 885 12 q 861 12 838 9 q 814 6 791 0 l 791 0 l 814 -88 q 826 -85 842 -82 q 858 -80 873 -80 l 873 -80 q 914 -80 936 -99 q 957 -119 957 -157 l 957 -157 q 957 -182 947 -198 q 937 -215 920 -225 l 920 -225 q 897 -240 864 -244 q 831 -248 777 -248 l 777 -248 l 325 -248 q 269 -248 239 -244 q 208 -240 185 -225 l 185 -225 q 170 -215 160 -198 q 150 -182 150 -160 l 150 -160 q 150 -133 161 -115 q 171 -97 192 -88 q 213 -79 242 -79 l 242 -79 q 270 -79 300 -89 q 330 -99 365 -125 l 365 -125 l 423 -48 q 391 -26 361 -13 q 330 0 298 6 q 265 12 225 12 z m 559 -571 l 559 -571 q 648 -571 705 -533 q 762 -496 789 -430 q 816 -365 816 -281 l 816 -281 q 816 -187 786 -121 q 755 -56 698 -22 q 640 12 560 12 l 560 12 q 498 12 449 -7 q 400 -27 367 -64 l 367 -64 q 333 -103 316 -158 q 299 -214 299 -281 l 299 -281 q 299 -416 368 -493 q 436 -571 559 -571 z m 559 -479 l 559 -479 q 489 -479 455 -429 q 421 -379 421 -280 l 421 -280 q 421 -215 437 -170 q 452 -125 482 -102 q 512 -80 557 -80 l 557 -80 q 602 -80 632 -102 q 662 -124 678 -169 q 694 -214 694 -280 l 694 -280 q 694 -347 679 -391 q 663 -436 633 -457 q 603 -479 559 -479 z"},"ഖ":{"ha":1067,"x_min":38,"x_max":1001,"o":"m 402 -571 l 402 -571 q 484 -571 545 -548 q 605 -526 645 -487 q 684 -448 704 -396 q 723 -344 723 -285 l 723 -285 q 723 -228 709 -185 q 694 -143 671 -107 q 647 -72 616 -38 l 616 -38 l 603 0 l 537 0 l 496 -58 q 523 -88 546 -118 q 568 -149 582 -187 q 596 -225 596 -276 l 596 -276 q 596 -339 572 -384 q 547 -429 501 -453 q 455 -477 391 -477 l 391 -477 q 320 -477 266 -445 q 212 -414 182 -360 q 152 -307 152 -239 l 152 -239 l 152 -232 q 152 -177 166 -142 q 179 -108 202 -92 q 224 -77 253 -77 l 253 -77 q 276 -77 293 -87 q 309 -97 318 -116 q 326 -135 326 -163 l 326 -163 q 326 -205 305 -228 q 284 -251 246 -251 l 246 -251 q 210 -251 177 -232 q 144 -214 113 -180 l 113 -180 l 107 -273 q 135 -299 178 -319 q 220 -340 272 -340 l 272 -340 q 327 -340 366 -319 q 404 -299 425 -261 q 446 -223 446 -171 l 446 -171 q 446 -114 423 -73 q 400 -32 358 -10 q 316 12 256 12 l 256 12 q 199 12 149 -14 q 99 -41 69 -96 q 38 -151 38 -239 l 38 -239 q 38 -340 84 -414 q 130 -489 213 -530 q 295 -571 402 -571 z m 877 -559 l 1001 -559 l 1001 0 l 575 0 l 615 -92 l 877 -92 l 877 -559 z"},"ഗ":{"ha":946,"x_min":38,"x_max":908,"o":"m 648 -571 l 648 -571 q 728 -571 786 -537 q 844 -504 876 -442 q 908 -381 908 -297 l 908 -297 q 908 -233 892 -178 q 875 -124 842 -78 q 809 -32 762 10 l 762 10 l 676 -60 q 712 -94 735 -129 q 758 -165 770 -205 q 782 -245 782 -291 l 782 -291 q 782 -352 765 -393 q 747 -435 717 -456 q 687 -477 648 -477 l 648 -477 q 615 -477 595 -466 q 574 -455 561 -435 l 561 -435 q 547 -413 542 -376 q 536 -340 536 -271 l 536 -271 l 536 -254 q 536 -208 530 -171 q 524 -135 512 -106 q 500 -77 479 -53 l 479 -53 q 450 -22 406 -5 q 362 12 299 12 l 299 12 q 219 12 161 -21 q 102 -55 70 -117 q 38 -179 38 -264 l 38 -264 q 38 -330 55 -384 q 72 -439 105 -484 q 138 -530 185 -572 l 185 -572 l 269 -501 q 234 -468 211 -432 q 187 -396 176 -356 q 164 -316 164 -269 l 164 -269 q 164 -206 181 -164 q 197 -123 227 -102 q 257 -82 294 -82 l 294 -82 q 330 -82 351 -93 q 372 -104 385 -123 l 385 -123 q 400 -146 405 -182 q 409 -219 409 -282 l 409 -282 l 409 -306 q 409 -375 424 -423 q 439 -472 470 -505 l 470 -505 q 499 -536 541 -553 q 582 -571 648 -571 z"},"ഘ":{"ha":1412,"x_min":30,"x_max":1346,"o":"m 251 -571 l 251 -571 q 328 -571 376 -544 q 424 -517 448 -475 q 471 -433 471 -387 l 471 -387 q 471 -353 461 -325 q 450 -298 437 -281 l 437 -281 l 421 -308 l 631 -308 l 637 -216 l 356 -216 l 313 -272 q 328 -289 339 -315 q 350 -341 350 -376 l 350 -376 q 350 -422 326 -451 q 301 -480 252 -480 l 252 -480 q 219 -480 197 -466 q 175 -453 164 -430 q 153 -407 153 -379 l 153 -379 q 153 -340 167 -313 q 181 -286 203 -263 l 203 -263 l 115 -206 q 75 -243 53 -286 q 30 -329 30 -385 l 30 -385 q 30 -441 58 -482 q 86 -524 136 -547 q 186 -571 251 -571 z m 1222 -559 l 1346 -559 l 1346 0 l 563 0 l 563 -307 q 563 -385 581 -429 q 599 -474 630 -505 l 630 -505 q 663 -537 712 -554 q 760 -571 824 -571 l 824 -571 q 888 -571 936 -554 q 984 -537 1016 -506 l 1016 -506 q 1051 -470 1067 -423 q 1082 -376 1082 -309 l 1082 -309 l 1082 -216 l 687 -216 l 687 -92 l 1222 -92 l 1222 -559 z m 823 -479 l 823 -479 q 751 -479 719 -438 q 687 -397 687 -322 l 687 -322 l 687 -308 l 958 -308 l 958 -321 q 958 -399 926 -439 q 893 -479 823 -479 z"},"ങ":{"ha":1135,"x_min":39,"x_max":1100,"o":"m 384 -571 l 384 -571 q 471 -571 528 -544 q 585 -518 630 -468 l 630 -468 l 649 -391 l 667 -227 l 667 0 l 543 0 l 543 -283 q 543 -353 532 -388 q 520 -423 499 -442 l 499 -442 q 479 -459 453 -468 q 426 -478 381 -478 l 381 -478 q 314 -478 263 -449 q 212 -421 183 -367 q 154 -314 154 -240 l 154 -240 l 154 -234 q 154 -178 167 -143 q 180 -108 203 -92 q 225 -77 254 -77 l 254 -77 q 277 -77 293 -87 q 309 -97 318 -116 q 327 -135 327 -163 l 327 -163 q 327 -206 307 -228 q 286 -251 247 -251 l 247 -251 q 209 -251 175 -231 q 140 -211 108 -175 l 108 -175 l 95 -260 q 123 -291 171 -315 q 218 -340 275 -340 l 275 -340 q 328 -340 367 -319 q 406 -299 427 -261 q 447 -223 447 -171 l 447 -171 q 447 -114 424 -73 q 401 -32 359 -10 q 316 12 257 12 l 257 12 q 200 12 150 -14 q 100 -40 70 -96 q 39 -152 39 -242 l 39 -242 q 39 -349 85 -422 q 131 -495 209 -533 q 287 -571 384 -571 z m 861 -571 l 861 -571 q 936 -571 987 -550 q 1037 -529 1063 -493 q 1089 -458 1089 -414 l 1089 -414 q 1089 -383 1079 -357 q 1069 -332 1048 -312 q 1027 -293 991 -276 l 991 -276 l 989 -282 q 1044 -264 1072 -228 q 1100 -192 1100 -142 l 1100 -142 q 1100 -71 1050 -29 q 1000 12 906 12 l 906 12 q 870 12 844 8 q 817 4 796 0 l 796 0 l 814 -90 q 833 -86 849 -83 q 865 -80 886 -80 l 886 -80 q 932 -80 954 -96 q 975 -113 975 -151 l 975 -151 q 975 -167 969 -181 q 962 -196 948 -207 l 948 -207 q 934 -218 912 -224 q 890 -231 846 -231 l 846 -231 l 813 -231 l 813 -322 l 844 -322 q 878 -322 904 -328 q 929 -335 944 -350 l 944 -350 q 953 -359 959 -372 q 964 -385 964 -401 l 964 -401 q 964 -439 936 -458 q 908 -478 857 -478 l 857 -478 q 808 -478 774 -463 q 739 -449 716 -421 l 716 -421 q 700 -402 689 -376 q 678 -351 673 -314 q 667 -277 667 -222 l 667 -222 l 667 -76 l 553 -76 l 553 -242 l 577 -396 q 597 -449 636 -488 q 675 -528 732 -549 q 789 -571 861 -571 z"},"ച":{"ha":984,"x_min":19,"x_max":918,"o":"m 794 -559 l 918 -559 l 918 0 l 19 0 l 19 -92 l 465 -92 l 398 -77 q 420 -90 440 -117 q 459 -145 459 -188 l 459 -188 q 459 -233 438 -260 q 416 -287 372 -287 l 372 -287 q 327 -287 305 -260 q 283 -234 283 -190 l 283 -190 q 283 -179 284 -171 q 284 -163 285 -156 l 285 -156 l 165 -145 q 164 -156 162 -172 q 160 -188 160 -202 l 160 -202 q 160 -283 216 -330 q 272 -378 373 -378 l 373 -378 q 433 -378 473 -362 q 512 -346 536 -320 q 559 -294 569 -262 q 579 -231 579 -199 l 579 -199 q 579 -173 573 -150 q 566 -128 555 -109 q 543 -90 528 -74 l 528 -74 l 502 -92 l 794 -92 l 794 -559 z"},"ഛ":{"ha":1429,"x_min":19,"x_max":1391,"o":"m 373 -378 l 373 -378 q 433 -378 473 -362 q 512 -346 536 -320 q 559 -294 569 -262 q 579 -231 579 -199 l 579 -199 q 579 -173 573 -150 q 566 -128 555 -109 q 543 -90 528 -74 l 528 -74 l 502 -92 l 791 -92 l 846 0 l 19 0 l 19 -92 l 465 -92 l 398 -77 q 420 -90 440 -117 q 459 -145 459 -188 l 459 -188 q 459 -233 438 -260 q 416 -287 372 -287 l 372 -287 q 327 -287 305 -260 q 283 -234 283 -190 l 283 -190 q 283 -179 284 -171 q 284 -163 285 -156 l 285 -156 l 165 -145 q 164 -156 162 -172 q 160 -188 160 -202 l 160 -202 q 160 -283 216 -330 q 272 -378 373 -378 z m 1024 -571 l 1024 -571 q 1116 -571 1185 -545 q 1254 -520 1300 -474 q 1345 -429 1368 -368 q 1391 -308 1391 -238 l 1391 -238 q 1391 -152 1363 -96 q 1334 -41 1282 -14 q 1230 12 1160 12 l 1160 12 q 1087 12 1041 -17 q 994 -47 972 -96 q 950 -145 950 -202 l 950 -202 q 950 -295 1002 -351 q 1053 -408 1145 -408 l 1145 -408 q 1204 -408 1248 -378 q 1292 -348 1318 -302 q 1344 -256 1346 -205 l 1346 -205 l 1303 -208 q 1296 -235 1279 -260 q 1261 -286 1235 -302 q 1208 -319 1174 -319 l 1174 -319 q 1120 -319 1096 -287 q 1071 -255 1071 -200 l 1071 -200 q 1071 -165 1081 -137 q 1090 -110 1111 -95 q 1132 -80 1165 -80 l 1165 -80 q 1198 -80 1222 -96 q 1245 -113 1258 -149 q 1270 -185 1270 -242 l 1270 -242 q 1270 -252 1269 -271 q 1267 -290 1264 -308 l 1264 -308 q 1263 -313 1263 -320 q 1263 -327 1261 -331 l 1261 -331 q 1253 -371 1225 -404 q 1196 -437 1149 -457 q 1101 -477 1034 -477 l 1034 -477 q 959 -477 909 -453 q 858 -429 832 -384 q 806 -340 806 -278 l 806 -278 q 806 -229 819 -191 q 832 -153 855 -121 q 878 -89 907 -60 l 907 -60 l 865 0 l 818 0 l 797 -30 q 766 -61 739 -98 q 712 -135 696 -181 q 679 -227 679 -283 l 679 -283 q 679 -339 699 -391 q 719 -443 761 -483 q 803 -524 868 -547 q 933 -571 1024 -571 z"},"ജ":{"ha":981,"x_min":35,"x_max":943,"o":"m 311 -571 l 311 -571 q 369 -571 413 -561 q 457 -551 491 -530 q 524 -510 552 -479 l 552 -479 l 516 -488 q 551 -528 597 -549 q 643 -571 709 -571 l 709 -571 q 793 -571 844 -541 q 895 -512 919 -467 q 943 -422 943 -373 l 943 -373 q 943 -331 932 -299 q 921 -268 900 -244 q 878 -221 843 -202 l 843 -202 l 645 -167 l 546 -159 q 518 -155 481 -154 q 443 -154 413 -154 l 413 -154 l 242 -154 q 209 -154 192 -151 q 174 -149 164 -142 l 164 -142 q 155 -137 152 -130 q 148 -124 148 -114 l 148 -114 q 148 -98 157 -88 q 165 -79 180 -75 q 195 -72 212 -72 l 212 -72 q 251 -72 287 -78 q 322 -85 358 -96 q 393 -107 431 -120 l 431 -120 q 461 -131 491 -141 q 521 -151 550 -159 q 578 -168 604 -175 q 629 -182 650 -186 l 650 -186 q 675 -194 690 -202 q 704 -210 714 -216 q 724 -223 735 -227 q 746 -232 764 -232 l 764 -232 q 803 -232 838 -221 q 872 -210 894 -184 q 916 -158 916 -114 l 916 -114 q 916 -53 874 -20 q 832 12 753 12 l 753 12 q 691 12 655 -7 q 619 -27 603 -57 q 587 -88 587 -120 l 587 -120 q 587 -155 606 -179 q 624 -203 647 -212 l 647 -212 l 742 -219 q 732 -213 719 -201 q 705 -189 695 -171 q 685 -154 685 -128 l 685 -128 q 685 -94 703 -79 q 720 -64 751 -64 l 751 -64 q 785 -64 799 -79 q 813 -94 813 -115 l 813 -115 q 813 -134 805 -145 q 797 -157 783 -162 q 768 -167 750 -167 l 750 -167 q 725 -167 704 -158 q 683 -149 659 -130 l 659 -130 l 658 -149 q 647 -137 628 -122 q 608 -108 582 -92 q 556 -77 521 -64 l 521 -64 q 462 -39 411 -22 q 360 -5 311 4 q 261 12 206 12 l 206 12 q 160 12 121 1 q 82 -11 59 -38 q 35 -66 35 -113 l 35 -113 q 35 -144 48 -168 q 61 -192 88 -208 l 88 -208 q 111 -222 147 -228 q 182 -235 242 -235 l 242 -235 l 565 -235 q 620 -235 658 -238 q 695 -241 722 -247 q 749 -254 768 -264 l 768 -264 q 796 -279 810 -304 q 824 -329 824 -366 l 824 -366 q 824 -394 811 -420 q 798 -447 770 -463 q 742 -480 695 -480 l 695 -480 q 667 -480 647 -472 q 626 -464 614 -450 l 614 -450 q 598 -432 592 -404 q 586 -376 586 -325 l 586 -325 l 586 -262 l 471 -262 l 471 -312 q 471 -362 463 -396 q 454 -431 425 -456 l 425 -456 q 408 -470 381 -479 q 353 -489 306 -489 l 306 -489 q 262 -489 223 -482 q 183 -475 159 -453 l 159 -453 q 155 -450 153 -443 q 151 -437 149 -432 l 149 -432 q 143 -420 140 -409 q 137 -398 137 -384 l 137 -384 q 137 -346 156 -331 q 175 -317 203 -317 l 203 -317 q 226 -317 239 -325 q 252 -333 258 -345 q 263 -358 263 -372 l 263 -372 q 263 -398 247 -412 q 230 -427 198 -427 l 198 -427 q 169 -427 145 -417 q 121 -407 104 -396 l 104 -396 l 76 -424 q 101 -450 143 -464 q 184 -479 229 -479 l 229 -479 q 273 -479 303 -464 q 333 -450 349 -425 q 364 -400 364 -367 l 364 -367 q 364 -335 348 -306 q 332 -277 297 -259 q 262 -242 204 -242 l 204 -242 q 129 -242 85 -280 q 41 -318 41 -386 l 41 -386 q 41 -441 72 -482 q 103 -524 163 -547 q 223 -571 311 -571 z"},"ഝ":{"ha":1761,"x_min":38,"x_max":1723,"o":"m 709 -571 l 709 -571 q 779 -571 832 -555 q 884 -540 922 -508 l 922 -508 q 964 -472 986 -419 q 1008 -366 1008 -273 l 1008 -273 l 1008 -252 q 1008 -204 1014 -172 q 1019 -140 1034 -119 l 1034 -119 q 1047 -101 1067 -91 q 1086 -82 1114 -82 l 1114 -82 q 1140 -82 1159 -90 q 1177 -99 1190 -113 l 1190 -113 q 1206 -133 1214 -164 q 1221 -195 1221 -249 l 1221 -249 l 1221 -559 l 1345 -559 l 1345 -261 q 1345 -205 1350 -175 q 1354 -145 1368 -124 l 1368 -124 q 1382 -103 1405 -92 q 1428 -81 1454 -81 l 1454 -81 q 1495 -81 1528 -103 q 1560 -126 1579 -168 q 1597 -211 1597 -269 l 1597 -269 q 1597 -316 1585 -356 q 1573 -396 1550 -431 q 1526 -467 1492 -499 l 1492 -499 l 1579 -570 q 1624 -530 1656 -485 q 1688 -441 1706 -387 q 1723 -333 1723 -264 l 1723 -264 q 1723 -186 1692 -123 q 1661 -61 1603 -24 q 1545 12 1462 12 l 1462 12 q 1397 12 1354 -9 q 1310 -31 1275 -72 l 1275 -72 l 1284 -72 q 1265 -49 1240 -29 q 1214 -10 1181 1 q 1148 12 1103 12 l 1103 12 q 1048 12 1007 -4 q 966 -21 937 -52 l 937 -52 q 920 -72 908 -98 q 895 -124 888 -161 q 881 -199 881 -250 l 881 -250 l 881 -259 q 881 -305 875 -340 q 869 -375 856 -401 q 842 -427 821 -445 l 821 -445 q 801 -462 771 -472 q 741 -482 700 -482 l 700 -482 q 679 -482 657 -479 q 634 -477 612 -470 l 612 -470 l 588 -463 q 544 -445 511 -410 q 478 -375 460 -329 q 442 -283 442 -229 l 442 -229 q 442 -170 457 -137 q 471 -105 494 -92 q 517 -80 543 -80 l 543 -80 q 569 -80 592 -92 q 615 -105 629 -137 q 643 -169 643 -225 l 643 -225 q 643 -279 625 -325 q 607 -371 575 -406 q 543 -442 498 -462 l 498 -462 l 475 -470 q 454 -477 434 -479 q 413 -481 389 -481 l 389 -481 q 313 -481 264 -455 q 214 -429 190 -383 q 165 -337 165 -278 l 165 -278 q 165 -230 178 -191 q 190 -153 215 -121 q 239 -89 274 -60 l 274 -60 l 194 11 q 150 -22 115 -62 q 80 -103 59 -156 q 38 -210 38 -279 l 38 -279 q 38 -337 57 -389 q 76 -441 117 -482 q 158 -523 222 -547 q 286 -571 376 -571 l 376 -571 q 431 -571 476 -561 q 521 -551 563 -530 l 563 -530 l 589 -516 q 670 -473 719 -397 q 768 -322 768 -225 l 768 -225 q 768 -149 742 -95 q 716 -42 666 -15 q 615 12 543 12 l 543 12 q 471 12 420 -16 q 369 -44 343 -97 q 317 -150 317 -226 l 317 -226 q 317 -289 339 -342 q 360 -395 401 -438 q 441 -481 496 -512 l 496 -512 l 525 -530 q 572 -553 617 -562 q 661 -571 709 -571 z"},"ഞ":{"ha":1554,"x_min":39,"x_max":1516,"o":"m 384 -571 l 384 -571 q 471 -571 528 -544 q 585 -518 630 -468 l 630 -468 l 623 -450 l 667 -225 l 667 0 l 543 0 l 543 -283 q 543 -354 532 -388 q 520 -423 499 -442 l 499 -442 q 479 -459 453 -468 q 426 -478 381 -478 l 381 -478 q 314 -478 263 -449 q 212 -421 183 -367 q 154 -314 154 -240 l 154 -240 l 154 -234 q 154 -178 167 -143 q 180 -108 203 -92 q 225 -77 254 -77 l 254 -77 q 277 -77 293 -87 q 309 -97 318 -116 q 327 -135 327 -163 l 327 -163 q 327 -206 307 -228 q 286 -251 247 -251 l 247 -251 q 209 -251 175 -231 q 140 -211 108 -175 l 108 -175 l 95 -260 q 123 -291 171 -315 q 218 -340 275 -340 l 275 -340 q 328 -340 367 -319 q 406 -299 427 -261 q 447 -223 447 -171 l 447 -171 q 447 -114 424 -73 q 401 -32 359 -10 q 316 12 257 12 l 257 12 q 200 12 150 -14 q 100 -40 70 -96 q 39 -152 39 -242 l 39 -242 q 39 -349 85 -422 q 131 -495 209 -533 q 287 -571 384 -571 z m 853 -571 l 853 -571 q 903 -571 947 -561 q 990 -552 1031 -531 l 1031 -531 l 1058 -516 q 1137 -472 1186 -397 q 1234 -323 1234 -225 l 1234 -225 q 1234 -149 1208 -95 q 1182 -42 1132 -15 q 1081 12 1008 12 l 1008 12 q 936 12 885 -16 q 834 -44 808 -97 q 782 -150 782 -226 l 782 -226 q 782 -289 806 -342 q 829 -396 871 -439 q 912 -482 968 -513 l 968 -513 l 996 -528 q 1037 -549 1085 -560 q 1133 -571 1194 -571 l 1194 -571 q 1280 -571 1342 -547 q 1403 -524 1442 -483 q 1480 -442 1498 -390 q 1516 -338 1516 -280 l 1516 -280 q 1516 -212 1496 -158 q 1476 -105 1441 -64 q 1405 -23 1358 11 l 1358 11 l 1280 -60 q 1311 -86 1336 -116 q 1360 -147 1375 -186 q 1389 -225 1389 -276 l 1389 -276 q 1389 -336 1366 -382 q 1342 -429 1296 -455 q 1250 -481 1183 -481 l 1183 -481 q 1152 -481 1127 -479 q 1102 -477 1080 -470 l 1080 -470 l 1058 -463 q 1012 -443 978 -407 q 944 -372 926 -326 q 908 -281 908 -229 l 908 -229 q 908 -170 922 -137 q 936 -105 959 -92 q 982 -80 1008 -80 l 1008 -80 q 1035 -80 1058 -92 q 1081 -105 1095 -137 q 1109 -169 1109 -225 l 1109 -225 q 1109 -279 1092 -325 q 1075 -371 1044 -406 q 1012 -441 969 -461 l 969 -461 l 944 -470 q 932 -474 918 -476 q 904 -479 889 -480 q 873 -481 853 -481 l 853 -481 q 803 -481 773 -469 q 742 -457 724 -441 l 724 -441 q 693 -414 680 -373 q 667 -333 667 -259 l 667 -259 l 667 -12 l 549 -12 l 549 -256 l 593 -466 q 621 -495 656 -519 q 691 -543 739 -557 q 786 -571 853 -571 z"},"ട":{"ha":594,"x_min":16,"x_max":570,"o":"m 285 -571 l 285 -571 q 377 -571 449 -551 q 521 -531 570 -504 l 570 -504 l 515 -420 q 468 -446 415 -461 q 361 -477 290 -477 l 290 -477 q 243 -477 214 -467 q 184 -457 170 -440 q 156 -423 156 -402 l 156 -402 q 156 -386 161 -375 q 165 -365 174 -356 l 174 -356 q 191 -340 224 -335 q 256 -331 304 -331 l 304 -331 l 324 -331 q 409 -331 457 -314 q 505 -297 532 -264 l 532 -264 q 548 -244 555 -218 q 562 -193 562 -163 l 562 -163 q 562 -112 534 -72 q 506 -32 449 -10 q 391 12 303 12 l 303 12 q 214 12 146 -6 q 77 -25 16 -58 l 16 -58 l 70 -144 q 103 -125 138 -111 q 172 -98 212 -90 q 252 -82 299 -82 l 299 -82 q 348 -82 379 -92 q 409 -103 423 -120 q 437 -138 437 -162 l 437 -162 q 437 -179 432 -193 q 426 -207 411 -216 l 411 -216 q 397 -226 373 -231 q 348 -236 297 -236 l 297 -236 l 282 -236 q 205 -236 149 -251 q 92 -267 63 -301 l 63 -301 q 48 -319 40 -343 q 31 -368 31 -400 l 31 -400 q 31 -449 59 -487 q 86 -526 142 -548 q 198 -571 285 -571 z"},"ഠ":{"ha":692,"x_min":38,"x_max":654,"o":"m 344 -571 l 344 -571 q 440 -571 510 -535 q 579 -500 617 -434 q 654 -368 654 -278 l 654 -278 q 654 -191 617 -126 q 579 -61 511 -24 q 442 12 346 12 l 346 12 q 241 12 173 -28 q 104 -68 71 -135 q 38 -203 38 -281 l 38 -281 q 38 -369 75 -434 q 112 -499 181 -535 q 250 -571 344 -571 z m 346 -82 l 346 -82 q 406 -82 446 -107 q 486 -133 507 -178 q 527 -223 527 -280 l 527 -280 q 527 -338 507 -382 q 486 -426 446 -451 q 406 -477 346 -477 l 346 -477 q 260 -477 213 -424 q 165 -371 165 -280 l 165 -280 q 165 -191 212 -136 q 258 -82 346 -82 z"},"ഡ":{"ha":1292,"x_min":38,"x_max":1254,"o":"m 632 12 l 632 12 q 578 12 538 -3 q 497 -19 467 -51 l 467 -51 q 449 -71 436 -97 q 423 -123 416 -160 q 409 -198 409 -253 l 409 -253 l 409 -289 q 409 -343 405 -378 q 400 -414 385 -436 l 385 -436 q 373 -456 352 -466 q 330 -477 294 -477 l 294 -477 q 257 -477 227 -456 q 197 -436 181 -394 q 164 -353 164 -290 l 164 -290 q 164 -244 176 -203 q 187 -163 211 -127 q 234 -92 268 -58 l 268 -58 l 185 12 q 138 -30 105 -75 q 72 -121 55 -175 q 38 -229 38 -296 l 38 -296 q 38 -380 70 -442 q 102 -504 161 -537 q 220 -571 300 -571 l 300 -571 q 362 -571 406 -554 q 450 -537 479 -505 l 479 -505 q 500 -483 512 -453 q 524 -424 530 -387 q 535 -351 535 -304 l 535 -304 l 535 -269 q 535 -204 541 -171 q 546 -139 561 -118 l 561 -118 q 574 -100 594 -91 q 614 -82 644 -82 l 644 -82 q 668 -82 689 -90 q 709 -99 721 -114 l 721 -114 q 738 -134 745 -164 q 752 -194 752 -248 l 752 -248 l 752 -559 l 876 -559 l 876 -260 q 876 -204 881 -174 q 885 -145 899 -124 l 899 -124 q 914 -103 937 -92 q 960 -81 986 -81 l 986 -81 q 1027 -81 1060 -103 q 1092 -126 1110 -168 q 1128 -211 1128 -269 l 1128 -269 q 1128 -317 1116 -356 q 1104 -396 1081 -431 q 1058 -467 1023 -499 l 1023 -499 l 1110 -570 q 1155 -530 1187 -485 q 1219 -440 1237 -386 q 1254 -332 1254 -263 l 1254 -263 q 1254 -186 1224 -123 q 1193 -61 1135 -24 q 1077 12 994 12 l 994 12 q 929 12 886 -9 q 842 -30 807 -72 l 807 -72 l 816 -72 q 783 -32 741 -10 q 698 12 632 12 z"},"ഢ":{"ha":1420,"x_min":38,"x_max":1381,"o":"m 632 12 l 632 12 q 578 12 538 -3 q 497 -19 467 -51 l 467 -51 q 449 -71 436 -97 q 423 -123 416 -161 q 409 -199 409 -254 l 409 -254 l 409 -289 q 409 -343 405 -378 q 400 -414 385 -436 l 385 -436 q 373 -456 352 -466 q 330 -477 294 -477 l 294 -477 q 257 -477 227 -456 q 197 -436 181 -395 q 164 -354 164 -291 l 164 -291 q 164 -245 176 -204 q 187 -164 210 -128 q 233 -92 268 -58 l 268 -58 l 185 13 q 137 -30 105 -76 q 72 -122 55 -176 q 38 -230 38 -297 l 38 -297 q 38 -381 70 -442 q 102 -504 161 -537 q 220 -571 300 -571 l 300 -571 q 362 -571 406 -554 q 450 -537 479 -505 l 479 -505 q 500 -483 512 -453 q 524 -424 530 -387 q 535 -351 535 -304 l 535 -304 l 535 -269 q 535 -204 541 -171 q 546 -139 561 -118 l 561 -118 q 574 -100 594 -91 q 614 -82 644 -82 l 644 -82 q 668 -82 689 -90 q 709 -99 721 -114 l 721 -114 q 738 -134 745 -164 q 752 -194 752 -249 l 752 -249 l 752 -559 l 876 -559 l 876 -293 l 816 -72 q 784 -33 741 -10 q 698 12 632 12 z m 1165 -571 l 1165 -571 q 1222 -571 1271 -545 q 1320 -520 1351 -464 q 1381 -409 1381 -318 l 1381 -318 q 1381 -212 1335 -138 q 1289 -64 1211 -26 q 1133 12 1036 12 l 1036 12 q 949 12 893 -13 q 837 -39 793 -87 l 793 -87 l 762 -311 l 762 -520 l 876 -520 l 876 -277 q 876 -205 888 -170 q 900 -136 921 -117 l 921 -117 q 941 -100 968 -90 q 995 -81 1039 -81 l 1039 -81 q 1106 -81 1158 -110 q 1209 -139 1238 -192 q 1266 -245 1266 -319 l 1266 -319 l 1266 -327 q 1266 -384 1253 -418 q 1239 -452 1217 -467 q 1194 -482 1165 -482 l 1165 -482 q 1143 -482 1127 -472 q 1111 -463 1102 -444 q 1093 -425 1093 -396 l 1093 -396 q 1093 -353 1114 -330 q 1134 -308 1173 -308 l 1173 -308 q 1212 -308 1246 -328 q 1280 -348 1312 -384 l 1312 -384 l 1325 -299 q 1297 -268 1250 -243 q 1203 -219 1146 -219 l 1146 -219 q 1092 -219 1053 -240 q 1014 -261 994 -299 q 973 -338 973 -390 l 973 -390 q 973 -445 996 -485 q 1019 -526 1062 -548 q 1104 -571 1165 -571 z"},"ണ":{"ha":1441,"x_min":39,"x_max":1403,"o":"m 384 -571 l 384 -571 q 471 -571 528 -545 q 584 -519 627 -471 l 627 -471 l 599 -486 q 633 -529 680 -550 q 727 -571 784 -571 l 784 -571 q 850 -571 892 -549 q 934 -527 965 -487 l 965 -487 l 953 -484 q 993 -531 1038 -551 q 1082 -571 1145 -571 l 1145 -571 q 1227 -571 1285 -535 q 1343 -499 1373 -437 q 1403 -375 1403 -296 l 1403 -296 q 1403 -231 1386 -176 q 1369 -122 1337 -76 q 1304 -30 1257 11 l 1257 11 l 1172 -60 q 1207 -94 1231 -129 q 1254 -165 1266 -204 q 1277 -244 1277 -290 l 1277 -290 q 1277 -349 1259 -391 q 1241 -433 1209 -455 q 1177 -478 1136 -478 l 1136 -478 q 1108 -478 1085 -467 q 1062 -457 1047 -435 l 1047 -435 q 1033 -415 1029 -385 q 1024 -356 1024 -297 l 1024 -297 l 1024 0 l 900 0 l 900 -313 q 900 -365 894 -396 q 887 -427 869 -447 l 869 -447 q 856 -462 835 -470 q 814 -478 784 -478 l 784 -478 q 757 -478 736 -468 q 715 -459 700 -444 l 700 -444 q 683 -424 676 -393 q 668 -363 668 -303 l 668 -303 l 668 0 l 544 0 l 544 -280 q 544 -352 532 -387 q 520 -423 499 -442 l 499 -442 q 479 -459 452 -468 q 424 -478 381 -478 l 381 -478 q 314 -478 263 -449 q 212 -421 183 -367 q 154 -314 154 -240 l 154 -240 l 154 -234 q 154 -178 167 -143 q 180 -108 203 -92 q 225 -77 254 -77 l 254 -77 q 277 -77 293 -87 q 309 -97 318 -116 q 327 -135 327 -163 l 327 -163 q 327 -206 307 -228 q 286 -251 247 -251 l 247 -251 q 209 -251 175 -231 q 140 -211 108 -175 l 108 -175 l 95 -260 q 123 -291 171 -315 q 218 -340 275 -340 l 275 -340 q 328 -340 367 -319 q 406 -299 427 -261 q 447 -223 447 -171 l 447 -171 q 447 -114 424 -73 q 401 -32 359 -10 q 316 12 257 12 l 257 12 q 200 12 150 -14 q 100 -40 70 -96 q 39 -152 39 -242 l 39 -242 q 39 -349 85 -422 q 131 -495 209 -533 q 287 -571 384 -571 z"},"ത":{"ha":1088,"x_min":38,"x_max":1050,"o":"m 543 12 l 543 12 q 471 12 420 -16 q 369 -44 343 -97 q 317 -150 317 -226 l 317 -226 q 317 -289 340 -342 q 363 -396 405 -439 q 447 -482 502 -513 l 502 -513 l 530 -528 q 571 -549 619 -560 q 667 -571 728 -571 l 728 -571 q 815 -571 876 -547 q 937 -524 976 -483 q 1014 -442 1032 -390 q 1050 -338 1050 -280 l 1050 -280 q 1050 -212 1030 -158 q 1010 -105 975 -64 q 939 -23 892 11 l 892 11 l 815 -60 q 846 -86 871 -116 q 895 -147 909 -186 q 923 -225 923 -276 l 923 -276 q 923 -338 900 -384 q 876 -430 830 -455 q 784 -481 718 -481 l 718 -481 q 686 -481 662 -478 q 637 -476 614 -470 l 614 -470 l 593 -463 q 547 -443 513 -408 q 479 -373 461 -327 q 442 -281 442 -229 l 442 -229 q 442 -170 457 -137 q 471 -105 494 -92 q 517 -80 543 -80 l 543 -80 q 569 -80 592 -92 q 615 -105 629 -136 q 643 -168 643 -225 l 643 -225 q 643 -279 625 -325 q 607 -371 575 -406 q 543 -442 499 -462 l 499 -462 l 475 -470 q 455 -476 434 -478 q 413 -481 389 -481 l 389 -481 q 313 -481 264 -455 q 214 -429 190 -383 q 165 -337 165 -278 l 165 -278 q 165 -230 178 -191 q 190 -153 215 -121 q 239 -89 274 -60 l 274 -60 l 194 11 q 150 -22 115 -62 q 80 -103 59 -156 q 38 -210 38 -279 l 38 -279 q 38 -337 57 -389 q 76 -441 117 -482 q 158 -523 222 -547 q 286 -571 375 -571 l 375 -571 q 431 -571 476 -561 q 521 -551 563 -530 l 563 -530 l 589 -515 q 670 -472 719 -397 q 768 -322 768 -225 l 768 -225 q 768 -149 742 -95 q 716 -42 666 -15 q 615 12 543 12 z"},"ഥ":{"ha":950,"x_min":66,"x_max":890,"o":"m 66 -559 l 190 -559 l 190 -92 l 411 -92 l 411 0 l 66 0 l 66 -559 z m 619 -571 l 619 -571 q 685 -571 736 -553 q 786 -536 819 -503 l 819 -503 q 856 -469 873 -419 q 890 -369 890 -288 l 890 -288 l 890 0 l 352 0 l 352 -283 q 352 -342 360 -382 q 367 -423 383 -452 q 399 -481 422 -504 l 422 -504 q 456 -535 506 -553 q 555 -571 619 -571 z m 621 -478 l 621 -478 q 586 -478 560 -468 q 534 -458 516 -440 l 516 -440 q 498 -420 487 -386 q 476 -352 476 -281 l 476 -281 l 476 -92 l 766 -92 l 766 -271 q 766 -345 755 -382 q 744 -420 725 -440 l 725 -440 q 708 -458 682 -468 q 656 -478 621 -478 z"},"ദ":{"ha":686,"x_min":48,"x_max":650,"o":"m 405 -571 l 405 -571 q 484 -571 536 -550 q 587 -529 613 -493 q 639 -458 639 -414 l 639 -414 q 639 -367 617 -334 q 595 -301 542 -276 l 542 -276 l 539 -282 q 594 -264 622 -228 q 650 -192 650 -144 l 650 -144 q 650 -71 598 -29 q 546 12 449 12 l 449 12 q 410 12 380 8 q 350 4 327 0 l 327 0 l 345 -90 q 367 -86 388 -83 q 408 -80 430 -80 l 430 -80 q 479 -80 503 -96 q 526 -113 526 -151 l 526 -151 q 526 -167 520 -181 q 513 -196 499 -207 l 499 -207 q 485 -218 463 -224 q 441 -231 397 -231 l 397 -231 l 347 -231 l 347 -322 l 394 -322 q 429 -322 454 -328 q 479 -335 494 -350 l 494 -350 q 504 -359 510 -371 q 515 -384 515 -401 l 515 -401 q 515 -439 486 -458 q 457 -478 402 -478 l 402 -478 q 324 -478 274 -444 q 223 -411 199 -352 q 174 -293 174 -215 l 174 -215 q 174 -166 180 -114 q 186 -63 199 -17 l 199 -17 l 82 4 q 66 -46 57 -107 q 48 -168 48 -221 l 48 -221 q 48 -328 88 -406 q 127 -484 207 -527 q 287 -571 405 -571 z"},"ധ":{"ha":962,"x_min":38,"x_max":924,"o":"m 657 12 l 657 12 q 611 12 579 2 q 547 -9 523 -28 q 498 -47 475 -73 l 475 -73 l 488 -73 q 452 -29 408 -8 q 363 12 297 12 l 297 12 q 215 12 157 -24 q 99 -60 69 -122 q 38 -185 38 -263 l 38 -263 q 38 -327 55 -381 q 71 -435 104 -481 q 137 -528 184 -569 l 184 -569 l 269 -499 q 234 -466 211 -430 q 187 -395 176 -355 q 164 -315 164 -269 l 164 -269 q 164 -209 183 -167 q 201 -125 234 -103 q 267 -81 308 -81 l 308 -81 q 341 -81 362 -93 q 383 -105 396 -124 l 396 -124 q 410 -143 415 -171 q 419 -200 419 -249 l 419 -249 l 419 -559 l 543 -559 l 543 -248 q 543 -199 548 -171 q 553 -143 566 -123 l 566 -123 q 579 -103 600 -92 q 621 -81 654 -81 l 654 -81 q 692 -81 725 -102 q 758 -124 778 -165 q 798 -206 798 -266 l 798 -266 q 798 -314 786 -354 q 774 -395 751 -430 q 728 -466 693 -498 l 693 -498 l 780 -569 q 825 -529 857 -484 q 889 -440 907 -386 q 924 -333 924 -265 l 924 -265 q 924 -185 893 -122 q 861 -60 802 -24 q 742 12 657 12 z"},"ന":{"ha":962,"x_min":38,"x_max":924,"o":"m 305 -571 l 305 -571 q 351 -571 384 -560 q 416 -550 441 -531 q 465 -513 488 -486 l 488 -486 l 475 -486 q 510 -530 555 -550 q 600 -571 665 -571 l 665 -571 q 747 -571 805 -535 q 863 -499 894 -437 q 924 -375 924 -296 l 924 -296 q 924 -232 908 -178 q 891 -124 859 -78 q 826 -32 778 10 l 778 10 l 693 -60 q 728 -94 752 -129 q 775 -165 787 -204 q 798 -244 798 -290 l 798 -290 q 798 -351 780 -392 q 761 -434 729 -456 q 696 -478 655 -478 l 655 -478 q 621 -478 600 -466 q 579 -455 566 -435 l 566 -435 q 553 -416 548 -387 q 543 -359 543 -310 l 543 -310 l 543 0 l 419 0 l 419 -311 q 419 -360 415 -388 q 410 -416 396 -436 l 396 -436 q 384 -456 363 -467 q 341 -478 308 -478 l 308 -478 q 270 -478 237 -456 q 204 -435 184 -394 q 164 -353 164 -293 l 164 -293 q 164 -245 176 -204 q 188 -164 212 -129 q 235 -94 269 -61 l 269 -61 l 182 10 q 138 -30 106 -74 q 73 -119 56 -173 q 38 -227 38 -294 l 38 -294 q 38 -374 70 -436 q 101 -499 161 -535 q 221 -571 305 -571 z"},"ഩ":{"ha":1086,"x_min":39,"x_max":1049,"o":"m 384 -571 l 384 -571 q 471 -571 528 -545 q 584 -519 627 -471 l 627 -471 l 600 -488 q 633 -531 679 -551 q 725 -571 789 -571 l 789 -571 q 872 -571 930 -535 q 988 -499 1019 -437 q 1049 -375 1049 -296 l 1049 -296 q 1049 -230 1032 -176 q 1015 -122 983 -76 q 950 -31 903 10 l 903 10 l 818 -60 q 853 -94 876 -129 q 899 -165 911 -204 q 923 -244 923 -290 l 923 -290 q 923 -351 904 -392 q 885 -434 853 -456 q 821 -478 779 -478 l 779 -478 q 746 -478 725 -466 q 704 -455 690 -435 l 690 -435 q 677 -416 672 -387 q 667 -359 667 -307 l 667 -307 l 667 0 l 543 0 l 543 -282 q 543 -353 532 -388 q 520 -423 499 -442 l 499 -442 q 479 -459 453 -468 q 426 -478 381 -478 l 381 -478 q 314 -478 263 -449 q 212 -421 183 -367 q 154 -314 154 -240 l 154 -240 l 154 -234 q 154 -178 167 -143 q 180 -108 203 -92 q 225 -77 254 -77 l 254 -77 q 277 -77 293 -87 q 309 -97 318 -116 q 327 -135 327 -163 l 327 -163 q 327 -206 307 -228 q 286 -251 247 -251 l 247 -251 q 209 -251 175 -231 q 140 -211 108 -175 l 108 -175 l 95 -260 q 123 -291 171 -315 q 218 -340 275 -340 l 275 -340 q 328 -340 367 -319 q 406 -299 427 -261 q 447 -223 447 -171 l 447 -171 q 447 -114 424 -73 q 401 -32 359 -10 q 316 12 257 12 l 257 12 q 200 12 150 -14 q 100 -40 70 -96 q 39 -152 39 -242 l 39 -242 q 39 -349 85 -422 q 131 -495 209 -533 q 287 -571 384 -571 z"},"പ":{"ha":945,"x_min":30,"x_max":879,"o":"m 251 -356 l 251 -356 q 328 -356 376 -328 q 424 -301 448 -259 q 471 -217 471 -172 l 471 -172 q 471 -137 461 -109 q 450 -82 437 -64 l 437 -64 l 421 -92 l 755 -92 l 755 -559 l 879 -559 l 879 0 l 356 0 l 313 -56 q 328 -74 339 -99 q 350 -124 350 -160 l 350 -160 q 350 -206 326 -235 q 301 -265 252 -265 l 252 -265 q 220 -265 198 -251 q 175 -238 164 -214 q 153 -191 153 -163 l 153 -163 q 153 -124 167 -97 q 181 -70 203 -47 l 203 -47 l 115 10 q 76 -27 53 -70 q 30 -113 30 -168 l 30 -168 q 30 -225 58 -267 q 86 -309 136 -332 q 186 -356 251 -356 z"},"ഫ":{"ha":1204,"x_min":30,"x_max":1144,"o":"m 251 -356 l 251 -356 q 328 -356 376 -328 q 424 -301 448 -259 q 471 -217 471 -172 l 471 -172 q 471 -137 461 -109 q 450 -82 437 -64 l 437 -64 l 418 -92 l 708 -92 l 708 0 l 356 0 l 313 -56 q 328 -74 339 -99 q 350 -124 350 -160 l 350 -160 q 350 -206 326 -235 q 301 -265 252 -265 l 252 -265 q 220 -265 198 -251 q 175 -238 164 -214 q 153 -191 153 -163 l 153 -163 q 153 -124 167 -96 q 181 -69 203 -47 l 203 -47 l 115 10 q 75 -27 53 -70 q 30 -113 30 -168 l 30 -168 q 30 -225 58 -267 q 86 -309 136 -332 q 186 -356 251 -356 z m 874 -571 l 874 -571 q 940 -571 990 -553 q 1040 -536 1074 -503 l 1074 -503 q 1111 -469 1128 -419 q 1144 -369 1144 -288 l 1144 -288 l 1144 0 l 607 0 l 607 -283 q 607 -342 615 -382 q 622 -423 638 -452 q 653 -481 677 -504 l 677 -504 q 711 -535 761 -553 q 810 -571 874 -571 z m 876 -478 l 876 -478 q 840 -478 815 -468 q 789 -458 771 -440 l 771 -440 q 752 -420 742 -386 q 731 -352 731 -281 l 731 -281 l 731 -92 l 1020 -92 l 1020 -271 q 1020 -345 1010 -382 q 999 -420 980 -440 l 980 -440 q 963 -458 937 -468 q 911 -478 876 -478 z"},"ബ":{"ha":1389,"x_min":39,"x_max":1323,"o":"m 384 -571 l 384 -571 q 471 -571 528 -545 q 584 -519 627 -471 l 627 -471 l 650 -411 l 667 -255 l 667 0 l 543 0 l 543 -283 q 543 -353 532 -388 q 520 -423 499 -442 l 499 -442 q 479 -459 453 -468 q 426 -478 381 -478 l 381 -478 q 314 -478 263 -449 q 212 -421 183 -367 q 154 -314 154 -240 l 154 -240 l 154 -234 q 154 -178 167 -143 q 180 -108 203 -92 q 225 -77 254 -77 l 254 -77 q 277 -77 293 -87 q 309 -97 318 -116 q 327 -135 327 -163 l 327 -163 q 327 -206 307 -228 q 286 -251 247 -251 l 247 -251 q 209 -251 175 -231 q 140 -211 108 -175 l 108 -175 l 95 -260 q 123 -291 171 -315 q 218 -340 275 -340 l 275 -340 q 328 -340 367 -319 q 406 -299 427 -261 q 447 -223 447 -171 l 447 -171 q 447 -114 424 -73 q 401 -32 359 -10 q 316 12 257 12 l 257 12 q 200 12 150 -14 q 100 -40 70 -96 q 39 -152 39 -242 l 39 -242 q 39 -349 85 -422 q 131 -495 209 -533 q 287 -571 384 -571 z m 1199 -559 l 1323 -559 l 1323 0 l 864 0 l 823 -58 q 855 -96 877 -130 q 898 -165 910 -203 q 921 -242 921 -290 l 921 -290 q 921 -351 903 -392 q 885 -434 853 -456 q 821 -478 779 -478 l 779 -478 q 746 -478 725 -466 q 704 -455 690 -435 l 690 -435 q 677 -416 672 -387 q 667 -359 667 -307 l 667 -307 l 667 0 l 543 0 l 543 -248 l 597 -423 l 600 -488 q 633 -531 679 -551 q 724 -571 789 -571 l 789 -571 q 871 -571 929 -535 q 986 -499 1017 -437 q 1047 -375 1047 -296 l 1047 -296 q 1047 -249 1038 -210 q 1029 -171 1013 -138 q 997 -106 975 -78 l 975 -78 l 945 -92 l 1199 -92 l 1199 -559 z"},"ഭ":{"ha":708,"x_min":48,"x_max":675,"o":"m 429 -571 l 429 -571 q 503 -571 559 -554 q 614 -537 645 -504 q 675 -472 675 -424 l 675 -424 q 675 -400 669 -380 q 663 -360 650 -346 l 650 -346 q 633 -326 605 -315 q 576 -305 519 -305 l 519 -305 l 487 -305 q 455 -305 440 -303 q 425 -302 416 -297 l 416 -297 q 408 -293 405 -286 q 401 -280 401 -272 l 401 -272 q 401 -250 425 -245 q 449 -240 489 -240 l 489 -240 l 504 -240 q 559 -240 591 -231 q 623 -222 642 -204 l 642 -204 q 659 -188 667 -167 q 675 -147 675 -119 l 675 -119 q 675 -82 655 -52 q 634 -22 591 -5 q 548 12 480 12 l 480 12 q 439 12 403 8 q 366 3 334 -5 q 302 -13 275 -24 l 275 -24 l 314 -109 q 352 -95 390 -87 q 428 -80 470 -80 l 470 -80 q 521 -80 540 -90 q 559 -100 559 -117 l 559 -117 q 559 -139 542 -145 q 525 -152 496 -152 l 496 -152 l 482 -152 q 407 -152 367 -164 q 327 -176 308 -200 l 308 -200 q 298 -214 292 -231 q 285 -248 285 -270 l 285 -270 q 285 -295 294 -317 q 302 -339 321 -354 l 321 -354 q 344 -373 379 -383 q 413 -393 472 -393 l 472 -393 l 508 -393 q 532 -393 545 -399 q 557 -405 557 -425 l 557 -425 q 557 -453 522 -465 q 486 -478 427 -478 l 427 -478 q 337 -478 281 -444 q 225 -411 200 -352 q 174 -293 174 -215 l 174 -215 q 174 -166 180 -114 q 186 -63 199 -17 l 199 -17 l 82 4 q 66 -46 57 -107 q 48 -168 48 -221 l 48 -221 q 48 -328 90 -406 q 132 -484 217 -527 q 301 -571 429 -571 z"},"മ":{"ha":779,"x_min":58,"x_max":722,"o":"m 380 -571 l 380 -571 q 468 -571 531 -551 q 593 -532 635 -497 l 635 -497 q 665 -471 684 -438 q 703 -406 713 -362 q 722 -318 722 -259 l 722 -259 l 722 0 l 58 0 l 58 -261 q 58 -317 67 -360 q 76 -404 95 -437 q 113 -471 142 -496 l 142 -496 q 183 -532 240 -551 q 297 -571 380 -571 z m 316 -478 l 316 -478 q 282 -478 255 -460 q 228 -442 211 -412 l 211 -412 q 197 -387 190 -351 q 182 -316 182 -264 l 182 -264 l 182 -68 l 161 -69 q 224 -120 275 -174 q 325 -228 355 -284 q 384 -340 384 -396 l 384 -396 q 384 -419 378 -437 q 371 -456 357 -467 q 342 -478 316 -478 z m 507 -379 l 507 -379 q 507 -327 485 -276 q 462 -226 422 -176 q 382 -127 327 -76 l 327 -76 l 310 -87 q 336 -89 364 -90 q 391 -92 409 -92 l 409 -92 l 598 -92 l 598 -252 q 598 -320 585 -364 q 572 -409 543 -437 q 514 -465 465 -482 l 465 -482 l 469 -487 q 483 -469 495 -443 q 507 -418 507 -379 z"},"യ":{"ha":1104,"x_min":38,"x_max":1063,"o":"m 707 12 l 707 12 q 655 12 612 3 q 569 -6 521 -29 l 521 -29 q 515 -32 505 -36 q 495 -40 489 -44 l 489 -44 q 429 -81 394 -128 q 358 -176 343 -228 q 327 -281 327 -335 l 327 -335 q 327 -373 335 -403 q 343 -434 356 -459 l 356 -459 l 365 -468 q 386 -506 418 -528 q 449 -551 486 -561 q 523 -571 561 -571 l 561 -571 q 669 -571 730 -510 q 791 -449 791 -333 l 791 -333 q 791 -241 749 -169 q 707 -98 637 -54 l 637 -54 q 628 -47 621 -43 q 613 -39 602 -34 l 602 -34 q 557 -10 507 1 q 457 12 398 12 l 398 12 q 311 12 244 -13 q 177 -38 131 -84 q 85 -130 62 -193 q 38 -257 38 -334 l 38 -334 q 38 -404 66 -457 q 93 -511 147 -541 q 200 -571 277 -571 l 277 -571 q 340 -571 389 -548 q 438 -526 469 -479 l 469 -479 l 374 -417 q 358 -446 334 -462 q 310 -479 277 -479 l 277 -479 q 241 -479 216 -461 q 191 -444 177 -411 q 163 -379 163 -332 l 163 -332 q 163 -260 192 -202 q 220 -145 275 -111 q 329 -77 407 -77 l 407 -77 q 431 -77 453 -80 q 475 -83 495 -87 l 495 -87 q 506 -91 517 -93 q 527 -95 536 -99 l 536 -99 q 570 -115 600 -147 q 629 -180 648 -227 q 666 -274 666 -333 l 666 -333 q 666 -387 651 -419 q 635 -451 612 -465 q 588 -479 561 -479 l 561 -479 q 528 -479 504 -463 q 479 -447 466 -414 q 452 -381 452 -332 l 452 -332 q 452 -279 468 -232 q 484 -185 513 -150 q 542 -116 581 -95 l 581 -95 q 591 -91 598 -92 q 604 -93 614 -90 l 614 -90 q 631 -85 655 -81 q 679 -77 706 -77 l 706 -77 q 780 -77 832 -106 q 883 -135 910 -188 q 937 -242 937 -314 l 937 -314 q 937 -366 921 -416 q 905 -466 870 -512 l 870 -512 l 966 -571 q 1016 -513 1040 -448 q 1063 -384 1063 -315 l 1063 -315 q 1063 -249 1044 -189 q 1024 -130 981 -85 q 938 -40 870 -14 q 802 12 707 12 z"},"ര":{"ha":788,"x_min":38,"x_max":750,"o":"m 383 -571 l 383 -571 q 476 -571 545 -545 q 613 -520 659 -474 q 704 -429 727 -368 q 750 -308 750 -238 l 750 -238 q 750 -152 722 -96 q 693 -41 641 -14 q 589 12 519 12 l 519 12 q 446 12 400 -17 q 353 -47 331 -96 q 309 -145 309 -202 l 309 -202 q 309 -295 361 -351 q 412 -408 505 -408 l 505 -408 q 563 -408 607 -378 q 651 -348 677 -302 q 703 -256 705 -205 l 705 -205 l 662 -208 q 655 -235 638 -260 q 621 -286 595 -302 q 568 -319 533 -319 l 533 -319 q 479 -319 455 -287 q 430 -255 430 -200 l 430 -200 q 430 -165 440 -137 q 449 -110 470 -95 q 491 -80 524 -80 l 524 -80 q 557 -80 581 -96 q 604 -113 617 -149 q 629 -185 629 -242 l 629 -242 q 629 -252 628 -271 q 626 -290 623 -308 l 623 -308 q 622 -313 622 -320 q 622 -327 620 -331 l 620 -331 q 612 -371 584 -404 q 555 -437 508 -457 q 460 -477 393 -477 l 393 -477 q 318 -477 268 -453 q 217 -429 191 -384 q 165 -340 165 -278 l 165 -278 q 165 -230 178 -191 q 190 -153 215 -121 q 240 -89 274 -60 l 274 -60 l 194 11 q 151 -22 116 -63 q 80 -104 59 -158 q 38 -212 38 -279 l 38 -279 q 38 -336 58 -388 q 77 -441 119 -482 q 160 -523 226 -547 q 291 -571 383 -571 z"},"റ":{"ha":717,"x_min":38,"x_max":679,"o":"m 361 -571 l 361 -571 q 445 -571 506 -547 q 566 -524 605 -483 q 643 -442 661 -390 q 679 -338 679 -280 l 679 -280 q 679 -213 659 -160 q 639 -107 604 -65 q 568 -23 521 11 l 521 11 l 442 -60 q 473 -86 498 -116 q 522 -147 537 -186 q 551 -225 551 -276 l 551 -276 q 551 -336 528 -381 q 504 -426 462 -451 q 419 -477 360 -477 l 360 -477 q 301 -477 258 -451 q 214 -426 190 -381 q 166 -336 166 -278 l 166 -278 q 166 -230 179 -191 q 192 -153 216 -121 q 240 -89 276 -60 l 276 -60 l 194 10 q 151 -22 116 -63 q 80 -104 59 -158 q 38 -212 38 -279 l 38 -279 q 38 -337 57 -389 q 76 -441 116 -482 q 156 -523 217 -547 q 278 -571 361 -571 z"},"ല":{"ha":908,"x_min":60,"x_max":842,"o":"m 718 -559 l 842 -559 l 842 0 l 60 0 l 60 -307 q 60 -385 78 -429 q 96 -474 127 -505 l 127 -505 q 159 -537 208 -554 q 257 -571 321 -571 l 321 -571 q 385 -571 433 -554 q 481 -537 512 -506 l 512 -506 q 548 -470 564 -423 q 579 -376 579 -309 l 579 -309 l 579 -216 l 184 -216 l 184 -92 l 718 -92 l 718 -559 z m 320 -479 l 320 -479 q 247 -479 216 -438 q 184 -397 184 -322 l 184 -322 l 184 -308 l 455 -308 l 455 -321 q 455 -399 423 -439 q 390 -479 320 -479 z"},"ള":{"ha":761,"x_min":38,"x_max":725,"o":"m 405 -479 l 405 -479 q 353 -479 310 -472 q 267 -465 234 -450 q 200 -436 179 -415 q 157 -394 148 -368 l 148 -368 q 147 -364 148 -360 q 149 -357 148 -354 l 148 -354 q 145 -345 144 -334 q 142 -324 142 -310 l 142 -310 q 142 -261 163 -233 q 183 -205 221 -205 l 221 -205 q 258 -205 275 -226 q 292 -248 292 -278 l 292 -278 q 292 -298 285 -313 q 278 -328 263 -337 q 247 -346 223 -346 l 223 -346 q 187 -346 161 -331 q 135 -316 112 -298 l 112 -298 l 55 -327 q 73 -348 103 -370 q 133 -393 171 -408 q 208 -424 247 -424 l 247 -424 q 304 -424 339 -404 q 374 -384 391 -351 q 407 -318 407 -279 l 407 -279 q 407 -237 388 -201 q 369 -166 329 -144 q 288 -122 224 -122 l 224 -122 q 169 -122 127 -145 q 85 -169 62 -213 q 38 -257 38 -319 l 38 -319 q 38 -369 61 -415 q 83 -461 130 -496 q 177 -531 248 -551 q 319 -571 415 -571 l 415 -571 q 518 -571 585 -552 q 651 -533 683 -496 q 715 -460 715 -405 l 715 -405 q 715 -367 696 -338 q 676 -309 638 -289 q 599 -270 542 -260 l 542 -260 l 473 -298 l 473 -326 l 481 -326 q 511 -326 531 -329 q 550 -332 565 -342 l 565 -342 q 578 -352 584 -364 q 590 -377 590 -394 l 590 -394 q 590 -421 573 -440 q 556 -459 516 -469 q 476 -479 405 -479 z m 725 -151 l 725 -151 q 725 -117 713 -89 q 701 -62 678 -43 l 678 -43 q 661 -27 638 -18 q 614 -9 579 -4 q 543 0 487 0 l 487 0 l 288 0 q 246 0 227 3 q 207 5 197 11 l 197 11 q 182 18 177 29 q 171 39 171 51 l 171 51 q 171 64 176 75 q 180 85 191 92 l 191 92 q 203 99 223 103 q 243 107 286 107 l 286 107 l 706 107 l 706 201 l 272 201 q 217 201 175 193 q 133 184 107 168 l 107 168 q 77 149 62 121 q 46 93 46 57 l 46 57 q 46 21 61 -9 q 76 -39 107 -59 l 107 -59 q 124 -70 145 -77 q 165 -84 195 -88 q 224 -92 266 -92 l 266 -92 l 474 -92 q 515 -92 540 -96 q 565 -100 578 -111 l 578 -111 q 590 -119 596 -131 q 601 -144 601 -162 l 601 -162 q 601 -180 595 -194 q 588 -208 572 -217 l 572 -217 q 561 -226 542 -230 q 522 -234 487 -234 l 487 -234 l 473 -234 l 473 -312 l 583 -299 q 658 -279 692 -241 q 725 -204 725 -151 z"},"ഴ":{"ha":703,"x_min":35,"x_max":669,"o":"m 272 -408 l 272 -408 q 272 -479 322 -525 q 372 -571 468 -571 l 468 -571 q 542 -571 586 -544 q 629 -518 649 -476 q 669 -435 669 -390 l 669 -390 q 669 -324 635 -270 q 601 -216 537 -184 q 472 -152 380 -152 l 380 -152 l 346 -152 q 242 -152 173 -184 q 104 -216 70 -272 q 35 -329 35 -402 l 35 -402 q 35 -442 49 -485 q 62 -528 93 -572 l 93 -572 l 190 -522 q 173 -490 166 -463 q 159 -436 159 -405 l 159 -405 q 159 -348 184 -311 q 208 -274 251 -256 q 294 -238 347 -238 l 347 -238 l 378 -238 q 431 -238 469 -258 q 506 -279 526 -314 q 545 -350 545 -396 l 545 -396 q 545 -430 529 -456 q 512 -483 468 -483 l 468 -483 q 443 -483 426 -472 q 408 -462 400 -444 q 392 -426 392 -402 l 392 -402 q 392 -365 406 -332 q 419 -300 436 -269 q 453 -238 467 -204 q 480 -170 480 -131 l 480 -131 q 480 -97 465 -64 q 450 -31 412 -9 q 373 12 301 12 l 301 12 q 258 12 214 4 q 169 -4 124 -25 l 124 -25 l 162 -111 q 194 -96 223 -88 q 252 -81 285 -81 l 285 -81 q 331 -81 346 -100 q 361 -119 361 -139 l 361 -139 q 361 -171 348 -201 q 334 -231 317 -262 q 299 -293 286 -328 q 272 -364 272 -408 z"},"വ":{"ha":1021,"x_min":38,"x_max":955,"o":"m 361 -571 l 361 -571 q 444 -571 504 -547 q 564 -524 603 -484 q 641 -444 659 -393 q 677 -342 677 -287 l 677 -287 q 677 -227 663 -183 q 648 -140 623 -104 q 597 -69 565 -34 l 565 -34 l 573 -92 l 831 -92 l 831 -559 l 955 -559 l 955 0 l 492 0 l 449 -66 q 476 -90 500 -119 q 523 -149 537 -187 q 551 -225 551 -276 l 551 -276 q 551 -336 528 -381 q 504 -426 462 -451 q 419 -477 360 -477 l 360 -477 q 300 -477 257 -451 q 214 -426 190 -381 q 166 -336 166 -278 l 166 -278 q 166 -230 179 -191 q 192 -153 216 -121 q 240 -89 276 -60 l 276 -60 l 194 11 q 151 -22 116 -63 q 80 -104 59 -158 q 38 -212 38 -279 l 38 -279 q 38 -337 57 -389 q 76 -441 116 -482 q 156 -523 217 -547 q 278 -571 361 -571 z"},"ശ":{"ha":1107,"x_min":38,"x_max":1069,"o":"m 718 -571 l 718 -571 q 800 -571 865 -547 q 930 -524 976 -480 q 1021 -437 1045 -376 q 1069 -315 1069 -238 l 1069 -238 q 1069 -152 1041 -96 q 1012 -41 960 -14 q 908 12 838 12 l 838 12 q 765 12 719 -17 q 672 -47 650 -96 q 628 -145 628 -202 l 628 -202 q 628 -295 680 -351 q 731 -408 823 -408 l 823 -408 q 882 -408 926 -378 q 970 -348 996 -302 q 1022 -256 1025 -205 l 1025 -205 l 980 -208 q 974 -235 957 -260 q 940 -286 914 -302 q 887 -319 852 -319 l 852 -319 q 798 -319 774 -287 q 749 -255 749 -200 l 749 -200 q 749 -165 759 -137 q 768 -110 789 -95 q 810 -80 843 -80 l 843 -80 q 875 -80 899 -96 q 923 -113 936 -149 q 948 -185 948 -242 l 948 -242 q 948 -252 947 -271 q 946 -290 942 -308 l 942 -308 q 941 -313 943 -320 q 945 -327 942 -330 l 942 -330 q 934 -371 906 -404 q 877 -437 831 -457 q 785 -477 723 -477 l 723 -477 q 677 -477 646 -468 q 615 -460 592 -442 l 592 -442 q 558 -414 545 -367 q 532 -320 532 -257 l 532 -257 l 532 -248 q 532 -184 519 -135 q 506 -87 475 -53 l 475 -53 q 447 -22 403 -5 q 359 12 297 12 l 297 12 q 217 12 159 -21 q 101 -55 70 -117 q 38 -179 38 -264 l 38 -264 q 38 -330 55 -384 q 72 -439 105 -484 q 138 -530 185 -572 l 185 -572 l 269 -501 q 234 -468 211 -432 q 187 -396 176 -356 q 164 -316 164 -269 l 164 -269 q 164 -206 181 -164 q 197 -123 227 -102 q 256 -82 292 -82 l 292 -82 q 326 -82 348 -93 q 369 -104 381 -123 l 381 -123 q 395 -146 400 -180 q 405 -215 405 -255 l 405 -255 l 405 -269 q 405 -361 428 -415 q 451 -470 491 -504 l 491 -504 q 535 -540 588 -555 q 641 -571 718 -571 z"},"ഷ":{"ha":1231,"x_min":30,"x_max":1165,"o":"m 251 -356 l 251 -356 q 328 -356 376 -328 q 424 -301 448 -259 q 471 -217 471 -172 l 471 -172 q 471 -137 461 -109 q 450 -82 437 -64 l 437 -64 l 421 -92 l 713 -92 l 754 0 l 356 0 l 313 -56 q 328 -74 339 -99 q 350 -124 350 -160 l 350 -160 q 350 -206 326 -235 q 301 -265 252 -265 l 252 -265 q 220 -265 198 -251 q 175 -238 164 -214 q 153 -191 153 -163 l 153 -163 q 153 -124 167 -97 q 181 -70 203 -47 l 203 -47 l 115 10 q 76 -27 53 -70 q 30 -113 30 -168 l 30 -168 q 30 -225 58 -267 q 86 -309 136 -332 q 186 -356 251 -356 z m 1165 0 l 695 0 l 695 -384 q 695 -412 692 -430 q 688 -448 680 -460 l 680 -460 q 674 -469 664 -474 q 653 -480 637 -480 l 637 -480 q 610 -480 594 -463 q 578 -446 578 -412 l 578 -412 q 578 -389 588 -368 q 597 -347 624 -333 q 650 -320 700 -320 l 700 -320 l 738 -320 q 799 -320 846 -341 q 893 -363 929 -398 q 964 -433 992 -475 q 1019 -518 1042 -559 l 1042 -559 l 1165 -559 l 1165 0 z m 638 -571 l 638 -571 q 677 -571 708 -562 q 738 -553 760 -535 l 760 -535 q 788 -514 803 -477 q 817 -441 817 -377 l 817 -377 l 817 -92 l 1041 -92 l 1041 -314 q 1041 -332 1042 -351 q 1043 -371 1044 -389 q 1045 -407 1047 -419 l 1047 -419 l 1049 -410 q 1017 -351 971 -311 q 924 -271 869 -251 q 814 -231 757 -231 l 757 -231 l 704 -231 q 615 -231 561 -256 q 507 -281 483 -322 q 458 -364 458 -414 l 458 -414 q 458 -455 479 -490 q 500 -526 540 -548 q 579 -571 638 -571 z"},"സ":{"ha":1292,"x_min":38,"x_max":1254,"o":"m 661 -571 l 661 -571 q 715 -571 755 -555 q 795 -539 825 -508 l 825 -508 q 844 -488 857 -462 q 869 -436 876 -398 q 883 -361 883 -305 l 883 -305 l 883 -270 q 883 -216 888 -181 q 893 -146 907 -123 l 907 -123 q 920 -104 942 -93 q 963 -82 998 -82 l 998 -82 q 1036 -82 1066 -102 q 1095 -123 1112 -164 q 1128 -206 1128 -269 l 1128 -269 q 1128 -316 1117 -356 q 1105 -396 1082 -432 q 1059 -468 1024 -501 l 1024 -501 l 1107 -572 q 1155 -530 1188 -484 q 1221 -439 1238 -384 q 1254 -330 1254 -264 l 1254 -264 q 1254 -179 1222 -117 q 1190 -55 1132 -21 q 1073 12 993 12 l 993 12 q 930 12 886 -5 q 842 -22 813 -53 l 813 -53 q 793 -77 781 -106 q 768 -135 763 -172 q 757 -209 757 -255 l 757 -255 l 757 -290 q 757 -355 752 -387 q 746 -420 731 -441 l 731 -441 q 718 -460 698 -468 q 678 -477 649 -477 l 649 -477 q 624 -477 604 -468 q 583 -460 571 -445 l 571 -445 q 554 -425 547 -395 q 540 -365 540 -311 l 540 -311 l 540 0 l 416 0 l 416 -299 q 416 -355 412 -385 q 408 -415 393 -435 l 393 -435 q 379 -456 356 -467 q 332 -478 306 -478 l 306 -478 q 265 -478 233 -455 q 201 -433 183 -391 q 164 -349 164 -290 l 164 -290 q 164 -243 176 -203 q 188 -164 212 -129 q 235 -94 269 -61 l 269 -61 l 182 10 q 137 -30 105 -75 q 72 -120 55 -174 q 38 -229 38 -296 l 38 -296 q 38 -374 69 -436 q 99 -498 157 -534 q 215 -571 299 -571 l 299 -571 q 364 -571 407 -550 q 450 -529 485 -487 l 485 -487 l 476 -487 q 509 -527 552 -549 q 594 -571 661 -571 z"},"ഹ":{"ha":1267,"x_min":30,"x_max":1229,"o":"m 251 -356 l 251 -356 q 328 -356 376 -328 q 424 -301 448 -259 q 471 -217 471 -172 l 471 -172 q 471 -137 461 -109 q 450 -82 437 -64 l 437 -64 l 421 -92 l 712 -92 l 755 0 l 356 0 l 313 -56 q 328 -74 339 -99 q 350 -124 350 -160 l 350 -160 q 350 -206 326 -235 q 301 -265 252 -265 l 252 -265 q 220 -265 198 -251 q 175 -238 164 -214 q 153 -191 153 -163 l 153 -163 q 153 -124 167 -97 q 181 -70 203 -47 l 203 -47 l 115 10 q 76 -27 53 -70 q 30 -113 30 -168 l 30 -168 q 30 -225 58 -267 q 86 -309 136 -332 q 186 -356 251 -356 z m 911 -571 l 911 -571 q 995 -571 1056 -547 q 1116 -524 1155 -483 q 1193 -442 1211 -390 q 1229 -338 1229 -280 l 1229 -280 q 1229 -213 1209 -160 q 1189 -107 1154 -65 q 1119 -23 1072 11 l 1072 11 l 992 -60 q 1023 -86 1048 -116 q 1073 -147 1087 -186 q 1101 -225 1101 -276 l 1101 -276 q 1101 -336 1078 -381 q 1055 -426 1013 -451 q 970 -477 911 -477 l 911 -477 q 851 -477 808 -451 q 764 -426 740 -381 q 716 -336 716 -278 l 716 -278 q 716 -230 728 -193 q 740 -156 763 -125 q 786 -94 819 -66 l 819 -66 l 774 0 l 740 0 l 696 -38 q 667 -72 643 -107 q 619 -142 605 -185 q 590 -228 590 -282 l 590 -282 q 590 -338 609 -390 q 628 -442 668 -482 q 707 -523 768 -547 q 828 -571 911 -571 z"},"ഺ":{"ha":780,"x_min":20,"x_max":762,"o":"m 155 -92 l 762 -92 l 762 0 l 493 0 l 493 202 l 369 202 l 369 0 l 77 0 l 20 -70 l 207 -562 l 321 -525 l 155 -92 z"},"഻":{"ha":0,"x_min":-323,"x_max":-233,"o":"m -323 -592 l -323 -864 l -233 -864 l -233 -592 l -323 -592 z"},"഼":{"ha":0,"x_min":-272,"x_max":22,"o":"m -272 -725 l -272 -725 q -272 -782 -231 -820 q -191 -859 -125 -859 l -125 -859 q -58 -859 -18 -821 q 22 -783 22 -725 l 22 -725 q 22 -669 -18 -630 q -58 -592 -125 -592 l -125 -592 q -192 -592 -232 -630 q -272 -669 -272 -725 z m -182 -727 l -182 -727 q -182 -702 -167 -685 q -153 -669 -125 -669 l -125 -669 q -96 -669 -81 -685 q -67 -702 -67 -726 l -67 -726 q -67 -750 -82 -766 q -97 -782 -125 -782 l -125 -782 q -153 -782 -167 -766 q -182 -750 -182 -727 z"},"ഽ":{"ha":503,"x_min":-90,"x_max":593,"o":"m 398 -797 l 398 -797 q 455 -797 494 -776 q 533 -756 558 -721 q 582 -687 593 -645 l 593 -645 l 472 -620 q 465 -646 456 -665 q 446 -684 432 -694 q 418 -705 396 -705 l 396 -705 q 376 -705 361 -697 q 345 -689 335 -673 l 335 -673 q 324 -655 320 -625 q 315 -596 315 -539 l 315 -539 l 315 -40 q 315 42 304 95 q 293 147 261 184 l 261 184 q 237 211 199 228 q 160 244 105 244 l 105 244 q 49 244 10 224 q -30 203 -54 168 q -78 132 -90 91 l -90 91 l 31 67 q 39 93 49 113 q 58 132 72 142 q 86 152 108 152 l 108 152 q 130 152 145 143 q 160 134 169 119 l 169 119 q 181 99 185 70 q 188 41 188 -9 l 188 -9 l 188 -506 q 188 -595 199 -647 q 210 -699 242 -735 l 242 -735 q 266 -763 305 -780 q 344 -797 398 -797 z"},"ാ":{"ha":549,"x_min":19,"x_max":509,"o":"m 509 -281 l 509 -281 q 509 -223 497 -170 q 485 -118 456 -76 q 427 -35 379 -11 q 330 12 257 12 l 257 12 q 196 12 154 -5 q 112 -23 85 -51 q 57 -79 42 -112 q 26 -146 19 -178 l 19 -178 l 145 -200 q 152 -174 164 -146 q 175 -118 198 -98 q 220 -79 257 -79 l 257 -79 q 302 -79 330 -104 q 357 -130 369 -175 q 381 -220 381 -280 l 381 -280 q 381 -339 369 -384 q 357 -429 330 -454 q 303 -480 261 -480 l 261 -480 q 227 -480 204 -461 q 181 -443 168 -415 q 154 -388 148 -361 l 148 -361 l 22 -383 q 32 -417 50 -450 q 67 -483 96 -510 q 124 -538 166 -554 q 208 -571 267 -571 l 267 -571 q 336 -571 383 -547 q 429 -524 457 -483 q 485 -443 497 -391 q 509 -339 509 -281 z"},"ി":{"ha":257,"x_min":-228,"x_max":191,"o":"m -26 -848 l -26 -848 q 16 -848 49 -839 q 81 -831 106 -814 l 106 -814 q 138 -792 156 -762 q 174 -733 183 -685 q 191 -638 191 -561 l 191 -561 l 191 0 l 66 0 l 66 -537 q 66 -588 64 -624 q 62 -661 56 -685 q 50 -710 39 -725 l 39 -725 q 28 -739 13 -747 q -2 -756 -26 -756 l -26 -756 q -45 -756 -63 -748 q -81 -740 -92 -722 q -104 -705 -104 -677 l -104 -677 q -104 -668 -102 -658 q -101 -649 -99 -640 l -99 -640 l -221 -624 q -224 -636 -226 -649 q -228 -662 -228 -676 l -228 -676 q -228 -733 -201 -771 q -174 -810 -128 -829 q -82 -848 -26 -848 z"},"ീ":{"ha":257,"x_min":-286,"x_max":191,"o":"m -98 -848 l -98 -848 q -46 -848 -1 -838 q 44 -829 86 -804 l 86 -804 q 147 -766 169 -700 q 191 -635 191 -526 l 191 -526 l 191 0 l 66 0 l 66 -515 q 66 -573 62 -614 q 58 -655 48 -683 q 37 -711 16 -728 l 16 -728 q -3 -754 -33 -762 q -64 -771 -108 -771 l -108 -771 q -129 -771 -147 -764 q -166 -758 -178 -744 q -190 -731 -190 -709 l -190 -709 q -190 -689 -177 -674 q -165 -659 -138 -659 l -138 -659 q -104 -659 -92 -677 q -80 -695 -80 -718 l -80 -718 q -80 -741 -92 -761 q -104 -781 -123 -794 l -123 -794 l -7 -774 q 1 -764 6 -747 q 10 -731 10 -711 l 10 -711 q 10 -675 -4 -645 q -19 -615 -52 -596 q -85 -578 -140 -578 l -140 -578 q -183 -578 -216 -593 q -249 -609 -267 -638 q -286 -667 -286 -709 l -286 -709 q -286 -749 -266 -780 q -246 -812 -204 -830 q -162 -848 -98 -848 z"},"ു":{"ha":361,"x_min":-30,"x_max":367,"o":"m 169 232 l 169 232 q 77 232 24 182 q -30 132 -30 53 l -30 53 q -30 0 -4 -40 q 21 -80 66 -102 q 110 -125 168 -125 l 168 -125 q 227 -125 272 -103 q 316 -82 342 -42 q 367 -2 367 53 l 367 53 q 367 107 342 148 q 316 188 272 210 q 227 232 169 232 z m 169 147 l 169 147 q 206 147 232 124 q 257 100 257 53 l 257 53 q 257 7 232 -16 q 207 -40 168 -40 l 168 -40 q 131 -40 106 -16 q 80 7 80 54 l 80 54 q 80 99 106 123 q 131 147 169 147 z m 127 -571 l 127 -571 q 191 -571 228 -548 q 265 -525 281 -486 q 296 -448 296 -403 l 296 -403 q 296 -332 278 -256 q 259 -180 232 -93 l 232 -93 l 117 -108 q 142 -188 156 -256 q 170 -325 170 -383 l 170 -383 q 170 -423 155 -450 q 140 -477 98 -477 l 98 -477 q 82 -477 68 -475 q 53 -473 41 -470 l 41 -470 l 21 -559 q 41 -564 68 -567 q 94 -571 127 -571 z"},"ൂ":{"ha":361,"x_min":-30,"x_max":367,"o":"m 169 232 l 169 232 q 76 232 23 182 q -30 132 -30 53 l -30 53 q -30 0 -4 -40 q 21 -80 66 -102 q 110 -125 168 -125 l 168 -125 q 226 -125 272 -103 q 317 -82 342 -42 q 367 -3 367 53 l 367 53 q 367 108 342 148 q 316 188 272 210 q 227 232 169 232 z m 168 -45 l 168 -45 q 123 -45 93 -20 q 62 4 62 54 l 62 54 q 62 103 93 128 q 123 152 168 152 l 168 152 q 212 152 243 127 q 274 102 274 53 l 274 53 q 274 4 244 -20 q 213 -45 168 -45 z m 169 99 l 169 99 q 112 99 84 67 q 55 34 55 -18 l 55 -18 q 55 -35 66 -55 q 77 -76 96 -99 l 96 -99 l 142 -73 q 124 -66 117 -52 q 109 -39 109 -27 l 109 -27 q 109 -12 116 0 q 123 11 137 17 q 150 23 170 23 l 170 23 q 188 23 202 17 q 215 11 222 0 q 229 -12 229 -27 l 229 -27 q 229 -37 222 -48 q 214 -60 197 -67 l 197 -67 l 243 -99 q 265 -75 275 -57 q 284 -39 284 -17 l 284 -17 q 284 12 273 39 q 262 65 237 82 q 212 99 169 99 z m 127 -571 l 127 -571 q 191 -571 228 -548 q 265 -525 281 -486 q 296 -448 296 -403 l 296 -403 q 296 -332 278 -256 q 259 -180 232 -93 l 232 -93 l 117 -107 q 142 -188 156 -256 q 170 -325 170 -383 l 170 -383 q 170 -423 155 -450 q 140 -477 98 -477 l 98 -477 q 82 -477 68 -475 q 53 -473 41 -470 l 41 -470 l 21 -559 q 41 -564 68 -567 q 94 -571 127 -571 z"},"ൃ":{"ha":273,"x_min":-148,"x_max":270,"o":"m 43 327 l 43 327 q -15 327 -58 309 q -101 291 -124 257 q -148 222 -148 173 l -148 173 q -148 105 -101 65 q -54 25 30 25 l 30 25 q 72 25 112 38 q 151 51 199 88 l 199 88 l 171 166 q 140 139 109 127 q 78 115 41 115 l 41 115 q 7 115 -12 130 q -31 144 -31 175 l -31 175 q -31 205 -10 220 q 10 235 44 235 l 44 235 q 77 235 101 225 q 124 214 137 189 q 150 164 150 123 l 150 123 q 150 94 142 61 q 134 28 122 -6 q 109 -41 95 -74 l 95 -74 q 73 -128 57 -185 q 41 -242 41 -303 l 41 -303 q 41 -372 63 -438 q 84 -504 115 -559 l 115 -559 l 243 -559 q 216 -511 199 -470 q 181 -429 173 -390 q 165 -352 165 -311 l 165 -311 q 165 -257 179 -209 q 193 -161 213 -107 l 213 -107 q 230 -64 243 -26 q 256 12 263 48 q 270 84 270 122 l 270 122 q 270 194 238 240 q 206 285 155 306 q 103 327 43 327 z"},"ൄ":{"ha":273,"x_min":-289,"x_max":269,"o":"m -28 327 l -28 327 q -111 327 -169 308 q -228 289 -258 251 q -289 212 -289 155 l -289 155 q -289 100 -254 65 q -219 30 -163 30 l -163 30 q -128 30 -105 44 q -83 58 -69 80 l -69 80 l -78 79 q -62 56 -41 43 q -20 30 12 30 l 12 30 q 47 30 69 43 q 90 55 102 74 q 113 93 117 114 q 120 135 120 151 l 120 151 l 120 177 l 37 177 l 37 164 q 37 139 31 125 q 25 111 3 111 l 3 111 q -20 111 -26 126 q -33 141 -33 163 l -33 163 l -33 177 l -115 177 l -115 164 q -115 139 -122 125 q -129 111 -150 111 l -150 111 q -168 111 -178 124 q -188 136 -188 157 l -188 157 q -188 198 -148 217 q -108 235 -27 235 l -27 235 q 50 235 98 208 q 145 181 145 119 l 145 119 q 145 88 138 57 q 130 25 119 -8 q 107 -41 94 -73 l 94 -73 q 74 -126 58 -182 q 41 -239 41 -303 l 41 -303 q 41 -372 63 -438 q 84 -504 115 -559 l 115 -559 l 243 -559 q 216 -511 199 -470 q 181 -429 173 -390 q 165 -352 165 -311 l 165 -311 q 165 -257 179 -209 q 192 -161 213 -107 l 213 -107 q 230 -64 243 -27 q 255 10 262 46 q 269 81 269 119 l 269 119 q 269 186 235 232 q 200 278 134 303 q 67 327 -28 327 z"},"െ":{"ha":761,"x_min":38,"x_max":723,"o":"m 256 12 l 256 12 q 199 12 149 -14 q 99 -41 69 -96 q 38 -151 38 -239 l 38 -239 q 38 -314 64 -375 q 90 -436 139 -480 q 187 -524 254 -547 q 320 -571 402 -571 l 402 -571 q 484 -571 545 -548 q 605 -526 645 -486 q 684 -447 704 -394 q 723 -341 723 -280 l 723 -280 q 723 -212 703 -159 q 683 -106 648 -64 q 612 -23 565 11 l 565 11 l 487 -60 q 518 -86 543 -116 q 568 -147 582 -186 q 596 -225 596 -276 l 596 -276 q 596 -337 573 -382 q 550 -427 505 -452 q 459 -477 391 -477 l 391 -477 q 320 -477 266 -445 q 212 -413 182 -358 q 152 -304 152 -235 l 152 -235 q 152 -178 166 -143 q 179 -108 202 -92 q 225 -77 254 -77 l 254 -77 q 276 -77 293 -87 q 309 -97 318 -116 q 326 -135 326 -163 l 326 -163 q 326 -205 305 -228 q 284 -251 246 -251 l 246 -251 q 208 -251 174 -231 q 139 -211 107 -175 l 107 -175 l 94 -260 q 123 -291 169 -315 q 215 -340 272 -340 l 272 -340 q 327 -340 366 -319 q 404 -299 425 -261 q 446 -223 446 -171 l 446 -171 q 446 -114 423 -73 q 400 -32 358 -10 q 316 12 256 12 z"},"േ":{"ha":632,"x_min":36,"x_max":595,"o":"m 384 12 l 384 12 q 313 12 250 -5 q 187 -22 139 -58 q 91 -94 64 -150 q 36 -206 36 -283 l 36 -283 q 36 -358 64 -412 q 92 -467 141 -502 q 190 -537 253 -554 q 316 -571 386 -571 l 386 -571 q 461 -571 507 -552 q 553 -533 574 -500 q 595 -468 595 -428 l 595 -428 q 595 -384 575 -354 q 554 -324 519 -308 q 483 -293 438 -293 l 438 -293 q 379 -293 345 -311 q 310 -330 295 -361 q 280 -392 280 -426 l 280 -426 q 280 -447 286 -464 q 291 -482 297 -494 l 297 -494 l 416 -513 q 397 -500 387 -478 q 377 -457 377 -433 l 377 -433 q 377 -410 390 -391 q 402 -372 433 -372 l 433 -372 q 462 -372 475 -387 q 487 -403 487 -425 l 487 -425 q 487 -456 464 -471 q 441 -486 408 -486 l 408 -486 q 392 -486 378 -486 q 363 -486 351 -484 l 351 -484 q 291 -482 248 -456 q 205 -431 183 -386 q 160 -342 160 -282 l 160 -282 q 160 -224 182 -177 q 204 -131 247 -104 q 289 -78 348 -76 l 348 -76 q 359 -75 373 -74 q 386 -73 399 -73 l 399 -73 q 424 -73 443 -80 q 461 -87 472 -100 q 482 -114 482 -136 l 482 -136 q 482 -158 470 -173 q 457 -188 430 -188 l 430 -188 q 399 -188 385 -169 q 371 -150 371 -127 l 371 -127 q 371 -103 381 -82 q 391 -61 410 -48 l 410 -48 l 291 -67 q 285 -78 280 -96 q 274 -114 274 -137 l 274 -137 q 274 -171 289 -200 q 304 -230 339 -249 q 373 -268 433 -268 l 433 -268 q 478 -268 513 -252 q 548 -237 569 -207 q 589 -177 589 -131 l 589 -131 q 589 -92 567 -59 q 545 -26 500 -7 q 454 12 384 12 z"},"ൈ":{"ha":1522,"x_min":38,"x_max":1484,"o":"m 256 12 l 256 12 q 199 12 149 -14 q 99 -41 69 -96 q 38 -151 38 -239 l 38 -239 q 38 -314 64 -375 q 90 -436 139 -480 q 187 -524 254 -547 q 320 -571 402 -571 l 402 -571 q 484 -571 545 -548 q 605 -526 645 -486 q 684 -447 704 -394 q 723 -341 723 -280 l 723 -280 q 723 -212 703 -159 q 683 -106 648 -64 q 612 -23 565 11 l 565 11 l 487 -60 q 518 -86 543 -116 q 568 -147 582 -186 q 596 -225 596 -276 l 596 -276 q 596 -337 573 -382 q 550 -427 505 -452 q 459 -477 391 -477 l 391 -477 q 320 -477 266 -445 q 212 -413 182 -358 q 152 -304 152 -235 l 152 -235 q 152 -178 166 -143 q 179 -108 202 -92 q 225 -77 254 -77 l 254 -77 q 276 -77 293 -87 q 309 -97 318 -116 q 326 -135 326 -163 l 326 -163 q 326 -205 305 -228 q 284 -251 246 -251 l 246 -251 q 208 -251 174 -231 q 139 -211 107 -175 l 107 -175 l 94 -260 q 123 -291 169 -315 q 215 -340 272 -340 l 272 -340 q 327 -340 366 -319 q 404 -299 425 -261 q 446 -223 446 -171 l 446 -171 q 446 -114 423 -73 q 400 -32 358 -10 q 316 12 256 12 z m 1017 12 l 1017 12 q 960 12 910 -14 q 860 -41 830 -96 q 799 -151 799 -239 l 799 -239 q 799 -314 825 -375 q 851 -436 900 -480 q 948 -524 1015 -547 q 1081 -571 1163 -571 l 1163 -571 q 1245 -571 1306 -548 q 1366 -526 1406 -486 q 1445 -447 1465 -394 q 1484 -341 1484 -280 l 1484 -280 q 1484 -212 1464 -159 q 1444 -106 1409 -64 q 1373 -23 1326 11 l 1326 11 l 1248 -60 q 1279 -86 1304 -116 q 1329 -147 1343 -186 q 1357 -225 1357 -276 l 1357 -276 q 1357 -337 1334 -382 q 1311 -427 1266 -452 q 1220 -477 1152 -477 l 1152 -477 q 1081 -477 1027 -445 q 973 -413 943 -358 q 913 -304 913 -235 l 913 -235 q 913 -178 927 -143 q 940 -108 963 -92 q 986 -77 1015 -77 l 1015 -77 q 1037 -77 1054 -87 q 1070 -97 1079 -116 q 1087 -135 1087 -163 l 1087 -163 q 1087 -205 1066 -228 q 1045 -251 1007 -251 l 1007 -251 q 969 -251 935 -231 q 900 -211 868 -175 l 868 -175 l 855 -260 q 884 -291 930 -315 q 976 -340 1033 -340 l 1033 -340 q 1088 -340 1127 -319 q 1165 -299 1186 -261 q 1207 -223 1207 -171 l 1207 -171 q 1207 -114 1184 -73 q 1161 -32 1119 -10 q 1077 12 1017 12 z"},"ൊ":{"ha":1517,"x_min":38,"x_max":1476,"o":"m 256 12 l 256 12 q 199 12 149 -14 q 99 -41 69 -96 q 38 -151 38 -239 l 38 -239 q 38 -314 64 -375 q 90 -436 139 -480 q 187 -524 254 -547 q 320 -571 402 -571 l 402 -571 q 484 -571 545 -548 q 605 -526 645 -486 q 684 -447 704 -394 q 723 -341 723 -280 l 723 -280 q 723 -212 703 -159 q 683 -106 648 -64 q 612 -23 565 11 l 565 11 l 487 -60 q 518 -86 543 -116 q 568 -147 582 -186 q 596 -225 596 -276 l 596 -276 q 596 -337 573 -382 q 550 -427 505 -452 q 459 -477 391 -477 l 391 -477 q 320 -477 266 -445 q 212 -413 182 -358 q 152 -304 152 -235 l 152 -235 q 152 -178 166 -143 q 179 -108 202 -92 q 225 -77 254 -77 l 254 -77 q 276 -77 293 -87 q 309 -97 318 -116 q 326 -135 326 -163 l 326 -163 q 326 -205 305 -228 q 284 -251 246 -251 l 246 -251 q 208 -251 174 -231 q 139 -211 107 -175 l 107 -175 l 94 -260 q 123 -291 169 -315 q 215 -340 272 -340 l 272 -340 q 327 -340 366 -319 q 404 -299 425 -261 q 446 -223 446 -171 l 446 -171 q 446 -114 423 -73 q 400 -32 358 -10 q 316 12 256 12 z m 870 -220 l 870 -220 q 838 -220 816 -238 q 794 -257 794 -298 l 794 -298 q 794 -341 816 -358 q 838 -375 870 -375 l 870 -375 q 903 -375 925 -358 q 947 -341 947 -298 l 947 -298 q 947 -257 925 -238 q 903 -220 870 -220 z m 1476 -281 l 1476 -281 q 1476 -223 1464 -170 q 1452 -118 1423 -76 q 1394 -35 1346 -11 q 1297 12 1224 12 l 1224 12 q 1163 12 1121 -5 q 1079 -23 1052 -51 q 1024 -79 1009 -112 q 993 -146 986 -178 l 986 -178 l 1112 -200 q 1119 -174 1131 -146 q 1142 -118 1165 -98 q 1187 -79 1224 -79 l 1224 -79 q 1269 -79 1297 -104 q 1324 -130 1336 -175 q 1348 -220 1348 -280 l 1348 -280 q 1348 -339 1336 -384 q 1324 -429 1297 -454 q 1270 -480 1228 -480 l 1228 -480 q 1194 -480 1171 -461 q 1148 -443 1135 -415 q 1121 -388 1115 -361 l 1115 -361 l 989 -383 q 999 -417 1017 -450 q 1034 -483 1063 -510 q 1091 -538 1133 -554 q 1175 -571 1234 -571 l 1234 -571 q 1303 -571 1350 -547 q 1396 -524 1424 -483 q 1452 -443 1464 -391 q 1476 -339 1476 -281 z"},"ോ":{"ha":1370,"x_min":36,"x_max":1329,"o":"m 384 12 l 384 12 q 313 12 250 -5 q 187 -22 139 -58 q 91 -94 64 -150 q 36 -206 36 -283 l 36 -283 q 36 -358 64 -412 q 92 -467 141 -502 q 190 -537 253 -554 q 316 -571 386 -571 l 386 -571 q 461 -571 507 -552 q 553 -533 574 -500 q 595 -468 595 -428 l 595 -428 q 595 -384 575 -354 q 554 -324 519 -308 q 483 -293 438 -293 l 438 -293 q 379 -293 345 -311 q 310 -330 295 -361 q 280 -392 280 -426 l 280 -426 q 280 -447 286 -464 q 291 -482 297 -494 l 297 -494 l 416 -513 q 397 -500 387 -478 q 377 -457 377 -433 l 377 -433 q 377 -410 390 -391 q 402 -372 433 -372 l 433 -372 q 462 -372 475 -387 q 487 -403 487 -425 l 487 -425 q 487 -456 464 -471 q 441 -486 408 -486 l 408 -486 q 392 -486 378 -486 q 363 -486 351 -484 l 351 -484 q 291 -482 248 -456 q 205 -431 183 -386 q 160 -342 160 -282 l 160 -282 q 160 -224 182 -177 q 204 -131 247 -104 q 289 -78 348 -76 l 348 -76 q 359 -75 373 -74 q 386 -73 399 -73 l 399 -73 q 424 -73 443 -80 q 461 -87 472 -100 q 482 -114 482 -136 l 482 -136 q 482 -158 470 -173 q 457 -188 430 -188 l 430 -188 q 399 -188 385 -169 q 371 -150 371 -127 l 371 -127 q 371 -103 381 -82 q 391 -61 410 -48 l 410 -48 l 291 -67 q 285 -78 280 -96 q 274 -114 274 -137 l 274 -137 q 274 -171 289 -200 q 304 -230 339 -249 q 373 -268 433 -268 l 433 -268 q 478 -268 513 -252 q 548 -237 569 -207 q 589 -177 589 -131 l 589 -131 q 589 -92 567 -59 q 545 -26 500 -7 q 454 12 384 12 z m 724 -220 l 724 -220 q 692 -220 670 -238 q 648 -257 648 -298 l 648 -298 q 648 -341 670 -358 q 692 -375 724 -375 l 724 -375 q 757 -375 779 -358 q 801 -341 801 -298 l 801 -298 q 801 -257 779 -238 q 757 -220 724 -220 z m 1329 -281 l 1329 -281 q 1329 -223 1317 -170 q 1305 -118 1276 -76 q 1247 -35 1199 -11 q 1150 12 1077 12 l 1077 12 q 1016 12 974 -5 q 932 -23 905 -51 q 877 -79 862 -112 q 846 -146 839 -178 l 839 -178 l 965 -200 q 972 -174 984 -146 q 995 -118 1018 -98 q 1040 -79 1077 -79 l 1077 -79 q 1122 -79 1150 -104 q 1177 -130 1189 -175 q 1201 -220 1201 -280 l 1201 -280 q 1201 -339 1189 -384 q 1177 -429 1150 -454 q 1123 -480 1081 -480 l 1081 -480 q 1047 -480 1024 -461 q 1001 -443 988 -415 q 974 -388 968 -361 l 968 -361 l 842 -383 q 852 -417 870 -450 q 887 -483 916 -510 q 944 -538 986 -554 q 1028 -571 1087 -571 l 1087 -571 q 1156 -571 1203 -547 q 1249 -524 1277 -483 q 1305 -443 1317 -391 q 1329 -339 1329 -281 z"},"ൌ":{"ha":1782,"x_min":38,"x_max":1745,"o":"m 256 12 l 256 12 q 199 12 149 -14 q 99 -41 69 -96 q 38 -151 38 -239 l 38 -239 q 38 -314 64 -375 q 90 -436 139 -480 q 187 -524 254 -547 q 320 -571 402 -571 l 402 -571 q 484 -571 545 -548 q 605 -526 645 -486 q 684 -447 704 -394 q 723 -341 723 -280 l 723 -280 q 723 -212 703 -159 q 683 -106 648 -64 q 612 -23 565 11 l 565 11 l 487 -60 q 518 -86 543 -116 q 568 -147 582 -186 q 596 -225 596 -276 l 596 -276 q 596 -337 573 -382 q 550 -427 505 -452 q 459 -477 391 -477 l 391 -477 q 320 -477 266 -445 q 212 -413 182 -358 q 152 -304 152 -235 l 152 -235 q 152 -178 166 -143 q 179 -108 202 -92 q 225 -77 254 -77 l 254 -77 q 276 -77 293 -87 q 309 -97 318 -116 q 326 -135 326 -163 l 326 -163 q 326 -205 305 -228 q 284 -251 246 -251 l 246 -251 q 208 -251 174 -231 q 139 -211 107 -175 l 107 -175 l 94 -260 q 123 -291 169 -315 q 215 -340 272 -340 l 272 -340 q 327 -340 366 -319 q 404 -299 425 -261 q 446 -223 446 -171 l 446 -171 q 446 -114 423 -73 q 400 -32 358 -10 q 316 12 256 12 z m 870 -220 l 870 -220 q 838 -220 816 -238 q 794 -257 794 -298 l 794 -298 q 794 -341 816 -358 q 838 -375 870 -375 l 870 -375 q 903 -375 925 -358 q 947 -341 947 -298 l 947 -298 q 947 -257 925 -238 q 903 -220 870 -220 z m 1524 -571 l 1524 -571 q 1594 -571 1643 -538 q 1692 -505 1719 -445 q 1745 -386 1745 -307 l 1745 -307 q 1745 -206 1711 -134 q 1676 -63 1610 -25 q 1544 12 1446 12 l 1446 12 q 1370 12 1314 -2 q 1258 -16 1206 -42 l 1206 -42 l 1256 -130 q 1299 -107 1340 -94 q 1381 -82 1437 -82 l 1437 -82 q 1506 -82 1546 -110 q 1585 -139 1602 -189 q 1619 -240 1619 -305 l 1619 -305 q 1619 -395 1591 -436 q 1562 -478 1516 -478 l 1516 -478 q 1491 -478 1474 -468 q 1457 -459 1448 -442 l 1448 -442 q 1440 -427 1438 -407 q 1435 -387 1435 -349 l 1435 -349 l 1435 -260 l 1311 -260 l 1311 -333 q 1311 -375 1308 -401 q 1305 -428 1295 -443 l 1295 -443 q 1284 -462 1267 -470 q 1250 -478 1229 -478 l 1229 -478 q 1182 -478 1160 -448 q 1137 -418 1137 -377 l 1137 -377 q 1137 -345 1142 -323 q 1146 -301 1152 -282 l 1152 -282 l 1033 -256 q 1023 -284 1018 -318 q 1013 -352 1013 -379 l 1013 -379 q 1013 -430 1035 -473 q 1057 -517 1103 -544 q 1148 -571 1218 -571 l 1218 -571 q 1275 -571 1313 -551 q 1351 -532 1377 -498 l 1377 -498 l 1365 -500 q 1395 -538 1434 -554 q 1473 -571 1524 -571 z"},"്":{"ha":0,"x_min":-314,"x_max":85,"o":"m -115 -594 l -115 -594 q -182 -594 -226 -615 q -271 -636 -292 -673 q -314 -710 -314 -758 l -314 -758 q -314 -777 -311 -795 q -308 -813 -303 -826 l -303 -826 l -194 -807 q -197 -798 -198 -786 q -200 -774 -200 -764 l -200 -764 q -200 -732 -188 -714 q -177 -696 -157 -688 q -138 -681 -113 -681 l -113 -681 q -88 -681 -68 -688 q -49 -696 -37 -714 q -25 -732 -25 -764 l -25 -764 q -25 -774 -26 -786 q -28 -798 -31 -807 l -31 -807 l 74 -826 q 79 -813 82 -795 q 85 -777 85 -758 l 85 -758 q 85 -710 64 -673 q 42 -636 -2 -615 q -47 -594 -115 -594 z"},"ൎ":{"ha":0,"x_min":-346,"x_max":-207,"o":"m -346 -821 l -207 -821 l -217 -633 l -337 -633 l -346 -821 z"},"൏":{"ha":1312,"x_min":43,"x_max":1272,"o":"m 616 -571 l 616 -571 q 703 -571 760 -545 q 816 -519 859 -471 l 859 -471 l 832 -488 q 865 -531 911 -551 q 957 -571 1019 -571 l 1019 -571 q 1102 -571 1159 -530 q 1216 -489 1244 -413 q 1272 -338 1272 -235 l 1272 -235 q 1272 -80 1208 26 q 1144 131 1008 185 q 871 239 656 239 l 656 239 q 508 239 403 214 q 298 189 228 145 q 157 100 117 41 q 77 -19 60 -89 q 43 -159 43 -234 l 43 -234 q 43 -311 64 -389 q 84 -467 122 -543 l 122 -543 l 225 -500 q 191 -434 177 -366 q 162 -298 162 -235 l 162 -235 q 162 -176 174 -120 q 185 -65 215 -17 q 244 30 299 66 q 354 101 442 121 q 529 140 656 140 l 656 140 q 798 140 893 114 q 988 88 1044 39 q 1099 -11 1123 -81 q 1147 -152 1147 -241 l 1147 -241 q 1147 -316 1130 -369 q 1113 -422 1083 -450 q 1053 -478 1011 -478 l 1011 -478 q 978 -478 957 -466 q 936 -455 923 -435 l 923 -435 q 909 -416 904 -387 q 899 -359 899 -307 l 899 -307 l 899 0 l 775 0 l 775 -282 q 775 -353 764 -388 q 752 -423 731 -442 l 731 -442 q 711 -459 685 -468 q 658 -478 613 -478 l 613 -478 q 546 -478 495 -449 q 444 -421 415 -367 q 386 -314 386 -240 l 386 -240 l 386 -234 q 386 -178 399 -143 q 412 -108 435 -92 q 457 -77 487 -77 l 487 -77 q 509 -77 525 -87 q 541 -97 550 -116 q 559 -135 559 -163 l 559 -163 q 559 -206 539 -228 q 518 -251 479 -251 l 479 -251 q 441 -251 407 -231 q 372 -211 340 -175 l 340 -175 l 327 -260 q 355 -291 403 -315 q 450 -340 507 -340 l 507 -340 q 560 -340 599 -319 q 637 -299 658 -261 q 679 -223 679 -171 l 679 -171 q 679 -114 656 -73 q 633 -32 591 -10 q 548 12 489 12 l 489 12 q 432 12 382 -14 q 332 -40 302 -96 q 271 -152 271 -242 l 271 -242 q 271 -349 317 -422 q 363 -495 442 -533 q 520 -571 616 -571 z"},"ൔ":{"ha":684,"x_min":58,"x_max":669,"o":"m 201 -797 l 201 -797 q 241 -797 270 -786 q 298 -776 314 -761 l 314 -761 q 339 -738 348 -707 q 357 -676 357 -630 l 357 -630 l 357 -521 q 357 -476 363 -437 q 368 -399 389 -362 q 409 -326 452 -285 l 452 -285 l 477 -259 q 511 -224 559 -182 q 606 -140 669 -87 l 669 -87 l 626 0 l 58 0 l 58 -261 q 58 -317 67 -360 q 76 -404 95 -437 q 113 -471 142 -496 l 142 -496 q 182 -530 236 -550 q 290 -570 354 -570 l 354 -570 q 418 -570 466 -546 q 513 -523 540 -480 q 566 -438 566 -381 l 566 -381 q 566 -332 544 -289 q 522 -247 488 -210 l 488 -210 l 463 -191 q 440 -169 414 -146 q 388 -124 359 -102 q 329 -80 296 -58 l 296 -58 l 306 -87 q 335 -89 361 -90 q 387 -92 404 -92 l 404 -92 l 465 -92 q 478 -92 496 -91 q 513 -91 530 -90 q 547 -89 561 -86 l 561 -86 l 551 -62 q 508 -97 473 -128 q 437 -159 408 -187 l 408 -187 l 380 -214 q 324 -267 294 -315 q 264 -363 253 -411 q 242 -460 242 -514 l 242 -514 l 242 -617 q 242 -648 237 -664 q 232 -680 221 -689 l 221 -689 q 214 -697 201 -700 q 188 -704 170 -704 l 170 -704 q 150 -704 132 -701 q 114 -698 102 -695 l 102 -695 l 79 -780 q 100 -787 132 -792 q 164 -797 201 -797 z m 182 -264 l 182 -68 l 158 -72 q 211 -108 255 -141 q 298 -175 333 -207 q 367 -239 391 -270 l 391 -270 l 415 -292 q 430 -316 437 -337 q 444 -359 444 -386 l 444 -386 q 444 -418 430 -439 q 416 -460 391 -471 q 366 -482 333 -482 l 333 -482 q 286 -482 257 -462 q 228 -442 211 -412 l 211 -412 q 202 -395 195 -373 q 188 -352 185 -325 q 182 -298 182 -264 l 182 -264 z"},"ൕ":{"ha":1102,"x_min":38,"x_max":1062,"o":"m 725 12 l 725 12 q 682 12 649 8 q 615 4 586 -5 q 556 -14 523 -29 l 523 -29 q 517 -32 507 -36 q 497 -40 492 -44 l 492 -44 q 432 -81 396 -128 q 359 -175 343 -228 q 327 -281 327 -335 l 327 -335 q 327 -373 335 -403 q 343 -434 356 -459 l 356 -459 l 365 -468 q 386 -506 418 -528 q 449 -551 486 -561 q 523 -571 561 -571 l 561 -571 q 669 -571 730 -510 q 791 -449 791 -333 l 791 -333 q 791 -271 772 -219 q 753 -167 719 -125 q 684 -83 637 -54 l 637 -54 q 628 -47 621 -43 q 613 -39 602 -34 l 602 -34 q 557 -10 507 1 q 457 12 398 12 l 398 12 q 311 12 244 -13 q 177 -38 131 -84 q 85 -130 62 -193 q 38 -257 38 -334 l 38 -334 q 38 -404 66 -457 q 93 -511 147 -541 q 200 -571 277 -571 l 277 -571 q 340 -571 389 -548 q 438 -526 469 -479 l 469 -479 l 374 -417 q 358 -446 334 -462 q 310 -479 277 -479 l 277 -479 q 241 -479 216 -461 q 191 -444 177 -411 q 163 -379 163 -332 l 163 -332 q 163 -260 192 -202 q 220 -145 275 -111 q 329 -77 407 -77 l 407 -77 q 431 -77 454 -80 q 476 -83 495 -87 l 495 -87 q 506 -91 517 -93 q 527 -95 536 -99 l 536 -99 q 570 -115 600 -147 q 629 -180 648 -227 q 666 -274 666 -333 l 666 -333 q 666 -387 651 -419 q 635 -451 612 -465 q 588 -479 561 -479 l 561 -479 q 528 -479 504 -463 q 479 -447 466 -414 q 452 -381 452 -332 l 452 -332 q 452 -278 469 -231 q 485 -185 515 -150 q 545 -116 584 -95 l 584 -95 q 594 -91 601 -92 q 607 -93 617 -90 l 617 -90 q 634 -85 659 -81 q 684 -77 727 -77 l 727 -77 q 800 -77 846 -101 q 892 -126 914 -167 q 936 -208 936 -258 l 936 -258 q 936 -298 926 -330 q 915 -363 894 -396 q 873 -430 844 -468 l 844 -468 q 816 -506 796 -536 q 776 -567 766 -596 q 755 -626 755 -661 l 755 -661 q 755 -692 770 -723 q 784 -755 820 -776 q 855 -797 917 -797 l 917 -797 q 960 -797 991 -792 q 1021 -787 1038 -782 l 1038 -782 l 1014 -693 q 1001 -698 984 -701 q 966 -704 943 -704 l 943 -704 q 909 -704 894 -689 q 879 -674 879 -650 l 879 -650 q 879 -631 887 -613 q 894 -596 911 -573 q 928 -550 954 -515 l 954 -515 q 987 -474 1011 -433 q 1035 -393 1049 -351 q 1062 -310 1062 -263 l 1062 -263 q 1062 -220 1051 -179 q 1039 -138 1015 -103 q 991 -69 952 -43 q 912 -17 856 -2 q 800 12 725 12 z"},"ൖ":{"ha":780,"x_min":35,"x_max":746,"o":"m 252 -169 l 252 -169 q 252 -142 263 -122 q 273 -102 296 -91 q 318 -81 353 -81 l 353 -81 q 403 -81 421 -98 q 439 -115 439 -144 l 439 -144 q 439 -175 427 -203 q 414 -231 398 -260 q 382 -289 370 -324 q 357 -359 357 -403 l 357 -403 q 357 -448 379 -486 q 400 -525 443 -548 q 485 -571 545 -571 l 545 -571 q 618 -571 663 -544 q 707 -518 727 -477 q 746 -436 746 -392 l 746 -392 q 746 -325 711 -270 q 676 -216 606 -184 q 536 -152 430 -152 l 430 -152 l 391 -152 q 342 -152 301 -159 q 259 -166 220 -181 l 220 -181 l 181 -188 q 135 -208 103 -239 q 70 -271 53 -312 q 35 -354 35 -402 l 35 -402 q 35 -442 49 -485 q 62 -528 93 -572 l 93 -572 l 190 -522 q 174 -490 167 -462 q 159 -435 159 -403 l 159 -403 q 159 -368 170 -339 q 180 -311 197 -292 l 197 -292 l 240 -271 q 268 -255 309 -246 q 349 -238 388 -238 l 388 -238 l 431 -238 q 497 -238 540 -259 q 582 -280 603 -316 q 623 -352 623 -396 l 623 -396 q 623 -430 606 -456 q 589 -483 545 -483 l 545 -483 q 520 -483 503 -472 q 486 -462 478 -444 q 469 -426 469 -402 l 469 -402 q 469 -365 483 -332 q 496 -300 513 -268 q 530 -237 544 -203 q 557 -170 557 -131 l 557 -131 q 557 -105 549 -80 q 540 -55 518 -34 q 496 -13 456 0 q 415 12 352 12 l 352 12 q 288 12 241 -7 q 193 -27 166 -67 q 139 -108 139 -172 l 139 -172 q 139 -218 155 -265 q 171 -313 196 -360 q 220 -408 245 -453 l 245 -453 q 272 -501 289 -533 q 305 -566 312 -591 q 319 -617 319 -641 l 319 -641 q 319 -669 303 -686 q 287 -704 247 -704 l 247 -704 q 228 -704 210 -701 q 192 -698 180 -695 l 180 -695 l 157 -780 q 178 -787 213 -792 q 247 -797 283 -797 l 283 -797 q 348 -797 383 -775 q 417 -753 430 -721 q 443 -690 443 -662 l 443 -662 q 443 -635 438 -609 q 433 -584 421 -555 q 408 -527 387 -489 q 366 -452 335 -399 l 335 -399 q 312 -360 296 -329 q 279 -299 270 -272 q 261 -246 257 -221 q 252 -197 252 -169 z"},"ൗ":{"ha":802,"x_min":33,"x_max":765,"o":"m 544 -571 l 544 -571 q 614 -571 663 -538 q 712 -505 739 -445 q 765 -386 765 -307 l 765 -307 q 765 -206 731 -134 q 696 -63 630 -25 q 564 12 466 12 l 466 12 q 390 12 334 -2 q 278 -16 226 -42 l 226 -42 l 276 -130 q 319 -107 360 -94 q 401 -82 457 -82 l 457 -82 q 526 -82 566 -110 q 605 -139 622 -189 q 639 -240 639 -305 l 639 -305 q 639 -395 611 -436 q 582 -478 536 -478 l 536 -478 q 511 -478 494 -468 q 477 -459 468 -442 l 468 -442 q 460 -427 458 -407 q 455 -387 455 -349 l 455 -349 l 455 -260 l 331 -260 l 331 -333 q 331 -375 328 -401 q 325 -428 315 -443 l 315 -443 q 304 -462 287 -470 q 270 -478 249 -478 l 249 -478 q 202 -478 180 -448 q 157 -418 157 -377 l 157 -377 q 157 -345 162 -323 q 166 -301 172 -282 l 172 -282 l 53 -256 q 43 -284 38 -318 q 33 -352 33 -379 l 33 -379 q 33 -430 55 -473 q 77 -517 123 -544 q 168 -571 238 -571 l 238 -571 q 295 -571 333 -551 q 371 -532 397 -498 l 397 -498 l 385 -500 q 415 -538 454 -554 q 493 -571 544 -571 z"},"൘":{"ha":1295,"x_min":38,"x_max":1254,"o":"m 639 12 l 639 12 q 584 12 540 -9 q 496 -30 461 -72 l 461 -72 l 472 -70 q 438 -31 399 -9 q 360 12 296 12 l 296 12 q 216 12 158 -23 q 100 -59 69 -121 q 38 -184 38 -265 l 38 -265 q 38 -333 56 -386 q 73 -440 106 -484 q 138 -529 182 -570 l 182 -570 l 269 -498 q 235 -466 212 -430 q 188 -395 176 -354 q 164 -314 164 -266 l 164 -266 q 164 -204 184 -163 q 203 -122 234 -101 q 265 -81 300 -81 l 300 -81 q 330 -81 350 -91 q 370 -102 382 -121 l 382 -121 q 395 -142 400 -170 q 404 -199 404 -247 l 404 -247 l 404 -559 l 528 -559 l 528 -255 q 528 -195 536 -165 q 543 -135 559 -115 l 559 -115 q 573 -99 595 -90 q 616 -81 639 -81 l 639 -81 q 667 -81 687 -89 q 706 -98 719 -112 l 719 -112 q 736 -132 743 -162 q 750 -193 750 -245 l 750 -245 l 750 -559 l 874 -559 l 874 -260 l 814 -71 q 784 -32 743 -10 q 702 12 639 12 z m 992 12 l 992 12 q 930 12 887 -7 q 843 -27 805 -72 l 805 -72 l 760 -245 l 760 -549 l 874 -549 l 874 -260 q 874 -202 878 -173 q 882 -144 896 -123 l 896 -123 q 910 -103 932 -92 q 953 -81 985 -81 l 985 -81 q 1026 -81 1058 -106 q 1090 -131 1109 -184 q 1128 -237 1128 -321 l 1128 -321 q 1128 -392 1114 -456 q 1099 -520 1067 -574 q 1035 -628 983 -667 q 930 -707 853 -728 q 776 -750 671 -750 l 671 -750 q 596 -750 531 -741 q 466 -733 417 -720 l 417 -720 l 400 -816 q 445 -827 487 -834 q 529 -841 574 -844 q 619 -847 671 -847 l 671 -847 q 800 -847 898 -820 q 995 -793 1063 -744 q 1130 -696 1173 -630 q 1215 -565 1235 -487 q 1254 -410 1254 -325 l 1254 -325 q 1254 -212 1223 -137 q 1191 -63 1133 -25 q 1074 12 992 12 z"},"൙":{"ha":1203,"x_min":38,"x_max":1184,"o":"m 383 -571 l 383 -571 q 476 -571 545 -545 q 613 -520 659 -474 q 704 -429 727 -369 q 750 -309 750 -238 l 750 -238 q 750 -151 722 -95 q 693 -40 641 -14 q 589 12 519 12 l 519 12 q 447 12 403 -12 q 358 -37 338 -75 q 317 -114 317 -158 l 317 -158 q 317 -206 338 -242 q 358 -278 392 -299 l 392 -299 q 415 -314 442 -323 q 469 -332 509 -336 q 549 -340 607 -340 l 607 -340 l 809 -340 l 809 -248 l 614 -248 q 556 -248 525 -243 q 494 -239 472 -224 l 472 -224 q 457 -214 448 -198 q 439 -183 439 -159 l 439 -159 q 439 -125 460 -102 q 480 -80 522 -80 l 522 -80 q 556 -80 580 -96 q 604 -113 617 -149 q 629 -185 629 -242 l 629 -242 q 629 -257 628 -274 q 626 -291 624 -303 l 624 -303 l 619 -326 q 611 -368 583 -402 q 554 -437 507 -457 q 460 -477 393 -477 l 393 -477 q 318 -477 268 -453 q 217 -429 191 -384 q 165 -340 165 -278 l 165 -278 q 165 -230 178 -191 q 190 -153 215 -121 q 240 -89 274 -60 l 274 -60 l 194 11 q 151 -22 116 -63 q 80 -104 59 -158 q 38 -212 38 -279 l 38 -279 q 38 -336 58 -388 q 77 -441 119 -482 q 160 -523 226 -547 q 291 -571 383 -571 z m 998 -559 l 998 -559 q 1064 -559 1105 -537 q 1146 -516 1165 -481 q 1184 -447 1184 -408 l 1184 -408 q 1184 -364 1168 -334 q 1152 -305 1125 -286 l 1125 -286 q 1106 -272 1082 -263 q 1057 -255 1025 -251 q 993 -248 949 -248 l 949 -248 l 692 -248 l 692 -340 l 948 -340 q 983 -340 1003 -343 q 1022 -346 1034 -351 l 1034 -351 q 1050 -358 1059 -371 q 1067 -384 1067 -406 l 1067 -406 q 1067 -434 1050 -451 q 1033 -469 1000 -469 l 1000 -469 q 962 -469 943 -448 q 924 -427 924 -391 l 924 -391 q 924 -359 935 -336 q 946 -313 965 -292 l 965 -292 l 850 -287 q 835 -309 823 -340 q 811 -372 811 -405 l 811 -405 q 811 -455 836 -489 q 860 -524 903 -541 q 945 -559 998 -559 z"},"൚":{"ha":1136,"x_min":38,"x_max":1079,"o":"m 738 -571 l 738 -571 q 825 -571 888 -551 q 951 -532 992 -497 l 992 -497 q 1023 -471 1042 -438 q 1061 -406 1070 -362 q 1079 -318 1079 -259 l 1079 -259 l 1079 0 l 541 0 l 541 -88 q 599 -136 644 -187 q 689 -239 715 -292 q 741 -345 741 -396 l 741 -396 q 741 -419 735 -437 q 729 -456 714 -467 q 699 -478 674 -478 l 674 -478 q 639 -478 612 -459 q 585 -440 569 -412 l 569 -412 q 554 -383 549 -349 q 543 -315 543 -271 l 543 -271 l 543 -230 l 419 -230 l 419 -311 q 419 -361 415 -388 q 410 -416 396 -436 l 396 -436 q 384 -456 363 -467 q 341 -478 308 -478 l 308 -478 q 270 -478 237 -456 q 204 -435 184 -394 q 164 -353 164 -293 l 164 -293 q 164 -245 176 -204 q 188 -164 212 -129 q 235 -94 269 -61 l 269 -61 l 182 10 q 138 -30 106 -74 q 73 -119 56 -173 q 38 -227 38 -294 l 38 -294 q 38 -374 70 -436 q 101 -499 161 -535 q 221 -571 306 -571 l 306 -571 q 358 -571 395 -557 q 431 -543 458 -519 q 484 -495 506 -467 l 506 -467 l 473 -462 q 502 -498 541 -522 q 580 -546 629 -558 q 678 -571 738 -571 z m 864 -379 l 864 -379 q 864 -327 842 -276 q 820 -226 780 -176 q 739 -127 684 -76 l 684 -76 l 667 -87 q 694 -89 721 -90 q 748 -92 767 -92 l 767 -92 l 955 -92 l 955 -252 q 955 -320 942 -364 q 929 -409 900 -437 q 871 -465 823 -482 l 823 -482 l 826 -487 q 841 -469 853 -443 q 864 -418 864 -379 z"},"൛":{"ha":1021,"x_min":66,"x_max":983,"o":"m 660 12 l 660 12 q 577 12 517 -11 q 457 -34 419 -74 q 380 -115 362 -166 q 344 -217 344 -272 l 344 -272 q 344 -332 359 -375 q 373 -419 399 -454 q 424 -490 456 -525 l 456 -525 l 448 -467 l 190 -467 l 190 0 l 66 0 l 66 -559 l 529 -559 l 572 -493 q 545 -469 522 -439 q 498 -410 484 -372 q 470 -335 470 -283 l 470 -283 q 470 -224 494 -178 q 517 -133 560 -107 q 603 -82 661 -82 l 661 -82 q 721 -82 765 -107 q 808 -133 832 -178 q 855 -223 855 -281 l 855 -281 q 855 -330 842 -368 q 829 -406 805 -438 q 781 -470 745 -499 l 745 -499 l 827 -570 q 871 -538 906 -496 q 941 -455 962 -401 q 983 -348 983 -279 l 983 -279 q 983 -223 964 -170 q 945 -118 905 -77 q 865 -36 804 -12 q 743 12 660 12 z"},"൜":{"ha":1611,"x_min":38,"x_max":1573,"o":"m 972 -571 l 972 -571 q 1031 -571 1075 -555 q 1118 -540 1146 -508 l 1146 -508 q 1164 -488 1177 -461 q 1189 -434 1196 -395 q 1202 -357 1202 -302 l 1202 -302 l 1202 -270 q 1202 -216 1207 -181 q 1212 -146 1226 -123 l 1226 -123 q 1239 -104 1261 -93 q 1282 -82 1317 -82 l 1317 -82 q 1355 -82 1385 -102 q 1414 -123 1431 -164 q 1447 -206 1447 -269 l 1447 -269 q 1447 -316 1436 -356 q 1424 -396 1401 -432 q 1378 -468 1343 -501 l 1343 -501 l 1426 -572 q 1474 -530 1507 -484 q 1540 -438 1557 -384 q 1573 -330 1573 -264 l 1573 -264 q 1573 -179 1541 -117 q 1509 -55 1450 -21 q 1391 12 1311 12 l 1311 12 q 1249 12 1205 -5 q 1161 -22 1132 -53 l 1132 -53 q 1112 -77 1100 -106 q 1087 -135 1082 -171 q 1076 -208 1076 -254 l 1076 -254 l 1076 -290 q 1076 -354 1070 -387 q 1064 -420 1051 -440 l 1051 -440 q 1038 -459 1019 -468 q 999 -477 973 -477 l 973 -477 q 946 -477 926 -468 q 906 -460 894 -441 l 894 -441 q 880 -420 875 -386 q 869 -353 869 -288 l 869 -288 l 869 -257 q 869 -203 863 -164 q 856 -125 844 -98 q 831 -72 813 -52 l 813 -52 q 786 -20 743 -4 q 700 12 639 12 l 639 12 q 579 12 536 -4 q 493 -20 465 -51 l 465 -51 q 447 -72 435 -98 q 422 -125 416 -163 q 409 -202 409 -257 l 409 -257 l 409 -289 q 409 -343 405 -378 q 400 -414 385 -436 l 385 -436 q 373 -456 352 -466 q 330 -477 294 -477 l 294 -477 q 257 -477 227 -456 q 197 -436 181 -394 q 164 -353 164 -291 l 164 -291 q 164 -244 176 -203 q 187 -163 211 -127 q 234 -92 268 -58 l 268 -58 l 185 12 q 138 -30 105 -75 q 72 -121 55 -175 q 38 -229 38 -296 l 38 -296 q 38 -380 70 -442 q 102 -504 161 -537 q 220 -571 300 -571 l 300 -571 q 362 -571 406 -554 q 450 -537 479 -505 l 479 -505 q 500 -483 512 -453 q 524 -424 530 -387 q 535 -351 535 -304 l 535 -304 l 535 -269 q 535 -205 541 -172 q 547 -139 560 -119 l 560 -119 q 573 -100 593 -91 q 612 -82 638 -82 l 638 -82 q 665 -82 685 -91 q 705 -100 717 -118 l 717 -118 q 731 -139 737 -172 q 742 -205 742 -267 l 742 -267 l 742 -303 q 742 -357 749 -395 q 755 -434 768 -461 q 780 -488 798 -507 l 798 -507 q 826 -539 869 -555 q 911 -571 972 -571 z"},"൝":{"ha":2122,"x_min":9,"x_max":2084,"o":"m 815 -571 l 815 -571 q 874 -571 918 -555 q 962 -540 990 -508 l 990 -508 q 1008 -488 1020 -461 q 1032 -434 1039 -395 q 1046 -357 1046 -302 l 1046 -302 l 1046 -269 q 1046 -205 1052 -172 q 1057 -139 1071 -119 l 1071 -119 q 1083 -100 1103 -91 q 1123 -82 1149 -82 l 1149 -82 q 1176 -82 1196 -91 q 1215 -100 1228 -118 l 1228 -118 q 1241 -139 1247 -172 q 1253 -205 1253 -267 l 1253 -267 l 1253 -303 q 1253 -357 1260 -395 q 1266 -434 1279 -461 q 1291 -488 1308 -507 l 1308 -507 q 1336 -539 1379 -555 q 1422 -571 1482 -571 l 1482 -571 q 1541 -571 1585 -555 q 1629 -540 1657 -508 l 1657 -508 q 1675 -488 1687 -461 q 1699 -434 1706 -395 q 1713 -357 1713 -302 l 1713 -302 l 1713 -270 q 1713 -216 1718 -181 q 1722 -146 1736 -123 l 1736 -123 q 1749 -104 1771 -93 q 1792 -82 1828 -82 l 1828 -82 q 1866 -82 1895 -102 q 1924 -123 1941 -164 q 1958 -206 1958 -269 l 1958 -269 q 1958 -316 1946 -356 q 1934 -396 1911 -432 q 1888 -468 1853 -501 l 1853 -501 l 1937 -572 q 1985 -530 2018 -484 q 2050 -438 2067 -384 q 2084 -330 2084 -264 l 2084 -264 q 2084 -179 2052 -117 q 2020 -55 1961 -21 q 1902 12 1822 12 l 1822 12 q 1760 12 1716 -5 q 1671 -22 1643 -53 l 1643 -53 q 1622 -77 1610 -106 q 1598 -135 1592 -171 q 1586 -208 1586 -254 l 1586 -254 l 1586 -290 q 1586 -354 1581 -387 q 1575 -420 1561 -440 l 1561 -440 q 1549 -459 1529 -468 q 1509 -477 1483 -477 l 1483 -477 q 1457 -477 1437 -468 q 1417 -460 1404 -441 l 1404 -441 q 1391 -420 1385 -386 q 1379 -353 1379 -288 l 1379 -288 l 1379 -257 q 1379 -203 1373 -164 q 1366 -125 1354 -98 q 1342 -72 1324 -52 l 1324 -52 q 1296 -20 1253 -4 q 1210 12 1149 12 l 1149 12 q 1089 12 1046 -4 q 1003 -20 975 -51 l 975 -51 q 958 -72 946 -98 q 933 -125 926 -163 q 919 -202 919 -257 l 919 -257 l 919 -293 q 919 -356 914 -388 q 908 -420 894 -440 l 894 -440 q 882 -459 863 -468 q 843 -477 817 -477 l 817 -477 q 790 -477 770 -468 q 750 -460 737 -441 l 737 -441 q 724 -420 718 -386 q 712 -353 712 -288 l 712 -288 l 712 -250 q 712 -176 698 -130 q 684 -85 655 -54 l 655 -54 q 624 -21 582 -4 q 540 12 481 12 l 481 12 q 412 12 369 -13 q 326 -38 295 -80 l 295 -80 l 310 -73 q 287 -46 261 -26 q 234 -7 202 3 q 169 12 127 12 l 127 12 q 93 12 66 5 q 38 -2 9 -17 l 9 -17 l 43 -105 q 61 -95 82 -88 q 103 -81 130 -81 l 130 -81 q 157 -81 180 -92 q 203 -103 217 -125 l 217 -125 q 232 -146 236 -174 q 239 -202 239 -260 l 239 -260 l 239 -555 l 364 -559 l 364 -246 q 364 -194 371 -163 q 378 -132 395 -113 l 395 -113 q 407 -99 428 -90 q 449 -82 474 -82 l 474 -82 q 506 -82 528 -93 q 549 -104 561 -123 l 561 -123 q 575 -145 581 -178 q 586 -212 586 -280 l 586 -280 l 586 -303 q 586 -357 593 -395 q 599 -434 612 -461 q 624 -488 641 -507 l 641 -507 q 669 -539 712 -555 q 755 -571 815 -571 z"},"൞":{"ha":1465,"x_min":38,"x_max":1438,"o":"m 383 -571 l 383 -571 q 476 -571 545 -545 q 613 -520 659 -474 q 704 -429 727 -369 q 750 -309 750 -238 l 750 -238 q 750 -151 722 -95 q 693 -40 641 -14 q 589 12 519 12 l 519 12 q 447 12 403 -12 q 358 -37 338 -75 q 317 -114 317 -158 l 317 -158 q 317 -206 338 -242 q 358 -278 392 -299 l 392 -299 q 415 -314 442 -323 q 469 -332 509 -336 q 549 -340 607 -340 l 607 -340 l 680 -340 l 680 -248 l 614 -248 q 556 -248 525 -243 q 494 -239 472 -224 l 472 -224 q 457 -214 448 -198 q 439 -183 439 -159 l 439 -159 q 439 -125 460 -102 q 480 -80 522 -80 l 522 -80 q 556 -80 580 -96 q 604 -113 617 -149 q 629 -185 629 -242 l 629 -242 q 629 -257 628 -274 q 626 -291 624 -303 l 624 -303 l 619 -326 q 611 -368 583 -402 q 554 -437 507 -457 q 460 -477 393 -477 l 393 -477 q 318 -477 268 -453 q 217 -429 191 -384 q 165 -340 165 -278 l 165 -278 q 165 -230 178 -191 q 190 -153 215 -121 q 240 -89 274 -60 l 274 -60 l 194 11 q 151 -22 116 -63 q 80 -104 59 -158 q 38 -212 38 -279 l 38 -279 q 38 -336 58 -388 q 77 -441 119 -482 q 160 -523 226 -547 q 291 -571 383 -571 z m 1217 -203 l 1217 -203 q 1142 -203 1093 -230 q 1044 -258 1021 -300 q 997 -343 997 -387 l 997 -387 q 997 -423 1007 -450 q 1017 -478 1031 -495 l 1031 -495 l 1047 -468 l 847 -468 l 893 -496 q 907 -480 917 -455 q 926 -430 926 -401 l 926 -401 q 926 -345 899 -311 q 871 -278 823 -263 q 775 -248 712 -248 l 712 -248 l 668 -248 l 668 -340 l 709 -340 q 742 -340 767 -345 q 791 -350 804 -365 q 817 -380 817 -407 l 817 -407 q 817 -426 811 -441 q 805 -457 794 -472 l 794 -472 l 825 -559 l 1112 -559 l 1155 -503 q 1140 -486 1129 -460 q 1118 -435 1118 -399 l 1118 -399 q 1118 -354 1143 -324 q 1167 -294 1216 -294 l 1216 -294 q 1249 -294 1271 -307 q 1293 -321 1304 -344 q 1315 -368 1315 -396 l 1315 -396 q 1315 -435 1302 -462 q 1288 -490 1265 -512 l 1265 -512 l 1353 -569 q 1392 -532 1415 -489 q 1438 -446 1438 -390 l 1438 -390 q 1438 -335 1410 -292 q 1382 -250 1333 -226 q 1283 -203 1217 -203 z"},"ൟ":{"ha":1429,"x_min":29,"x_max":1400,"o":"m 29 -269 l 29 -269 q 29 -326 69 -364 q 109 -403 175 -403 l 175 -403 q 242 -403 282 -365 q 322 -327 322 -269 l 322 -269 q 322 -212 283 -174 q 243 -136 175 -136 l 175 -136 q 108 -136 69 -174 q 29 -212 29 -269 z m 118 -270 l 118 -270 q 118 -246 133 -229 q 147 -213 175 -213 l 175 -213 q 204 -213 219 -229 q 233 -246 233 -270 l 233 -270 q 233 -294 218 -310 q 203 -326 175 -326 l 175 -326 q 148 -326 133 -310 q 118 -294 118 -270 z m 1107 -269 l 1107 -269 q 1107 -326 1147 -364 q 1187 -403 1253 -403 l 1253 -403 q 1320 -403 1360 -365 q 1400 -327 1400 -269 l 1400 -269 q 1400 -212 1360 -174 q 1320 -136 1253 -136 l 1253 -136 q 1186 -136 1147 -174 q 1107 -212 1107 -269 z m 1196 -270 l 1196 -270 q 1196 -246 1211 -229 q 1225 -213 1253 -213 l 1253 -213 q 1282 -213 1297 -229 q 1311 -246 1311 -270 l 1311 -270 q 1311 -294 1296 -310 q 1281 -326 1253 -326 l 1253 -326 q 1226 -326 1211 -310 q 1196 -294 1196 -270 z m 704 -571 l 704 -571 q 796 -571 865 -545 q 934 -520 980 -474 q 1025 -429 1048 -368 q 1071 -308 1071 -238 l 1071 -238 q 1071 -152 1042 -96 q 1013 -41 961 -14 q 909 12 840 12 l 840 12 q 767 12 721 -17 q 674 -47 652 -96 q 630 -145 630 -202 l 630 -202 q 630 -295 681 -351 q 732 -408 825 -408 l 825 -408 q 884 -408 928 -378 q 972 -348 998 -302 q 1023 -256 1026 -205 l 1026 -205 l 982 -208 q 976 -235 959 -260 q 942 -286 916 -302 q 889 -319 854 -319 l 854 -319 q 800 -319 776 -287 q 751 -255 751 -200 l 751 -200 q 751 -165 761 -137 q 770 -110 791 -95 q 812 -80 844 -80 l 844 -80 q 878 -80 901 -96 q 924 -113 937 -149 q 950 -185 950 -242 l 950 -242 q 950 -252 949 -271 q 947 -290 943 -308 l 943 -308 q 942 -313 942 -320 q 942 -327 940 -331 l 940 -331 q 933 -371 905 -404 q 876 -437 829 -457 q 781 -477 713 -477 l 713 -477 q 639 -477 588 -453 q 537 -429 511 -384 q 485 -340 485 -278 l 485 -278 q 485 -230 498 -191 q 511 -153 536 -121 q 560 -89 595 -60 l 595 -60 l 515 11 q 471 -22 436 -63 q 400 -104 379 -158 q 358 -212 358 -279 l 358 -279 q 358 -336 378 -388 q 398 -441 439 -482 q 480 -523 546 -547 q 612 -571 704 -571 z"},"ൠ":{"ha":958,"x_min":35,"x_max":922,"o":"m 711 -571 l 711 -571 q 808 -571 865 -514 q 922 -457 922 -349 l 922 -349 q 922 -279 894 -224 q 865 -170 813 -133 l 813 -133 q 779 -110 736 -96 q 692 -82 641 -76 l 641 -76 l 539 -89 l 410 -88 l 321 -75 q 271 -80 233 -91 q 195 -103 162 -123 l 162 -123 q 101 -159 68 -217 q 35 -275 35 -348 l 35 -348 q 35 -418 62 -468 q 89 -518 139 -544 q 188 -571 255 -571 l 255 -571 q 320 -571 362 -547 q 404 -524 425 -484 q 446 -445 446 -399 l 446 -399 q 446 -350 425 -313 q 404 -276 363 -255 q 322 -235 264 -235 l 264 -235 q 217 -235 180 -250 q 143 -266 117 -288 q 90 -310 73 -329 l 73 -329 l 102 -417 q 119 -394 137 -372 q 154 -351 180 -336 q 205 -321 242 -321 l 242 -321 q 283 -321 305 -342 q 327 -364 327 -402 l 327 -402 q 327 -438 306 -460 q 285 -482 248 -482 l 248 -482 q 216 -482 194 -467 q 172 -452 161 -424 q 149 -397 149 -359 l 149 -359 q 149 -343 152 -328 q 154 -313 157 -299 l 157 -299 l 150 -285 q 165 -246 194 -222 q 223 -198 263 -185 q 302 -172 350 -167 q 397 -163 448 -163 l 448 -163 l 508 -163 q 559 -163 607 -167 q 655 -172 696 -184 q 736 -197 765 -221 q 794 -246 809 -285 l 809 -285 l 801 -299 q 805 -311 807 -326 q 809 -341 809 -354 l 809 -354 q 809 -396 798 -424 q 786 -453 765 -467 q 744 -482 713 -482 l 713 -482 q 674 -482 653 -460 q 632 -438 632 -402 l 632 -402 q 632 -364 654 -342 q 676 -321 716 -321 l 716 -321 q 753 -321 779 -335 q 804 -350 823 -371 q 841 -393 856 -415 l 856 -415 l 885 -328 q 869 -309 842 -287 q 815 -266 779 -250 q 742 -235 695 -235 l 695 -235 q 636 -235 595 -255 q 554 -276 534 -313 q 513 -351 513 -400 l 513 -400 q 513 -446 535 -485 q 556 -524 600 -547 q 644 -571 711 -571 z m 483 235 l 483 235 q 353 235 267 216 q 180 196 137 152 q 94 108 94 36 l 94 36 q 94 -11 120 -43 q 145 -76 190 -95 q 235 -115 293 -123 q 350 -132 413 -132 l 413 -132 l 540 -132 q 607 -132 666 -123 q 724 -115 769 -95 q 814 -76 840 -43 q 865 -10 865 39 l 865 39 q 865 100 827 145 q 789 189 705 212 q 621 235 483 235 z m 482 146 l 482 146 q 578 146 635 134 q 692 121 718 97 q 743 72 743 35 l 743 35 q 743 0 722 -22 q 701 -44 665 -55 q 628 -67 583 -71 q 538 -75 488 -75 l 488 -75 l 469 -75 q 400 -75 342 -66 q 284 -57 250 -33 q 216 -10 216 34 l 216 34 q 216 74 242 98 q 267 122 326 134 q 384 146 482 146 z m 565 -43 l 565 -43 q 600 -43 622 -30 q 643 -18 654 1 q 665 20 669 41 q 673 62 673 78 l 673 78 l 673 104 l 590 104 l 590 91 q 590 66 584 52 q 577 38 556 38 l 556 38 q 533 38 527 53 q 520 67 520 89 l 520 89 l 520 104 l 438 104 l 438 90 q 438 66 431 52 q 424 38 402 38 l 402 38 q 380 38 374 54 q 368 69 368 91 l 368 91 l 368 104 l 286 104 l 286 78 q 286 62 290 41 q 293 20 304 1 q 315 -18 337 -30 q 358 -43 394 -43 l 394 -43 q 426 -43 446 -32 q 465 -21 479 -2 l 479 -2 q 494 -22 515 -32 q 535 -43 565 -43 z"},"ൡ":{"ha":1415,"x_min":39,"x_max":1387,"o":"m 384 -571 l 384 -571 q 471 -571 528 -544 q 585 -518 630 -468 l 630 -468 l 643 -392 l 667 -227 l 667 0 l 543 0 l 543 -283 q 543 -353 532 -388 q 520 -423 499 -442 l 499 -442 q 479 -459 453 -468 q 426 -478 381 -478 l 381 -478 q 314 -478 263 -449 q 212 -421 183 -367 q 154 -314 154 -240 l 154 -240 l 154 -234 q 154 -178 167 -143 q 180 -108 203 -92 q 225 -77 254 -77 l 254 -77 q 277 -77 293 -87 q 309 -97 318 -116 q 327 -135 327 -163 l 327 -163 q 327 -206 307 -228 q 286 -251 247 -251 l 247 -251 q 209 -251 175 -231 q 140 -211 108 -175 l 108 -175 l 95 -260 q 123 -291 171 -315 q 218 -340 275 -340 l 275 -340 q 328 -340 367 -319 q 406 -299 427 -261 q 447 -223 447 -171 l 447 -171 q 447 -114 424 -73 q 401 -32 359 -10 q 316 12 257 12 l 257 12 q 200 12 150 -14 q 100 -40 70 -96 q 39 -152 39 -242 l 39 -242 q 39 -349 85 -422 q 131 -495 209 -533 q 287 -571 384 -571 z m 849 -571 l 849 -571 q 939 -571 1007 -541 q 1074 -511 1117 -458 q 1160 -406 1175 -336 l 1175 -336 q 1182 -311 1185 -283 q 1187 -256 1187 -227 l 1187 -227 q 1187 -145 1160 -92 q 1133 -39 1082 -13 q 1031 12 960 12 l 960 12 q 890 12 845 -14 q 799 -41 777 -84 q 754 -127 754 -178 l 754 -178 q 754 -280 828 -337 q 902 -394 1035 -394 l 1035 -394 q 1054 -394 1069 -393 q 1084 -393 1097 -391 l 1097 -391 l 1131 -388 q 1212 -375 1269 -334 q 1326 -293 1357 -232 q 1387 -171 1387 -97 l 1387 -97 q 1387 -33 1368 22 q 1348 76 1308 116 q 1267 156 1205 179 q 1142 201 1057 201 l 1057 201 q 1005 201 961 193 q 916 185 881 173 l 881 173 l 917 83 q 947 95 980 101 q 1012 106 1055 106 l 1055 106 q 1116 106 1157 90 q 1197 73 1222 44 q 1246 15 1257 -21 q 1267 -58 1267 -97 l 1267 -97 q 1267 -147 1254 -183 q 1240 -220 1215 -246 q 1189 -272 1154 -289 l 1154 -289 l 1116 -295 q 1099 -301 1080 -303 q 1060 -305 1040 -305 l 1040 -305 q 986 -305 949 -290 q 912 -275 894 -246 q 876 -218 876 -176 l 876 -176 q 876 -150 885 -128 q 894 -106 914 -92 q 934 -79 965 -79 l 965 -79 q 1017 -79 1044 -115 q 1070 -151 1070 -228 l 1070 -228 q 1070 -260 1065 -290 q 1060 -321 1050 -346 l 1050 -346 l 1044 -369 q 1028 -402 1001 -426 q 974 -451 936 -464 q 897 -477 845 -477 l 845 -477 q 811 -477 781 -469 q 750 -461 724 -440 l 724 -440 q 707 -425 694 -404 q 681 -383 674 -349 q 667 -315 667 -259 l 667 -259 l 667 -208 l 592 -462 q 620 -494 656 -518 q 691 -543 739 -557 q 787 -571 849 -571 z"},"ൢ":{"ha":0,"x_min":-886,"x_max":-33,"o":"m -636 -25 l -636 -25 q -578 -25 -530 -7 q -483 10 -451 50 l -451 50 l -411 159 l -411 333 l -513 333 l -513 186 q -513 139 -521 115 q -530 90 -550 75 l -550 75 q -565 63 -587 57 q -610 51 -642 51 l -642 51 q -672 51 -703 60 q -734 68 -757 87 q -780 105 -788 134 l -788 134 q -791 145 -792 156 q -794 166 -794 183 l -794 183 q -794 230 -773 247 q -752 264 -729 264 l -729 264 q -703 264 -687 251 q -672 238 -672 211 l -672 211 q -672 185 -687 172 q -703 159 -731 159 l -731 159 q -762 159 -788 176 q -814 192 -838 215 l -838 215 l -856 155 q -826 127 -788 107 q -750 87 -710 87 l -710 87 q -643 87 -611 121 q -579 155 -579 208 l -579 208 q -579 266 -616 302 q -653 337 -728 337 l -728 337 q -802 337 -844 293 q -886 249 -886 173 l -886 173 q -886 111 -851 67 q -817 22 -760 -1 q -703 -25 -636 -25 z m -284 -24 l -284 -24 q -214 -24 -157 0 q -101 24 -67 69 q -34 113 -34 176 l -34 176 q -34 262 -78 300 q -122 337 -196 337 l -196 337 q -245 337 -278 318 q -311 299 -326 269 q -342 238 -342 203 l -342 203 q -342 164 -326 135 q -311 106 -280 90 q -250 73 -206 73 l -206 73 q -172 73 -144 91 q -116 108 -96 138 q -76 168 -67 207 l -67 207 l -104 205 q -110 181 -130 161 q -151 140 -183 140 l -183 140 q -217 140 -233 157 q -249 173 -249 201 l -249 201 q -249 230 -235 247 q -221 264 -191 264 l -191 264 q -161 264 -144 242 q -127 220 -127 171 l -127 171 q -127 166 -128 157 q -129 147 -131 139 l -131 139 l -139 115 q -148 96 -169 82 q -191 67 -219 59 q -247 51 -279 51 l -279 51 q -314 51 -337 58 q -361 64 -376 77 l -376 77 q -396 95 -403 122 q -411 148 -411 191 l -411 191 l -498 157 q -497 94 -469 55 q -442 15 -394 -4 q -346 -24 -284 -24 z"},"ൣ":{"ha":0,"x_min":-886,"x_max":97,"o":"m -636 -25 l -636 -25 q -578 -25 -530 -7 q -483 10 -451 50 l -451 50 l -411 159 l -411 333 l -513 333 l -513 186 q -513 139 -521 115 q -530 90 -550 75 l -550 75 q -565 63 -587 57 q -610 51 -642 51 l -642 51 q -672 51 -703 60 q -734 68 -757 87 q -780 105 -788 134 l -788 134 q -791 145 -792 156 q -794 166 -794 183 l -794 183 q -794 230 -773 247 q -752 264 -729 264 l -729 264 q -703 264 -687 251 q -672 238 -672 211 l -672 211 q -672 185 -687 172 q -703 159 -731 159 l -731 159 q -762 159 -788 176 q -814 192 -838 215 l -838 215 l -856 155 q -826 127 -788 107 q -750 87 -710 87 l -710 87 q -643 87 -611 121 q -579 155 -579 208 l -579 208 q -579 266 -616 302 q -653 337 -728 337 l -728 337 q -802 337 -844 293 q -886 249 -886 173 l -886 173 q -886 111 -851 67 q -817 22 -760 -1 q -703 -25 -636 -25 z m -284 -24 l -284 -24 q -218 -24 -161 -1 q -105 21 -71 66 q -37 111 -37 177 l -37 177 q -37 231 -56 267 q -75 303 -110 320 q -146 337 -194 337 l -194 337 q -247 337 -280 320 q -313 302 -327 273 q -342 244 -342 210 l -342 210 q -342 146 -294 108 q -247 69 -146 69 l -146 69 q -133 69 -119 70 q -106 70 -92 71 l -92 71 q -46 76 -2 97 q 41 117 69 158 q 97 198 97 266 l 97 266 q 97 293 90 318 q 83 343 72 358 l 72 358 l -14 329 q -7 317 -3 298 q 0 279 0 263 l 0 263 q 0 221 -17 190 q -34 159 -74 146 l -74 146 l -95 144 q -107 142 -119 141 q -132 139 -146 139 l -146 139 q -194 139 -221 158 q -249 177 -249 211 l -249 211 q -249 233 -235 249 q -221 264 -191 264 l -191 264 q -162 264 -145 243 q -128 221 -128 173 l -128 173 q -128 162 -129 149 q -131 136 -135 125 l -135 125 l -145 103 q -158 85 -179 74 q -201 62 -227 57 q -253 51 -279 51 l -279 51 q -314 51 -337 58 q -361 64 -376 77 l -376 77 q -396 95 -403 122 q -411 148 -411 191 l -411 191 l -498 157 q -498 111 -482 77 q -466 42 -437 20 q -408 -3 -369 -13 q -330 -24 -284 -24 z"},"൦":{"ha":603,"x_min":38,"x_max":565,"o":"m 302 -39 l 302 -39 q 222 -39 163 -69 q 103 -100 71 -154 q 38 -209 38 -282 l 38 -282 q 38 -356 72 -410 q 105 -465 164 -495 q 223 -525 301 -525 l 301 -525 q 383 -525 442 -495 q 501 -465 533 -410 q 565 -355 565 -282 l 565 -282 q 565 -210 532 -155 q 499 -100 440 -69 q 381 -39 302 -39 z m 302 -131 l 302 -131 q 341 -131 373 -147 q 404 -164 422 -198 q 440 -232 440 -283 l 440 -283 q 440 -358 401 -395 q 361 -433 301 -433 l 301 -433 q 243 -433 203 -395 q 163 -358 163 -282 l 163 -282 q 163 -207 203 -169 q 242 -131 302 -131 z"},"൧":{"ha":950,"x_min":12,"x_max":890,"o":"m 408 107 l 408 201 l 247 201 q 182 201 141 193 q 99 184 72 168 l 72 168 q 42 149 27 121 q 12 93 12 57 l 12 57 q 12 21 27 -9 q 41 -39 73 -59 l 73 -59 q 89 -70 110 -77 q 131 -84 161 -88 q 190 -92 232 -92 l 232 -92 l 464 -92 l 479 0 l 249 0 q 208 0 190 2 q 172 4 162 10 l 162 10 q 148 16 142 27 q 136 38 136 52 l 136 52 q 136 78 157 92 l 157 92 q 168 100 189 104 q 210 107 252 107 l 252 107 l 408 107 z m 619 -571 l 619 -571 q 685 -571 736 -553 q 786 -536 819 -503 l 819 -503 q 856 -469 873 -419 q 890 -369 890 -288 l 890 -288 l 890 0 l 352 0 l 352 -283 q 352 -342 360 -382 q 367 -423 383 -452 q 399 -481 422 -504 l 422 -504 q 456 -535 506 -553 q 555 -571 619 -571 z m 621 -478 l 621 -478 q 586 -478 560 -468 q 534 -458 516 -440 l 516 -440 q 498 -420 487 -386 q 476 -352 476 -281 l 476 -281 l 476 -92 l 766 -92 l 766 -271 q 766 -345 755 -382 q 744 -420 725 -440 l 725 -440 q 708 -458 682 -468 q 656 -478 621 -478 z"},"൨":{"ha":904,"x_min":38,"x_max":886,"o":"m 361 -571 l 361 -571 q 444 -571 504 -547 q 564 -524 603 -484 q 641 -444 659 -393 q 677 -342 677 -287 l 677 -287 q 677 -227 663 -183 q 648 -140 623 -104 q 597 -69 565 -34 l 565 -34 l 573 -92 l 886 -92 l 886 0 l 492 0 l 449 -66 q 476 -90 500 -119 q 523 -149 537 -187 q 551 -225 551 -276 l 551 -276 q 551 -336 528 -381 q 504 -426 462 -451 q 419 -477 360 -477 l 360 -477 q 300 -477 257 -451 q 214 -426 190 -381 q 166 -336 166 -278 l 166 -278 q 166 -230 179 -191 q 192 -153 216 -121 q 240 -89 276 -60 l 276 -60 l 194 11 q 151 -22 116 -63 q 80 -104 59 -158 q 38 -212 38 -279 l 38 -279 q 38 -337 57 -389 q 76 -441 116 -482 q 156 -523 217 -547 q 278 -571 361 -571 z"},"൩":{"ha":1147,"x_min":38,"x_max":1128,"o":"m 305 -571 l 305 -571 q 351 -571 384 -560 q 416 -550 441 -531 q 465 -513 488 -486 l 488 -486 l 475 -486 q 510 -530 555 -550 q 600 -571 665 -571 l 665 -571 q 747 -571 805 -535 q 863 -499 894 -437 q 924 -375 924 -296 l 924 -296 q 924 -240 913 -196 q 901 -153 878 -115 q 854 -77 818 -37 l 818 -37 l 787 0 l 740 0 l 699 -58 q 732 -95 754 -130 q 776 -165 787 -203 q 798 -242 798 -290 l 798 -290 q 798 -351 780 -392 q 761 -434 729 -456 q 696 -478 655 -478 l 655 -478 q 621 -478 600 -466 q 579 -455 566 -435 l 566 -435 q 553 -416 548 -387 q 543 -359 543 -310 l 543 -310 l 543 0 l 419 0 l 419 -312 q 419 -361 415 -388 q 410 -416 396 -436 l 396 -436 q 384 -456 363 -467 q 341 -478 308 -478 l 308 -478 q 270 -478 237 -456 q 204 -435 184 -394 q 164 -353 164 -293 l 164 -293 q 164 -245 176 -204 q 188 -164 212 -129 q 235 -94 269 -61 l 269 -61 l 182 10 q 138 -30 106 -74 q 73 -119 56 -173 q 38 -227 38 -294 l 38 -294 q 38 -374 70 -436 q 101 -499 161 -535 q 221 -571 305 -571 z m 768 0 l 826 -92 l 1128 -92 l 1128 0 l 768 0 z"},"൪":{"ha":841,"x_min":38,"x_max":836,"o":"m 382 -571 l 382 -571 q 466 -571 529 -549 q 591 -528 641 -484 l 641 -484 q 698 -437 729 -371 q 759 -305 759 -230 l 759 -230 q 759 -154 732 -99 q 705 -45 653 -16 q 600 12 523 12 l 523 12 q 451 12 402 -14 q 352 -41 326 -86 q 300 -132 300 -188 l 300 -188 q 300 -257 331 -306 q 362 -355 420 -396 q 477 -438 558 -483 l 558 -483 q 615 -515 649 -535 q 682 -556 697 -576 q 711 -596 711 -624 l 711 -624 q 711 -639 706 -655 q 700 -672 690 -686 l 690 -686 l 802 -739 q 818 -715 827 -686 q 836 -658 836 -627 l 836 -627 q 836 -577 812 -542 q 788 -507 741 -476 q 693 -446 622 -408 l 622 -408 q 560 -374 517 -342 q 473 -310 449 -273 q 425 -236 425 -187 l 425 -187 q 425 -133 452 -106 q 479 -80 523 -80 l 523 -80 q 560 -80 584 -96 q 608 -112 620 -144 q 632 -176 632 -225 l 632 -225 q 632 -284 607 -343 q 582 -402 528 -439 l 528 -439 q 501 -459 466 -469 q 431 -480 386 -480 l 386 -480 q 316 -480 267 -455 q 217 -431 191 -386 q 165 -342 165 -278 l 165 -278 q 165 -230 178 -191 q 190 -153 215 -121 q 240 -89 274 -60 l 274 -60 l 194 11 q 151 -22 116 -63 q 80 -104 59 -158 q 38 -212 38 -279 l 38 -279 q 38 -337 58 -389 q 78 -441 120 -482 q 161 -523 226 -547 q 291 -571 382 -571 z"},"൫":{"ha":1048,"x_min":43,"x_max":1005,"o":"m 532 -727 l 532 -727 q 652 -727 742 -694 q 831 -661 890 -600 q 948 -540 977 -457 q 1005 -375 1005 -276 l 1005 -276 q 1005 -208 989 -134 q 972 -61 929 12 l 929 12 l 827 -37 q 846 -73 858 -111 q 870 -149 876 -190 q 882 -231 882 -272 l 882 -272 q 882 -348 862 -413 q 841 -478 798 -527 q 755 -577 689 -604 q 623 -632 532 -632 l 532 -632 q 420 -632 338 -588 q 256 -545 211 -461 q 166 -377 166 -257 l 166 -257 q 166 -191 181 -130 q 196 -69 229 -21 q 262 27 317 55 q 372 82 452 82 l 452 82 q 559 82 607 43 q 655 3 655 -66 l 655 -66 q 655 -105 641 -136 q 626 -167 595 -185 q 564 -204 514 -204 l 514 -204 l 501 -204 l 501 -293 l 523 -293 q 559 -293 582 -298 q 605 -303 621 -316 l 621 -316 q 632 -325 639 -339 q 645 -353 645 -372 l 645 -372 q 645 -409 620 -429 q 594 -449 543 -449 l 543 -449 q 492 -449 459 -424 q 426 -400 410 -358 q 394 -316 394 -266 l 394 -266 q 394 -203 413 -150 q 431 -98 468 -49 l 468 -49 l 364 9 q 319 -56 294 -125 q 269 -194 269 -271 l 269 -271 q 269 -353 303 -414 q 337 -475 400 -509 q 462 -543 548 -543 l 548 -543 q 621 -543 670 -521 q 719 -499 744 -462 q 769 -425 769 -379 l 769 -379 q 769 -350 759 -324 q 748 -299 726 -279 q 704 -259 667 -244 l 667 -244 l 655 -254 q 715 -228 747 -179 q 779 -131 779 -63 l 779 -63 q 779 16 741 70 q 702 123 629 150 q 556 177 453 177 l 453 177 q 328 177 236 127 q 143 76 93 -19 q 43 -115 43 -252 l 43 -252 q 43 -374 82 -463 q 120 -553 188 -611 q 255 -670 344 -698 q 432 -727 532 -727 z"},"൬":{"ha":1295,"x_min":38,"x_max":1254,"o":"m 639 -571 l 639 -571 q 702 -571 743 -549 q 784 -528 814 -488 l 814 -488 l 874 -299 l 874 0 l 750 0 l 750 -314 q 750 -366 743 -396 q 736 -427 719 -447 l 719 -447 q 706 -462 687 -470 q 667 -478 639 -478 l 639 -478 q 616 -478 595 -469 q 573 -460 559 -444 l 559 -444 q 543 -424 536 -394 q 528 -364 528 -304 l 528 -304 l 528 0 l 404 0 l 404 -312 q 404 -360 400 -388 q 395 -417 382 -438 l 382 -438 q 370 -457 350 -467 q 330 -478 300 -478 l 300 -478 q 265 -478 234 -457 q 203 -437 184 -396 q 164 -355 164 -293 l 164 -293 q 164 -245 176 -204 q 188 -164 212 -129 q 235 -94 269 -61 l 269 -61 l 182 11 q 138 -30 106 -74 q 73 -119 56 -173 q 38 -227 38 -294 l 38 -294 q 38 -376 69 -438 q 100 -500 158 -535 q 216 -571 296 -571 l 296 -571 q 360 -571 399 -549 q 438 -528 472 -489 l 472 -489 l 461 -487 q 496 -529 540 -550 q 584 -571 639 -571 z m 992 -571 l 992 -571 q 1115 -571 1185 -485 q 1254 -399 1254 -227 l 1254 -227 q 1254 -92 1216 4 q 1177 100 1093 151 q 1009 201 872 201 l 872 201 q 841 201 809 199 q 777 197 746 191 l 746 191 l 756 97 q 778 102 804 104 q 830 106 859 106 l 859 106 q 941 106 993 81 q 1045 55 1075 10 q 1104 -36 1116 -96 q 1127 -157 1127 -227 l 1127 -227 q 1127 -314 1109 -369 q 1090 -425 1058 -451 q 1026 -478 985 -478 l 985 -478 q 953 -478 932 -467 q 910 -457 896 -436 l 896 -436 q 882 -416 878 -386 q 874 -357 874 -299 l 874 -299 l 874 -10 l 760 -10 l 760 -314 l 805 -487 q 843 -532 887 -551 q 930 -571 992 -571 z"},"൭":{"ha":787,"x_min":38,"x_max":746,"o":"m 402 -571 l 402 -571 q 490 -571 555 -545 q 620 -519 663 -471 q 705 -423 726 -356 q 746 -289 746 -206 l 746 -206 q 746 -115 723 -40 q 699 35 650 89 q 601 142 527 172 q 453 201 352 201 l 352 201 q 321 201 289 199 q 256 197 225 191 l 225 191 l 235 97 q 257 102 284 104 q 310 106 340 106 l 340 106 q 420 106 474 82 q 527 57 560 14 q 592 -30 606 -86 q 619 -143 619 -207 l 619 -207 q 619 -341 560 -409 q 500 -477 391 -477 l 391 -477 q 320 -477 266 -445 q 212 -414 182 -360 q 152 -307 152 -239 l 152 -239 l 152 -232 q 152 -177 166 -142 q 179 -108 202 -92 q 225 -77 253 -77 l 253 -77 q 276 -77 293 -87 q 309 -97 318 -116 q 326 -136 326 -163 l 326 -163 q 326 -205 305 -228 q 284 -251 246 -251 l 246 -251 q 210 -251 177 -232 q 144 -214 113 -180 l 113 -180 l 94 -260 q 123 -291 169 -315 q 215 -340 272 -340 l 272 -340 q 327 -340 366 -319 q 404 -299 425 -261 q 446 -223 446 -171 l 446 -171 q 446 -114 423 -73 q 400 -32 358 -10 q 316 12 256 12 l 256 12 q 199 12 149 -14 q 99 -41 69 -96 q 38 -151 38 -239 l 38 -239 q 38 -340 84 -414 q 130 -489 213 -530 q 295 -571 402 -571 z"},"൮":{"ha":1015,"x_min":38,"x_max":949,"o":"m 361 -571 l 361 -571 q 444 -571 504 -547 q 564 -524 603 -484 q 641 -444 659 -393 q 677 -342 677 -287 l 677 -287 q 677 -227 663 -183 q 648 -140 623 -104 q 597 -69 565 -34 l 565 -34 l 573 -92 l 824 -92 l 824 -559 l 949 -559 l 949 -166 l 870 0 l 492 0 l 449 -66 q 476 -90 500 -119 q 523 -149 537 -187 q 551 -225 551 -276 l 551 -276 q 551 -336 528 -381 q 504 -426 462 -451 q 419 -477 360 -477 l 360 -477 q 300 -477 257 -451 q 214 -426 190 -381 q 166 -336 166 -278 l 166 -278 q 166 -230 179 -191 q 192 -153 216 -121 q 240 -89 276 -60 l 276 -60 l 194 11 q 151 -22 116 -63 q 80 -104 59 -158 q 38 -212 38 -279 l 38 -279 q 38 -337 57 -389 q 76 -441 116 -482 q 156 -523 217 -547 q 278 -571 361 -571 z m 602 201 l 602 201 q 573 201 542 199 q 511 196 483 190 l 483 190 l 496 97 q 515 102 540 104 q 564 106 589 106 l 589 106 q 659 106 704 92 q 749 78 775 54 q 800 30 811 0 q 822 -30 823 -60 l 823 -60 l 949 -225 l 949 -130 q 949 -64 940 -17 q 931 30 913 63 q 895 96 867 122 l 867 122 q 825 160 759 181 q 693 201 602 201 z"},"൯":{"ha":1188,"x_min":38,"x_max":1183,"o":"m 305 -571 l 305 -571 q 351 -571 384 -561 q 417 -551 445 -531 q 472 -511 498 -481 l 498 -481 l 543 -230 l 543 0 l 419 0 l 419 -308 q 419 -360 415 -388 q 410 -416 396 -436 l 396 -436 q 384 -456 363 -467 q 341 -478 308 -478 l 308 -478 q 270 -478 237 -456 q 204 -435 184 -394 q 164 -353 164 -293 l 164 -293 q 164 -245 176 -204 q 188 -164 212 -129 q 235 -94 269 -61 l 269 -61 l 182 10 q 138 -30 106 -74 q 73 -119 56 -173 q 38 -227 38 -294 l 38 -294 q 38 -374 70 -436 q 101 -499 161 -535 q 221 -571 305 -571 z m 730 -571 l 730 -571 q 814 -571 877 -549 q 939 -528 989 -484 l 989 -484 q 1045 -437 1076 -371 q 1106 -305 1106 -230 l 1106 -230 q 1106 -154 1080 -99 q 1053 -45 1001 -16 q 948 12 871 12 l 871 12 q 799 12 750 -14 q 700 -41 674 -86 q 648 -132 648 -188 l 648 -188 q 648 -257 679 -306 q 709 -355 767 -396 q 825 -438 906 -483 l 906 -483 q 963 -515 996 -535 q 1029 -556 1044 -576 q 1058 -596 1058 -624 l 1058 -624 q 1058 -639 1053 -655 q 1048 -672 1037 -686 l 1037 -686 l 1150 -739 q 1166 -715 1175 -686 q 1183 -658 1183 -627 l 1183 -627 q 1183 -577 1159 -542 q 1135 -507 1088 -476 q 1041 -446 970 -408 l 970 -408 q 908 -374 864 -342 q 820 -310 797 -273 q 773 -236 773 -187 l 773 -187 q 773 -133 800 -106 q 827 -80 870 -80 l 870 -80 q 908 -80 932 -96 q 956 -112 968 -144 q 979 -176 979 -225 l 979 -225 q 979 -284 954 -343 q 929 -402 876 -439 l 876 -439 q 849 -459 814 -469 q 779 -480 731 -480 l 731 -480 q 686 -480 656 -470 q 625 -461 602 -442 l 602 -442 q 584 -427 571 -405 q 557 -383 550 -347 q 543 -311 543 -254 l 543 -254 l 543 -50 l 430 -50 l 430 -299 l 469 -461 q 496 -495 532 -519 q 567 -544 616 -557 q 664 -571 730 -571 z"},"൰":{"ha":1117,"x_min":-37,"x_max":1079,"o":"m 221 -559 l 345 -559 l 345 -147 l 342 -120 q 342 -34 326 24 q 309 81 276 121 l 276 121 q 242 160 189 181 q 135 201 60 201 l 60 201 q 37 201 12 199 q -14 196 -37 190 l -37 190 l -26 97 q -12 101 6 104 q 24 106 44 106 l 44 106 q 94 106 127 93 q 160 80 179 59 l 179 59 q 201 35 211 0 q 221 -36 221 -98 l 221 -98 l 221 -559 z m 818 12 l 818 12 q 754 12 711 -9 q 667 -30 632 -72 l 632 -72 l 643 -74 q 607 -30 563 -9 q 518 12 461 12 l 461 12 q 417 12 385 1 q 353 -11 329 -32 q 305 -54 285 -84 l 285 -84 l 250 -258 l 250 -548 l 345 -548 l 345 -246 q 345 -194 352 -163 q 358 -132 376 -112 l 376 -112 q 389 -98 410 -89 q 431 -81 461 -81 l 461 -81 q 489 -81 510 -90 q 531 -100 545 -115 l 545 -115 q 562 -136 570 -166 q 577 -196 577 -256 l 577 -256 l 577 -559 l 701 -559 l 701 -261 q 701 -204 706 -174 q 710 -145 724 -124 l 724 -124 q 739 -103 762 -92 q 785 -81 811 -81 l 811 -81 q 852 -81 884 -103 q 916 -126 935 -168 q 953 -211 953 -269 l 953 -269 q 953 -317 941 -356 q 929 -396 906 -431 q 882 -467 848 -499 l 848 -499 l 935 -570 q 980 -530 1012 -485 q 1044 -440 1062 -386 q 1079 -332 1079 -263 l 1079 -263 q 1079 -186 1049 -123 q 1018 -61 960 -24 q 902 12 818 12 z"},"൱":{"ha":964,"x_min":38,"x_max":923,"o":"m 305 -571 l 305 -571 q 351 -571 384 -560 q 416 -550 441 -531 q 465 -513 488 -486 l 488 -486 l 543 -230 l 543 0 l 419 0 l 419 -308 q 419 -360 415 -388 q 410 -416 396 -436 l 396 -436 q 384 -456 363 -467 q 341 -478 308 -478 l 308 -478 q 270 -478 237 -456 q 204 -435 184 -394 q 164 -353 164 -293 l 164 -293 q 164 -245 176 -204 q 188 -164 212 -129 q 235 -94 269 -61 l 269 -61 l 182 10 q 138 -30 106 -74 q 73 -119 56 -173 q 38 -227 38 -294 l 38 -294 q 38 -374 70 -436 q 101 -499 161 -535 q 221 -571 305 -571 z m 662 -571 l 662 -571 q 744 -571 803 -532 q 861 -494 892 -418 q 923 -342 923 -227 l 923 -227 q 923 -92 885 4 q 846 100 763 151 q 679 201 541 201 l 541 201 q 510 201 479 199 q 447 197 416 191 l 416 191 l 426 97 q 447 102 474 104 q 500 106 529 106 l 529 106 q 610 106 663 81 q 715 55 745 10 q 774 -36 785 -96 q 796 -157 796 -227 l 796 -227 q 796 -314 778 -369 q 760 -425 728 -451 q 696 -478 655 -478 l 655 -478 q 623 -478 602 -467 q 580 -457 566 -436 l 566 -436 q 552 -416 548 -386 q 543 -357 543 -299 l 543 -299 l 543 -10 l 429 -10 l 429 -314 l 475 -487 q 513 -532 557 -551 q 600 -571 662 -571 z"},"൲":{"ha":1499,"x_min":38,"x_max":1479,"o":"m 1294 -559 l 1294 -559 q 1360 -559 1401 -537 q 1441 -516 1460 -481 q 1479 -447 1479 -408 l 1479 -408 q 1479 -364 1464 -334 q 1448 -305 1421 -286 l 1421 -286 q 1401 -272 1377 -263 q 1353 -255 1321 -251 q 1289 -248 1245 -248 l 1245 -248 l 1021 -248 l 1021 -340 l 1244 -340 q 1279 -340 1299 -343 q 1318 -346 1329 -351 l 1329 -351 q 1346 -358 1355 -371 q 1363 -384 1363 -406 l 1363 -406 q 1363 -434 1346 -451 q 1329 -469 1295 -469 l 1295 -469 q 1258 -469 1239 -448 q 1219 -427 1219 -391 l 1219 -391 q 1219 -359 1230 -336 q 1241 -313 1260 -292 l 1260 -292 l 1146 -287 q 1130 -309 1119 -340 q 1107 -372 1107 -405 l 1107 -405 q 1107 -455 1132 -489 q 1156 -524 1199 -541 q 1241 -559 1294 -559 z m 305 -571 l 305 -571 q 351 -571 384 -561 q 416 -551 443 -531 q 470 -512 497 -481 l 497 -481 l 543 -230 l 543 0 l 419 0 l 419 -308 q 419 -360 415 -388 q 410 -416 396 -436 l 396 -436 q 384 -456 363 -467 q 341 -478 308 -478 l 308 -478 q 270 -478 237 -456 q 204 -435 184 -394 q 164 -353 164 -293 l 164 -293 q 164 -245 176 -204 q 188 -164 212 -129 q 235 -94 269 -61 l 269 -61 l 182 10 q 138 -30 106 -74 q 73 -119 56 -173 q 38 -227 38 -294 l 38 -294 q 38 -374 70 -436 q 101 -499 161 -535 q 221 -571 305 -571 z m 714 -571 l 714 -571 q 786 -571 846 -548 q 906 -525 951 -482 q 996 -439 1021 -377 q 1045 -316 1045 -239 l 1045 -239 q 1045 -152 1016 -96 q 987 -40 936 -14 q 884 12 813 12 l 813 12 q 741 12 697 -12 q 652 -37 632 -76 q 612 -115 612 -158 l 612 -158 q 612 -206 633 -242 q 653 -278 687 -299 l 687 -299 q 710 -314 737 -323 q 763 -332 803 -336 q 842 -340 902 -340 l 902 -340 l 1177 -340 l 1177 -248 l 909 -248 q 850 -248 820 -243 q 789 -239 767 -224 l 767 -224 q 752 -215 743 -199 q 734 -183 734 -159 l 734 -159 q 734 -125 755 -102 q 775 -80 817 -80 l 817 -80 q 851 -80 875 -96 q 899 -113 912 -149 q 924 -185 924 -242 l 924 -242 q 924 -256 923 -272 q 921 -289 919 -303 l 919 -303 l 914 -328 q 905 -369 879 -403 q 853 -437 811 -457 q 769 -478 712 -478 l 712 -478 q 680 -478 653 -470 q 625 -462 603 -445 l 603 -445 q 583 -431 570 -409 q 557 -387 550 -352 q 543 -317 543 -261 l 543 -261 l 543 -208 l 468 -219 l 465 -461 q 491 -492 525 -517 q 559 -542 605 -556 q 651 -571 714 -571 z"},"൳":{"ha":801,"x_min":38,"x_max":779,"o":"m 254 12 l 254 12 q 193 12 144 -15 q 94 -42 66 -94 q 38 -146 38 -219 l 38 -219 q 38 -311 71 -371 q 103 -431 163 -467 l 163 -467 q 202 -490 245 -502 q 288 -515 343 -520 q 397 -525 469 -525 l 469 -525 l 779 -525 l 779 -429 l 497 -429 q 419 -429 368 -425 q 317 -421 284 -411 q 250 -402 223 -384 l 223 -384 q 198 -367 181 -342 q 164 -318 156 -284 l 156 -284 l 155 -262 q 154 -252 153 -240 q 152 -229 152 -215 l 152 -215 q 152 -168 165 -137 q 178 -106 200 -91 q 222 -77 251 -77 l 251 -77 q 275 -77 292 -87 q 309 -97 318 -116 q 326 -135 326 -163 l 326 -163 q 326 -205 305 -228 q 284 -251 246 -251 l 246 -251 q 210 -251 177 -232 q 144 -214 113 -180 l 113 -180 l 107 -273 q 135 -299 178 -319 q 220 -340 272 -340 l 272 -340 q 327 -340 366 -319 q 404 -299 425 -261 q 446 -223 446 -171 l 446 -171 q 446 -114 424 -73 q 401 -32 358 -10 q 315 12 254 12 z"},"൴":{"ha":986,"x_min":38,"x_max":948,"o":"m 508 -790 l 632 -790 l 632 -240 q 632 -199 635 -174 q 638 -149 644 -133 q 649 -118 658 -108 l 658 -108 q 669 -92 686 -85 q 703 -79 726 -79 l 726 -79 q 758 -79 779 -94 q 800 -109 811 -138 q 821 -168 821 -211 l 821 -211 q 821 -264 805 -308 q 789 -353 759 -386 q 728 -420 684 -442 q 639 -465 581 -473 l 581 -473 l 551 -474 q 533 -476 515 -477 q 496 -478 476 -478 l 476 -478 q 406 -478 347 -462 q 288 -447 245 -416 q 201 -386 177 -343 q 152 -300 152 -246 l 152 -246 l 152 -232 q 152 -177 166 -142 q 179 -108 202 -92 q 224 -77 253 -77 l 253 -77 q 276 -77 293 -87 q 309 -97 318 -116 q 326 -135 326 -164 l 326 -164 q 326 -205 305 -228 q 284 -251 246 -251 l 246 -251 q 210 -251 177 -232 q 144 -214 113 -180 l 113 -180 l 107 -273 q 135 -299 178 -319 q 220 -340 272 -340 l 272 -340 q 327 -340 366 -319 q 404 -299 425 -261 q 446 -223 446 -171 l 446 -171 q 446 -114 423 -73 q 400 -32 358 -10 q 316 12 256 12 l 256 12 q 199 12 149 -14 q 99 -40 69 -94 q 38 -149 38 -235 l 38 -235 q 38 -313 69 -375 q 99 -437 157 -481 q 214 -525 295 -548 q 375 -571 474 -571 l 474 -571 q 497 -571 519 -570 q 540 -570 561 -568 l 561 -568 l 600 -565 q 676 -556 740 -528 q 803 -501 850 -456 q 897 -412 923 -352 q 948 -292 948 -218 l 948 -218 q 948 -148 923 -96 q 898 -44 848 -16 q 797 12 723 12 l 723 12 q 677 12 639 0 q 601 -12 574 -35 l 574 -35 q 553 -54 539 -79 q 524 -105 516 -145 q 508 -186 508 -249 l 508 -249 l 508 -790 z"},"൵":{"ha":1312,"x_min":39,"x_max":1307,"o":"m 384 -571 l 384 -571 q 471 -571 528 -544 q 585 -518 630 -468 l 630 -468 l 642 -392 l 667 -227 l 667 0 l 543 0 l 543 -283 q 543 -353 532 -388 q 520 -423 499 -442 l 499 -442 q 479 -459 453 -468 q 426 -478 381 -478 l 381 -478 q 314 -478 263 -449 q 212 -421 183 -367 q 154 -314 154 -240 l 154 -240 l 154 -234 q 154 -178 167 -143 q 180 -108 203 -92 q 225 -77 254 -77 l 254 -77 q 277 -77 293 -87 q 309 -97 318 -116 q 327 -135 327 -163 l 327 -163 q 327 -206 307 -228 q 286 -251 247 -251 l 247 -251 q 209 -251 175 -231 q 140 -211 108 -175 l 108 -175 l 95 -260 q 123 -291 171 -315 q 218 -340 275 -340 l 275 -340 q 328 -340 367 -319 q 406 -299 427 -261 q 447 -223 447 -171 l 447 -171 q 447 -114 424 -73 q 401 -32 359 -10 q 316 12 257 12 l 257 12 q 200 12 150 -14 q 100 -40 70 -96 q 39 -152 39 -242 l 39 -242 q 39 -349 85 -422 q 131 -495 209 -533 q 287 -571 384 -571 z m 854 -571 l 854 -571 q 938 -571 1000 -549 q 1062 -528 1113 -484 l 1113 -484 q 1169 -437 1200 -371 q 1230 -305 1230 -230 l 1230 -230 q 1230 -154 1204 -99 q 1177 -45 1125 -16 q 1072 12 995 12 l 995 12 q 923 12 874 -14 q 824 -41 798 -86 q 772 -132 772 -188 l 772 -188 q 772 -257 803 -306 q 833 -355 891 -396 q 949 -438 1030 -483 l 1030 -483 q 1087 -515 1120 -535 q 1153 -556 1168 -576 q 1182 -596 1182 -624 l 1182 -624 q 1182 -639 1177 -655 q 1171 -672 1161 -686 l 1161 -686 l 1274 -739 q 1290 -715 1299 -686 q 1307 -658 1307 -627 l 1307 -627 q 1307 -577 1283 -542 q 1259 -507 1212 -476 q 1165 -446 1094 -408 l 1094 -408 q 1032 -374 988 -342 q 944 -310 921 -273 q 897 -236 897 -187 l 897 -187 q 897 -133 924 -106 q 951 -80 994 -80 l 994 -80 q 1032 -80 1056 -96 q 1080 -112 1092 -144 q 1103 -176 1103 -225 l 1103 -225 q 1103 -284 1078 -343 q 1053 -402 1000 -439 l 1000 -439 q 973 -459 938 -469 q 903 -480 855 -480 l 855 -480 q 810 -480 780 -470 q 749 -461 726 -442 l 726 -442 q 708 -427 695 -405 q 681 -383 674 -347 q 667 -311 667 -254 l 667 -254 l 667 -50 l 554 -50 l 554 -299 l 593 -461 q 620 -495 655 -519 q 690 -544 739 -557 q 788 -571 854 -571 z"},"൶":{"ha":1447,"x_min":30,"x_max":1389,"o":"m 251 -356 l 251 -356 q 328 -356 376 -328 q 424 -301 448 -259 q 471 -217 471 -172 l 471 -172 q 471 -137 461 -109 q 450 -82 437 -64 l 437 -64 l 421 -92 l 773 -92 l 772 0 l 356 0 l 313 -56 q 328 -74 339 -99 q 350 -124 350 -160 l 350 -160 q 350 -205 326 -235 q 301 -265 252 -265 l 252 -265 q 220 -265 198 -251 q 175 -238 164 -214 q 153 -191 153 -163 l 153 -163 q 153 -124 167 -97 q 181 -70 203 -47 l 203 -47 l 115 10 q 76 -27 53 -70 q 30 -113 30 -168 l 30 -168 q 30 -225 58 -267 q 86 -309 136 -332 q 186 -356 251 -356 z m 1048 -571 l 1048 -571 q 1136 -571 1199 -551 q 1261 -532 1302 -497 l 1302 -497 q 1333 -471 1352 -438 q 1371 -406 1380 -362 q 1389 -318 1389 -259 l 1389 -259 l 1389 0 l 725 0 l 725 -261 q 725 -317 734 -360 q 743 -404 762 -437 q 781 -471 810 -496 l 810 -496 q 851 -532 908 -551 q 965 -571 1048 -571 z m 984 -478 l 984 -478 q 950 -478 923 -460 q 896 -442 879 -412 l 879 -412 q 865 -387 857 -351 q 849 -316 849 -264 l 849 -264 l 849 -68 l 829 -69 q 892 -120 943 -174 q 993 -228 1023 -284 q 1052 -340 1052 -396 l 1052 -396 q 1052 -419 1046 -437 q 1039 -456 1025 -467 q 1010 -478 984 -478 z m 1175 -379 l 1175 -379 q 1175 -327 1153 -276 q 1130 -226 1090 -176 q 1049 -127 995 -76 l 995 -76 l 978 -87 q 1004 -89 1031 -90 q 1058 -92 1077 -92 l 1077 -92 l 1265 -92 l 1265 -252 q 1265 -320 1252 -364 q 1239 -409 1211 -437 q 1182 -465 1133 -482 l 1133 -482 l 1136 -487 q 1151 -469 1163 -443 q 1175 -418 1175 -379 z"},"൷":{"ha":1836,"x_min":30,"x_max":1816,"o":"m 251 -356 l 251 -356 q 328 -356 376 -328 q 424 -301 448 -259 q 471 -217 471 -172 l 471 -172 q 471 -137 461 -109 q 450 -82 437 -64 l 437 -64 l 421 -92 l 713 -92 l 763 0 l 356 0 l 313 -56 q 328 -74 339 -99 q 350 -124 350 -160 l 350 -160 q 350 -205 326 -235 q 301 -265 252 -265 l 252 -265 q 220 -265 198 -251 q 175 -238 164 -214 q 153 -191 153 -163 l 153 -163 q 153 -124 167 -97 q 181 -70 203 -47 l 203 -47 l 115 10 q 76 -27 53 -70 q 30 -113 30 -168 l 30 -168 q 30 -225 58 -267 q 86 -309 136 -332 q 186 -356 251 -356 z m 857 -571 l 857 -571 q 902 -571 935 -561 q 968 -551 995 -531 q 1022 -512 1049 -481 l 1049 -481 l 1095 -258 l 1095 -230 l 971 -230 l 971 -308 q 971 -360 966 -388 q 961 -416 948 -436 l 948 -436 q 935 -456 914 -467 q 893 -478 860 -478 l 860 -478 q 822 -478 789 -456 q 756 -435 736 -394 q 716 -353 716 -293 l 716 -293 q 716 -225 741 -169 q 765 -114 815 -58 l 815 -58 l 774 0 l 698 0 l 662 -77 q 640 -106 624 -139 q 607 -173 599 -211 q 590 -250 590 -294 l 590 -294 q 590 -374 622 -436 q 653 -499 713 -535 q 772 -571 857 -571 z m 1277 -571 l 1277 -571 q 1350 -571 1412 -548 q 1473 -525 1519 -482 q 1564 -439 1589 -377 q 1613 -316 1613 -239 l 1613 -239 q 1613 -152 1585 -96 q 1556 -40 1505 -14 q 1453 12 1382 12 l 1382 12 q 1310 12 1266 -12 q 1221 -37 1201 -75 q 1181 -114 1181 -158 l 1181 -158 q 1181 -206 1201 -242 q 1221 -278 1255 -299 l 1255 -299 q 1278 -314 1305 -323 q 1332 -332 1372 -336 q 1411 -340 1470 -340 l 1470 -340 l 1545 -340 l 1545 -248 l 1477 -248 q 1419 -248 1389 -243 q 1358 -239 1335 -224 l 1335 -224 q 1320 -215 1312 -199 q 1303 -183 1303 -159 l 1303 -159 q 1303 -125 1323 -102 q 1343 -80 1386 -80 l 1386 -80 q 1420 -80 1444 -96 q 1467 -113 1480 -149 q 1492 -185 1492 -242 l 1492 -242 q 1492 -256 1491 -272 q 1490 -289 1487 -303 l 1487 -303 l 1483 -328 q 1474 -369 1447 -403 q 1420 -437 1376 -457 q 1332 -478 1272 -478 l 1272 -478 q 1232 -478 1205 -470 q 1178 -463 1155 -445 l 1155 -445 q 1136 -431 1123 -409 q 1109 -387 1102 -352 q 1095 -317 1095 -261 l 1095 -261 l 1095 -245 l 1020 -246 l 1020 -464 q 1045 -495 1080 -519 q 1115 -543 1164 -557 q 1212 -571 1277 -571 z m 1685 -448 l 1805 -469 q 1810 -456 1813 -437 q 1816 -419 1816 -400 l 1816 -400 q 1816 -361 1801 -332 q 1786 -304 1758 -285 l 1758 -285 q 1727 -265 1689 -256 q 1650 -248 1585 -248 l 1585 -248 l 1552 -248 l 1552 -340 l 1578 -340 q 1609 -340 1629 -343 q 1649 -346 1663 -353 l 1663 -353 q 1677 -360 1685 -375 q 1692 -390 1692 -411 l 1692 -411 q 1692 -419 1690 -430 q 1688 -441 1685 -448 l 1685 -448 z"},"൸":{"ha":2304,"x_min":9,"x_max":2246,"o":"m 1478 -571 l 1478 -571 q 1514 -571 1543 -563 q 1572 -555 1596 -540 q 1619 -526 1638 -506 q 1657 -486 1673 -461 l 1673 -461 l 1641 -462 q 1669 -498 1708 -522 q 1746 -546 1796 -558 q 1845 -571 1905 -571 l 1905 -571 q 1993 -571 2056 -551 q 2118 -532 2159 -497 l 2159 -497 q 2190 -471 2209 -438 q 2228 -406 2237 -362 q 2246 -318 2246 -259 l 2246 -259 l 2246 0 l 1708 0 l 1708 -88 q 1766 -136 1812 -187 q 1857 -239 1883 -292 q 1909 -345 1909 -396 l 1909 -396 q 1909 -419 1903 -437 q 1896 -456 1881 -467 q 1865 -478 1839 -478 l 1839 -478 q 1805 -478 1779 -461 q 1753 -445 1738 -417 l 1738 -417 q 1722 -390 1717 -355 q 1711 -320 1711 -271 l 1711 -271 l 1711 -230 l 1586 -230 l 1586 -290 q 1586 -354 1581 -387 q 1575 -420 1561 -440 l 1561 -440 q 1549 -459 1529 -468 q 1509 -477 1483 -477 l 1483 -477 q 1456 -477 1437 -468 q 1417 -460 1404 -441 l 1404 -441 q 1391 -420 1385 -386 q 1379 -353 1379 -288 l 1379 -288 l 1379 -257 q 1379 -203 1373 -164 q 1366 -125 1354 -98 q 1342 -72 1324 -52 l 1324 -52 q 1296 -20 1253 -4 q 1210 12 1149 12 l 1149 12 q 1089 12 1046 -4 q 1003 -20 975 -51 l 975 -51 q 958 -72 946 -98 q 933 -125 926 -163 q 919 -202 919 -257 l 919 -257 l 919 -293 q 919 -356 914 -388 q 908 -420 894 -440 l 894 -440 q 882 -459 863 -468 q 843 -477 817 -477 l 817 -477 q 790 -477 770 -468 q 750 -460 737 -441 l 737 -441 q 724 -420 718 -386 q 712 -353 712 -288 l 712 -288 l 712 -250 q 712 -176 698 -130 q 684 -85 655 -54 l 655 -54 q 624 -21 582 -4 q 540 12 481 12 l 481 12 q 412 12 369 -13 q 326 -38 295 -80 l 295 -80 l 310 -73 q 287 -46 261 -26 q 234 -7 202 3 q 169 12 127 12 l 127 12 q 93 12 66 5 q 38 -2 9 -17 l 9 -17 l 43 -105 q 61 -95 82 -88 q 103 -81 130 -81 l 130 -81 q 157 -81 180 -92 q 203 -103 217 -125 l 217 -125 q 232 -146 236 -174 q 239 -202 239 -260 l 239 -260 l 239 -555 l 364 -559 l 364 -246 q 364 -194 371 -163 q 378 -132 395 -113 l 395 -113 q 407 -99 428 -90 q 449 -82 474 -82 l 474 -82 q 506 -82 528 -93 q 549 -104 561 -123 l 561 -123 q 576 -145 581 -179 q 586 -213 586 -281 l 586 -281 l 586 -303 q 586 -357 593 -395 q 599 -434 612 -461 q 624 -488 641 -507 l 641 -507 q 669 -539 712 -555 q 755 -571 815 -571 l 815 -571 q 874 -571 918 -555 q 962 -540 990 -508 l 990 -508 q 1008 -488 1020 -461 q 1032 -434 1039 -395 q 1046 -357 1046 -302 l 1046 -302 l 1046 -269 q 1046 -205 1052 -172 q 1057 -139 1071 -119 l 1071 -119 q 1083 -100 1103 -91 q 1123 -82 1149 -82 l 1149 -82 q 1176 -82 1196 -91 q 1215 -100 1228 -118 l 1228 -118 q 1241 -139 1247 -172 q 1253 -205 1253 -267 l 1253 -267 l 1253 -303 q 1253 -357 1260 -395 q 1266 -434 1279 -461 q 1291 -488 1308 -507 l 1308 -507 q 1336 -539 1379 -555 q 1421 -571 1478 -571 z m 2032 -379 l 2032 -379 q 2032 -327 2010 -276 q 1987 -226 1947 -176 q 1906 -127 1852 -76 l 1852 -76 l 1835 -87 q 1861 -89 1888 -90 q 1915 -92 1934 -92 l 1934 -92 l 2122 -92 l 2122 -252 q 2122 -320 2109 -364 q 2096 -409 2068 -437 q 2039 -465 1990 -482 l 1990 -482 l 1993 -487 q 2008 -469 2020 -443 q 2032 -418 2032 -379 z"},"൹":{"ha":1199,"x_min":38,"x_max":1177,"o":"m 305 -571 l 305 -571 q 351 -571 384 -561 q 416 -551 443 -531 q 470 -512 497 -481 l 497 -481 l 543 -230 l 543 0 l 419 0 l 419 -308 q 419 -360 415 -388 q 410 -416 396 -436 l 396 -436 q 384 -456 363 -467 q 341 -478 308 -478 l 308 -478 q 270 -478 237 -456 q 204 -435 184 -394 q 164 -353 164 -293 l 164 -293 q 164 -245 176 -204 q 188 -164 212 -129 q 235 -94 269 -61 l 269 -61 l 182 10 q 138 -30 106 -74 q 73 -119 56 -173 q 38 -227 38 -294 l 38 -294 q 38 -374 70 -436 q 101 -499 161 -535 q 221 -571 305 -571 z m 714 -571 l 714 -571 q 786 -571 846 -548 q 906 -525 951 -482 q 996 -439 1021 -377 q 1045 -316 1045 -239 l 1045 -239 q 1045 -152 1016 -96 q 987 -40 936 -14 q 884 12 813 12 l 813 12 q 741 12 697 -12 q 652 -37 632 -76 q 612 -115 612 -158 l 612 -158 q 612 -206 633 -242 q 653 -278 687 -299 l 687 -299 q 710 -314 737 -323 q 763 -332 803 -336 q 842 -340 902 -340 l 902 -340 l 1177 -340 l 1177 -248 l 909 -248 q 850 -248 820 -243 q 789 -239 767 -224 l 767 -224 q 752 -215 743 -199 q 734 -183 734 -159 l 734 -159 q 734 -125 755 -102 q 775 -80 817 -80 l 817 -80 q 851 -80 875 -96 q 899 -113 912 -149 q 924 -185 924 -242 l 924 -242 q 924 -256 923 -272 q 921 -289 919 -303 l 919 -303 l 914 -328 q 905 -369 879 -403 q 853 -437 811 -457 q 769 -478 712 -478 l 712 -478 q 680 -478 653 -470 q 625 -462 603 -445 l 603 -445 q 583 -431 570 -409 q 557 -387 550 -352 q 543 -317 543 -261 l 543 -261 l 543 -208 l 468 -219 l 465 -461 q 491 -492 525 -517 q 559 -542 605 -556 q 651 -571 714 -571 z"},"ൺ":{"ha":1617,"x_min":39,"x_max":1580,"o":"m 384 -571 l 384 -571 q 471 -571 528 -545 q 584 -519 627 -471 l 627 -471 l 599 -486 q 633 -529 680 -550 q 727 -571 784 -571 l 784 -571 q 855 -571 899 -546 q 942 -522 977 -478 l 977 -478 l 973 -442 l 1024 -297 l 1024 0 l 900 0 l 900 -313 q 900 -365 894 -396 q 887 -427 869 -447 l 869 -447 q 856 -462 835 -470 q 814 -478 784 -478 l 784 -478 q 757 -478 736 -468 q 715 -459 700 -444 l 700 -444 q 683 -424 676 -393 q 668 -363 668 -303 l 668 -303 l 668 0 l 544 0 l 544 -280 q 544 -352 532 -387 q 520 -423 499 -442 l 499 -442 q 479 -459 452 -468 q 424 -478 381 -478 l 381 -478 q 314 -478 263 -449 q 212 -421 183 -367 q 154 -314 154 -240 l 154 -240 l 154 -234 q 154 -178 167 -143 q 180 -108 203 -92 q 225 -77 254 -77 l 254 -77 q 277 -77 293 -87 q 309 -97 318 -116 q 327 -135 327 -163 l 327 -163 q 327 -206 307 -228 q 286 -251 247 -251 l 247 -251 q 209 -251 175 -231 q 140 -211 108 -175 l 108 -175 l 95 -260 q 123 -291 171 -315 q 218 -340 275 -340 l 275 -340 q 328 -340 367 -319 q 406 -299 427 -261 q 447 -223 447 -171 l 447 -171 q 447 -114 424 -73 q 401 -32 359 -10 q 316 12 257 12 l 257 12 q 200 12 150 -14 q 100 -40 70 -96 q 39 -152 39 -242 l 39 -242 q 39 -349 85 -422 q 131 -495 209 -533 q 287 -571 384 -571 z m 1356 12 l 1356 12 q 1285 12 1236 -15 q 1187 -43 1162 -95 q 1137 -148 1137 -223 l 1137 -223 q 1137 -270 1152 -315 q 1167 -361 1201 -406 q 1234 -452 1288 -497 l 1288 -497 l 1308 -525 q 1345 -556 1367 -583 q 1388 -610 1388 -644 l 1388 -644 q 1388 -670 1372 -687 q 1356 -704 1317 -704 l 1317 -704 q 1297 -704 1279 -701 q 1260 -698 1248 -695 l 1248 -695 l 1225 -780 q 1246 -787 1281 -792 q 1316 -797 1353 -797 l 1353 -797 q 1416 -797 1451 -776 q 1486 -755 1499 -724 q 1512 -694 1512 -666 l 1512 -666 q 1512 -613 1484 -568 q 1455 -523 1401 -478 l 1401 -478 l 1383 -458 q 1340 -423 1313 -383 q 1286 -344 1274 -302 q 1261 -260 1261 -219 l 1261 -219 q 1261 -171 1273 -140 q 1284 -109 1306 -94 q 1327 -80 1357 -80 l 1357 -80 q 1404 -80 1429 -114 q 1453 -148 1453 -221 l 1453 -221 q 1453 -266 1440 -310 q 1426 -355 1399 -392 q 1372 -429 1330 -452 l 1330 -452 q 1307 -465 1281 -472 q 1255 -480 1215 -480 l 1215 -480 q 1171 -480 1139 -471 q 1106 -462 1083 -443 l 1083 -443 q 1065 -428 1052 -405 q 1039 -383 1032 -347 q 1024 -311 1024 -254 l 1024 -254 l 1024 -100 l 910 -100 l 910 -287 l 950 -462 q 977 -495 1012 -519 q 1047 -544 1096 -557 q 1145 -571 1212 -571 l 1212 -571 q 1260 -571 1302 -563 q 1343 -555 1379 -538 l 1379 -538 q 1383 -537 1388 -534 q 1392 -532 1396 -530 l 1396 -530 q 1458 -499 1499 -450 q 1539 -402 1560 -345 q 1580 -288 1580 -228 l 1580 -228 q 1580 -115 1523 -51 q 1466 12 1356 12 z"},"ൻ":{"ha":1136,"x_min":38,"x_max":1098,"o":"m 305 -571 l 305 -571 q 351 -571 384 -561 q 417 -551 445 -531 q 472 -511 498 -481 l 498 -481 l 543 -230 l 543 0 l 419 0 l 419 -308 q 419 -360 415 -388 q 410 -416 396 -436 l 396 -436 q 384 -456 363 -467 q 341 -478 308 -478 l 308 -478 q 270 -478 237 -456 q 204 -435 184 -394 q 164 -353 164 -293 l 164 -293 q 164 -245 176 -204 q 188 -164 212 -129 q 235 -94 269 -61 l 269 -61 l 182 10 q 138 -30 106 -74 q 73 -119 56 -173 q 38 -227 38 -294 l 38 -294 q 38 -374 70 -436 q 101 -499 161 -535 q 221 -571 305 -571 z m 874 12 l 874 12 q 803 12 755 -15 q 706 -43 681 -95 q 655 -148 655 -223 l 655 -223 q 655 -270 671 -315 q 686 -361 719 -406 q 752 -452 807 -497 l 807 -497 l 827 -525 q 864 -556 886 -583 q 907 -610 907 -644 l 907 -644 q 907 -670 891 -687 q 874 -704 835 -704 l 835 -704 q 815 -704 797 -701 q 779 -698 767 -695 l 767 -695 l 744 -780 q 765 -787 800 -792 q 834 -797 871 -797 l 871 -797 q 935 -797 970 -776 q 1004 -755 1018 -724 q 1031 -694 1031 -666 l 1031 -666 q 1031 -613 1003 -568 q 974 -523 920 -478 l 920 -478 l 902 -458 q 859 -423 832 -383 q 805 -344 793 -302 q 780 -260 780 -219 l 780 -219 q 780 -171 792 -140 q 803 -109 825 -94 q 846 -80 876 -80 l 876 -80 q 923 -80 947 -114 q 971 -148 971 -221 l 971 -221 q 971 -266 958 -310 q 945 -355 918 -392 q 891 -429 848 -452 l 848 -452 q 826 -465 800 -472 q 774 -480 734 -480 l 734 -480 q 690 -480 658 -471 q 625 -462 601 -443 l 601 -443 q 584 -428 571 -405 q 557 -383 550 -347 q 543 -311 543 -254 l 543 -254 l 543 -100 l 428 -100 l 428 -287 l 469 -462 q 495 -495 531 -519 q 566 -544 615 -557 q 664 -571 730 -571 l 730 -571 q 779 -571 820 -563 q 861 -555 898 -538 l 898 -538 q 902 -537 906 -534 q 910 -532 914 -530 l 914 -530 q 976 -499 1017 -450 q 1058 -402 1078 -345 q 1098 -288 1098 -228 l 1098 -228 q 1098 -115 1042 -51 q 985 12 874 12 z"},"ർ":{"ha":788,"x_min":38,"x_max":751,"o":"m 527 12 l 527 12 q 456 12 407 -15 q 358 -43 333 -95 q 308 -148 308 -223 l 308 -223 q 308 -270 323 -315 q 337 -361 371 -406 q 404 -452 459 -497 l 459 -497 l 479 -525 q 516 -556 538 -583 q 559 -610 559 -644 l 559 -644 q 559 -670 543 -687 q 526 -704 488 -704 l 488 -704 q 468 -704 450 -701 q 431 -698 419 -695 l 419 -695 l 396 -780 q 417 -787 452 -792 q 487 -797 524 -797 l 524 -797 q 587 -797 622 -776 q 656 -755 670 -724 q 683 -694 683 -666 l 683 -666 q 683 -613 655 -568 q 626 -523 572 -478 l 572 -478 l 554 -458 q 511 -423 484 -383 q 457 -344 445 -302 q 432 -260 432 -219 l 432 -219 q 432 -171 444 -140 q 455 -109 477 -94 q 499 -80 528 -80 l 528 -80 q 575 -80 600 -114 q 624 -148 624 -221 l 624 -221 q 624 -255 617 -288 q 609 -322 594 -353 q 579 -384 556 -409 q 533 -435 501 -452 l 501 -452 q 477 -465 450 -472 q 423 -480 382 -480 l 382 -480 q 312 -480 264 -454 q 215 -429 190 -383 q 165 -338 165 -278 l 165 -278 q 165 -230 178 -191 q 190 -153 215 -121 q 239 -89 274 -60 l 274 -60 l 194 11 q 150 -22 115 -62 q 80 -103 59 -156 q 38 -210 38 -279 l 38 -279 q 38 -339 59 -391 q 79 -444 121 -484 q 162 -524 227 -547 q 291 -571 379 -571 l 379 -571 q 428 -571 471 -563 q 513 -555 550 -538 l 550 -538 q 554 -537 558 -534 q 562 -532 566 -530 l 566 -530 q 629 -499 670 -450 q 710 -402 731 -344 q 751 -287 751 -228 l 751 -228 q 751 -114 694 -51 q 637 12 527 12 z"},"ൽ":{"ha":1288,"x_min":38,"x_max":1251,"o":"m 782 -571 l 782 -571 q 844 -571 890 -565 q 935 -559 972 -549 q 1009 -539 1041 -524 l 1041 -524 l 1072 -510 q 1162 -462 1207 -388 q 1251 -314 1251 -222 l 1251 -222 q 1251 -114 1194 -51 q 1137 12 1026 12 l 1026 12 q 956 12 907 -15 q 858 -43 833 -95 q 808 -148 808 -223 l 808 -223 q 808 -270 823 -315 q 837 -361 871 -406 q 904 -452 959 -497 l 959 -497 l 978 -524 q 1015 -555 1037 -582 q 1059 -610 1059 -644 l 1059 -644 q 1059 -670 1043 -687 q 1026 -704 988 -704 l 988 -704 q 968 -704 950 -701 q 931 -698 919 -695 l 919 -695 l 896 -780 q 917 -787 952 -792 q 986 -797 1024 -797 l 1024 -797 q 1088 -797 1122 -776 q 1156 -755 1170 -724 q 1183 -694 1183 -666 l 1183 -666 q 1183 -613 1155 -568 q 1126 -523 1072 -478 l 1072 -478 l 1054 -458 q 1011 -423 984 -383 q 957 -344 945 -302 q 932 -260 932 -219 l 932 -219 q 932 -171 944 -140 q 955 -109 977 -94 q 999 -80 1028 -80 l 1028 -80 q 1075 -80 1100 -114 q 1124 -148 1124 -217 l 1124 -217 q 1124 -265 1108 -309 q 1091 -353 1061 -387 q 1031 -422 989 -442 l 989 -442 l 956 -452 q 918 -467 876 -472 q 833 -478 783 -478 l 783 -478 q 738 -478 694 -472 q 650 -466 609 -451 l 609 -451 l 578 -441 q 520 -412 481 -356 q 442 -301 442 -213 l 442 -213 q 442 -163 457 -134 q 471 -105 494 -92 q 517 -80 543 -80 l 543 -80 q 569 -80 592 -92 q 615 -105 629 -136 q 643 -168 643 -225 l 643 -225 q 643 -279 625 -325 q 607 -371 575 -406 q 543 -442 499 -462 l 499 -462 l 475 -470 q 455 -476 434 -478 q 413 -481 389 -481 l 389 -481 q 313 -481 264 -455 q 214 -429 190 -383 q 165 -337 165 -278 l 165 -278 q 165 -230 178 -191 q 190 -153 215 -121 q 239 -89 274 -60 l 274 -60 l 194 11 q 150 -22 115 -62 q 80 -103 59 -156 q 38 -210 38 -279 l 38 -279 q 38 -337 57 -389 q 76 -441 117 -482 q 158 -523 222 -547 q 286 -571 376 -571 l 376 -571 q 431 -571 476 -561 q 521 -551 563 -530 l 563 -530 l 589 -515 q 670 -472 719 -397 q 768 -322 768 -225 l 768 -225 q 768 -149 742 -95 q 716 -42 666 -15 q 615 12 541 12 l 541 12 q 470 12 420 -15 q 369 -43 343 -94 q 317 -146 317 -217 l 317 -217 q 317 -281 338 -333 q 359 -385 399 -426 q 439 -468 496 -499 l 496 -499 l 518 -514 q 570 -543 634 -557 q 698 -571 782 -571 z"},"ൾ":{"ha":1116,"x_min":38,"x_max":1078,"o":"m 851 -797 l 851 -797 q 915 -797 950 -776 q 984 -755 997 -724 q 1010 -694 1010 -666 l 1010 -666 q 1010 -613 981 -568 q 952 -523 899 -478 l 899 -478 l 882 -458 q 838 -423 811 -383 q 784 -344 772 -302 q 760 -260 760 -219 l 760 -219 q 760 -171 772 -140 q 783 -110 805 -95 q 826 -80 856 -80 l 856 -80 q 903 -80 927 -114 q 951 -149 951 -221 l 951 -221 q 951 -255 945 -288 q 938 -321 924 -351 q 909 -382 887 -408 q 864 -434 833 -453 l 833 -453 q 812 -466 785 -473 q 757 -480 721 -480 l 721 -480 q 683 -480 650 -470 q 616 -460 594 -442 l 594 -442 q 560 -414 547 -367 q 534 -320 534 -258 l 534 -258 l 534 -248 q 534 -205 528 -169 q 522 -134 510 -105 q 498 -76 477 -53 l 477 -53 q 449 -22 406 -5 q 362 12 298 12 l 298 12 q 219 12 161 -21 q 102 -55 70 -117 q 38 -179 38 -264 l 38 -264 q 38 -330 55 -384 q 72 -439 105 -484 q 137 -530 185 -572 l 185 -572 l 269 -501 q 234 -468 211 -432 q 187 -396 176 -356 q 164 -316 164 -269 l 164 -269 q 164 -206 181 -164 q 197 -123 227 -102 q 256 -82 293 -82 l 293 -82 q 328 -82 349 -93 q 370 -104 383 -123 l 383 -123 q 398 -146 403 -182 q 407 -218 407 -258 l 407 -258 l 407 -271 q 407 -361 430 -416 q 453 -471 492 -505 l 492 -505 q 536 -541 591 -556 q 645 -571 723 -571 l 723 -571 q 766 -571 805 -563 q 844 -555 877 -541 l 877 -541 l 895 -532 q 955 -501 996 -453 q 1036 -406 1057 -348 q 1078 -290 1078 -228 l 1078 -228 q 1078 -115 1021 -51 q 964 12 854 12 l 854 12 q 783 12 734 -15 q 685 -43 660 -95 q 635 -148 635 -223 l 635 -223 q 635 -270 650 -315 q 665 -361 699 -406 q 732 -452 786 -497 l 786 -497 l 806 -525 q 843 -556 865 -583 q 887 -610 887 -644 l 887 -644 q 887 -670 871 -687 q 854 -704 815 -704 l 815 -704 q 795 -704 777 -701 q 758 -698 747 -695 l 747 -695 l 723 -780 q 745 -787 780 -792 q 814 -797 851 -797 z"},"ൿ":{"ha":1294,"x_min":30,"x_max":1263,"o":"m 559 -571 l 559 -571 q 648 -571 705 -533 q 762 -496 789 -430 q 816 -365 816 -281 l 816 -281 q 816 -187 786 -121 q 755 -56 698 -22 q 640 12 560 12 l 560 12 q 498 12 449 -7 q 400 -27 367 -64 l 367 -64 q 333 -103 316 -158 q 299 -214 299 -281 l 299 -281 q 299 -416 368 -493 q 436 -571 559 -571 z m 559 -479 l 559 -479 q 489 -479 455 -429 q 421 -379 421 -280 l 421 -280 q 421 -215 437 -170 q 452 -125 482 -102 q 512 -80 557 -80 l 557 -80 q 602 -80 632 -102 q 662 -124 678 -169 q 694 -214 694 -280 l 694 -280 q 694 -347 679 -391 q 663 -436 633 -457 q 603 -479 559 -479 z m 225 12 l 225 12 q 130 12 80 -33 q 30 -78 30 -158 l 30 -158 q 30 -206 53 -241 q 75 -277 112 -299 l 112 -299 q 137 -313 168 -322 q 198 -332 241 -336 q 284 -340 349 -340 l 349 -340 l 999 -340 q 1063 -340 1111 -331 q 1159 -322 1197 -295 l 1197 -295 q 1226 -273 1245 -241 q 1263 -210 1263 -164 l 1263 -164 q 1263 -83 1215 -35 q 1167 12 1069 12 l 1069 12 q 970 12 920 -37 q 869 -86 869 -159 l 869 -159 q 869 -196 877 -226 q 885 -257 901 -288 l 901 -288 q 902 -290 903 -293 q 903 -296 904 -299 l 904 -299 q 918 -325 936 -356 q 953 -388 977 -431 l 977 -431 q 1009 -485 1029 -522 q 1048 -559 1057 -587 q 1066 -615 1066 -640 l 1066 -640 q 1066 -669 1050 -686 q 1033 -704 994 -704 l 994 -704 q 975 -704 957 -701 q 938 -698 926 -695 l 926 -695 l 903 -780 q 925 -787 959 -792 q 993 -797 1030 -797 l 1030 -797 q 1094 -797 1129 -775 q 1163 -754 1177 -723 q 1190 -692 1190 -662 l 1190 -662 q 1190 -633 1185 -607 q 1179 -582 1167 -553 q 1154 -524 1133 -486 q 1112 -448 1079 -394 l 1079 -394 q 1065 -370 1053 -347 q 1040 -325 1029 -304 l 1029 -304 q 1026 -298 1023 -292 q 1020 -286 1017 -280 l 1017 -280 q 1004 -254 996 -227 q 988 -200 988 -169 l 988 -169 q 988 -135 1000 -115 q 1011 -96 1029 -87 q 1047 -79 1067 -79 l 1067 -79 q 1104 -79 1123 -99 q 1142 -119 1142 -157 l 1142 -157 q 1142 -183 1133 -199 q 1123 -216 1108 -226 l 1108 -226 q 1086 -242 1058 -245 q 1030 -248 1004 -248 l 1004 -248 l 325 -248 q 269 -248 239 -244 q 208 -240 185 -225 l 185 -225 q 170 -215 160 -198 q 150 -182 150 -160 l 150 -160 q 150 -133 161 -115 q 171 -97 192 -88 q 213 -79 242 -79 l 242 -79 q 270 -79 300 -89 q 330 -99 365 -125 l 365 -125 l 423 -48 q 391 -26 361 -13 q 330 0 298 6 q 265 12 225 12 z"},"!":{"ha":292,"x_min":69,"x_max":222,"o":"m 194 -223 l 99 -223 l 74 -714 l 219 -714 l 194 -223 z m 146 13 l 146 13 q 113 13 91 -5 q 69 -24 69 -65 l 69 -65 q 69 -105 91 -123 q 112 -142 146 -142 l 146 -142 q 179 -142 201 -123 q 222 -105 222 -65 l 222 -65 q 222 -25 200 -6 q 178 13 146 13 z"},"\"":{"ha":459,"x_min":69,"x_max":390,"o":"m 174 -542 l 91 -542 l 69 -800 l 196 -800 l 174 -542 z m 368 -542 l 285 -542 l 263 -800 l 390 -800 l 368 -542 z"},"#":{"ha":658,"x_min":29,"x_max":629,"o":"m 205 0 l 112 0 l 150 -202 l 29 -202 l 29 -290 l 166 -290 l 192 -421 l 65 -421 l 65 -510 l 208 -510 l 247 -713 l 341 -713 l 302 -510 l 416 -510 l 455 -713 l 547 -713 l 508 -510 l 629 -510 l 629 -421 l 492 -421 l 466 -290 l 595 -290 l 595 -202 l 449 -202 l 410 0 l 317 0 l 355 -202 l 243 -202 l 205 0 z m 285 -421 l 259 -290 l 373 -290 l 398 -421 l 285 -421 z"},"%":{"ha":875,"x_min":38,"x_max":837,"o":"m 290 0 l 188 0 l 584 -714 l 686 -714 l 290 0 z m 197 -276 l 197 -276 q 120 -276 79 -335 q 38 -394 38 -501 l 38 -501 q 38 -609 77 -666 q 115 -724 197 -724 l 197 -724 q 277 -724 319 -666 q 361 -608 361 -501 l 361 -501 q 361 -393 321 -334 q 281 -276 197 -276 z m 198 -363 l 198 -363 q 228 -363 242 -397 q 256 -431 256 -500 l 256 -500 q 256 -569 242 -603 q 228 -637 198 -637 l 198 -637 q 169 -637 156 -603 q 142 -569 142 -500 l 142 -500 q 142 -432 156 -397 q 169 -363 198 -363 z m 674 10 l 674 10 q 597 10 556 -49 q 514 -108 514 -215 l 514 -215 q 514 -323 553 -380 q 591 -438 674 -438 l 674 -438 q 753 -438 795 -379 q 837 -321 837 -215 l 837 -215 q 837 -107 797 -48 q 757 10 674 10 z m 674 -77 l 674 -77 q 704 -77 719 -111 q 733 -145 733 -214 l 733 -214 q 733 -283 719 -317 q 704 -351 674 -351 l 674 -351 q 645 -351 632 -317 q 618 -283 618 -214 l 618 -214 q 618 -145 632 -111 q 645 -77 674 -77 z"},"'":{"ha":264,"x_min":69,"x_max":196,"o":"m 174 -542 l 91 -542 l 69 -800 l 196 -800 l 174 -542 z"},"(":{"ha":325,"x_min":40,"x_max":295,"o":"m 40 -282 l 40 -282 q 40 -374 57 -468 q 73 -562 107 -648 q 140 -734 188 -800 l 188 -800 l 294 -800 q 251 -730 220 -644 q 188 -558 171 -465 q 154 -373 154 -281 l 154 -281 q 154 -190 170 -98 q 186 -6 218 81 q 249 168 295 244 l 295 244 l 188 244 q 138 173 105 87 q 72 0 56 -94 q 40 -189 40 -282 z"},")":{"ha":325,"x_min":30,"x_max":285,"o":"m 285 -274 l 285 -274 q 285 -183 269 -88 q 252 6 219 92 q 185 178 137 244 l 137 244 l 30 244 q 75 173 106 88 q 137 2 154 -90 q 170 -183 170 -275 l 170 -275 q 170 -366 155 -458 q 139 -550 108 -637 q 77 -724 30 -800 l 30 -800 l 137 -800 q 187 -729 220 -642 q 252 -556 269 -461 q 285 -367 285 -274 z"},"*":{"ha":547,"x_min":34,"x_max":512,"o":"m 214 -800 l 332 -800 l 311 -616 l 497 -668 l 512 -556 l 339 -543 l 452 -393 l 351 -339 l 272 -501 l 199 -339 l 94 -393 l 207 -543 l 34 -556 l 52 -668 l 235 -616 l 214 -800 z"},"+":{"ha":572,"x_min":46,"x_max":525,"o":"m 333 -111 l 239 -111 l 239 -306 l 46 -306 l 46 -399 l 239 -399 l 239 -596 l 333 -596 l 333 -399 l 525 -399 l 525 -306 l 333 -306 l 333 -111 z"},",":{"ha":275,"x_min":31,"x_max":209,"o":"m 80 -116 l 202 -116 l 209 -105 q 200 -70 186 -29 q 172 11 156 52 q 140 92 123 129 l 123 129 l 31 129 q 41 89 50 46 q 59 2 67 -40 q 75 -82 80 -116 l 80 -116 z"},"-":{"ha":322,"x_min":34,"x_max":288,"o":"m 288 -215 l 34 -215 l 34 -321 l 288 -321 l 288 -215 z"},".":{"ha":279,"x_min":63,"x_max":216,"o":"m 139 13 l 139 13 q 107 13 85 -5 q 63 -24 63 -65 l 63 -65 q 63 -108 85 -125 q 107 -142 139 -142 l 139 -142 q 172 -142 194 -125 q 216 -108 216 -65 l 216 -65 q 216 -24 194 -5 q 172 13 139 13 z"},"/":{"ha":414,"x_min":19,"x_max":395,"o":"m 129 244 l 19 244 l 285 -800 l 395 -800 l 129 244 z"},":":{"ha":279,"x_min":63,"x_max":216,"o":"m 139 13 l 139 13 q 107 13 85 -5 q 63 -24 63 -65 l 63 -65 q 63 -108 85 -125 q 107 -142 139 -142 l 139 -142 q 172 -142 194 -125 q 216 -108 216 -65 l 216 -65 q 216 -24 194 -5 q 172 13 139 13 z m 139 -399 l 139 -399 q 107 -399 85 -417 q 63 -435 63 -476 l 63 -476 q 63 -519 85 -536 q 107 -554 139 -554 l 139 -554 q 172 -554 194 -537 q 216 -520 216 -476 l 216 -476 q 216 -435 194 -417 q 172 -399 139 -399 z"},";":{"ha":282,"x_min":31,"x_max":216,"o":"m 80 -116 l 202 -116 l 209 -105 q 200 -70 186 -29 q 172 11 156 52 q 140 92 123 129 l 123 129 l 31 129 q 41 89 50 46 q 59 2 67 -40 q 75 -82 80 -116 l 80 -116 z m 139 -399 l 139 -399 q 107 -399 85 -417 q 63 -435 63 -476 l 63 -476 q 63 -519 85 -536 q 107 -554 139 -554 l 139 -554 q 172 -554 194 -537 q 216 -520 216 -476 l 216 -476 q 216 -435 194 -417 q 172 -399 139 -399 z"},"<":{"ha":572,"x_min":46,"x_max":525,"o":"m 525 -208 l 525 -105 l 46 -317 l 46 -379 l 525 -619 l 525 -516 l 176 -353 l 525 -208 z"},"=":{"ha":572,"x_min":48,"x_max":523,"o":"m 523 -204 l 48 -204 l 48 -297 l 523 -297 l 523 -204 z m 523 -407 l 48 -407 l 48 -500 l 523 -500 l 523 -407 z"},">":{"ha":572,"x_min":46,"x_max":525,"o":"m 525 -317 l 46 -105 l 46 -208 l 396 -352 l 46 -516 l 46 -619 l 525 -379 l 525 -317 z"},"?":{"ha":460,"x_min":37,"x_max":434,"o":"m 232 -724 l 232 -724 q 330 -724 382 -675 q 434 -626 434 -545 l 434 -545 q 434 -503 424 -473 q 413 -444 391 -417 q 368 -391 332 -359 l 332 -359 q 303 -333 287 -315 q 270 -297 264 -281 q 257 -265 257 -245 l 257 -245 l 257 -224 l 151 -224 l 151 -253 q 151 -285 160 -311 q 168 -338 188 -362 q 208 -387 241 -414 l 241 -414 q 270 -438 286 -456 q 302 -475 308 -494 q 314 -514 314 -540 l 314 -540 q 314 -577 287 -598 q 260 -620 217 -620 l 217 -620 q 181 -620 148 -610 q 114 -601 79 -583 l 79 -583 l 37 -676 q 83 -699 129 -711 q 175 -724 232 -724 z m 209 13 l 209 13 q 177 13 155 -5 q 132 -24 132 -65 l 132 -65 q 132 -108 155 -125 q 177 -142 209 -142 l 209 -142 q 241 -142 264 -125 q 286 -108 286 -65 l 286 -65 q 286 -24 264 -5 q 241 13 209 13 z"},"[":{"ha":332,"x_min":73,"x_max":295,"o":"m 295 244 l 73 244 l 73 -800 l 295 -800 l 295 -710 l 184 -710 l 184 154 l 295 154 l 295 244 z"},"\\":{"ha":414,"x_min":19,"x_max":395,"o":"m 395 244 l 285 244 l 19 -800 l 129 -800 l 395 244 z"},"]":{"ha":334,"x_min":38,"x_max":259,"o":"m 259 244 l 38 244 l 38 154 l 148 154 l 148 -710 l 38 -710 l 38 -800 l 259 -800 l 259 244 z"},"^":{"ha":606,"x_min":34,"x_max":572,"o":"m 135 -259 l 34 -259 l 264 -718 l 326 -718 l 572 -259 l 469 -259 l 297 -590 l 135 -259 z"},"_":{"ha":423,"x_min":-2,"x_max":425,"o":"m 425 156 l -2 156 l -2 90 l 425 90 l 425 156 z"},"{":{"ha":379,"x_min":26,"x_max":342,"o":"m 342 148 l 342 244 q 270 244 228 224 q 185 204 167 167 q 149 129 149 76 l 149 76 l 149 -131 q 149 -184 117 -206 q 85 -228 26 -228 l 26 -228 l 26 -329 q 86 -329 118 -351 q 149 -374 149 -426 l 149 -426 l 149 -632 q 149 -685 167 -722 q 185 -759 228 -779 q 270 -800 342 -800 l 342 -800 l 342 -704 q 302 -703 283 -683 q 264 -664 264 -615 l 264 -615 l 264 -406 q 264 -353 235 -322 q 205 -292 149 -282 l 149 -282 l 149 -276 q 205 -267 235 -236 q 264 -205 264 -152 l 264 -152 l 264 60 q 264 92 273 111 q 281 130 299 139 q 316 147 342 148 l 342 148 z"},"|":{"ha":551,"x_min":228,"x_max":323,"o":"m 323 244 l 228 244 l 228 -800 l 323 -800 l 323 244 z"},"}":{"ha":379,"x_min":38,"x_max":352,"o":"m 38 -704 l 38 -800 q 110 -800 152 -779 q 194 -759 212 -722 q 230 -685 230 -632 l 230 -632 l 230 -426 q 230 -374 262 -352 q 294 -330 352 -330 l 352 -330 l 352 -228 q 294 -228 262 -206 q 230 -184 230 -132 l 230 -132 l 230 76 q 230 129 212 167 q 194 204 152 224 q 110 244 38 244 l 38 244 l 38 148 q 77 147 96 127 q 115 107 115 59 l 115 59 l 115 -152 q 115 -205 145 -236 q 174 -267 230 -276 l 230 -276 l 230 -282 q 174 -292 145 -322 q 115 -353 115 -406 l 115 -406 l 115 -615 q 115 -648 107 -667 q 98 -686 81 -695 q 64 -704 38 -704 l 38 -704 z"},"~":{"ha":572,"x_min":46,"x_max":525,"o":"m 269 -308 l 269 -308 q 230 -324 207 -329 q 184 -335 163 -335 l 163 -335 q 132 -335 102 -318 q 71 -301 46 -276 l 46 -276 l 46 -376 q 71 -402 102 -415 q 132 -429 169 -429 l 169 -429 q 198 -429 227 -423 q 256 -417 301 -398 l 301 -398 q 339 -382 364 -376 q 388 -370 412 -370 l 412 -370 q 442 -370 471 -387 q 500 -404 525 -429 l 525 -429 l 525 -329 q 500 -303 470 -289 q 440 -276 402 -276 l 402 -276 q 374 -276 345 -282 q 315 -289 269 -308 z"}," ":{"ha":309,"x_min":0,"x_max":0,"o":""},"­":{"ha":322,"x_min":34,"x_max":288,"o":"m 288 -215 l 34 -215 l 34 -321 l 288 -321 l 288 -215 z"},"–":{"ha":500,"x_min":40,"x_max":460,"o":"m 460 -215 l 40 -215 l 40 -321 l 460 -321 l 460 -215 z"},"—":{"ha":1000,"x_min":40,"x_max":960,"o":"m 960 -215 l 40 -215 l 40 -321 l 960 -321 l 960 -215 z"},"‘":{"ha":255,"x_min":37,"x_max":214,"o":"m 166 -555 l 43 -555 l 37 -566 q 46 -602 60 -642 q 74 -682 91 -723 q 107 -764 123 -800 l 123 -800 l 214 -800 q 205 -761 196 -717 q 186 -673 179 -631 q 171 -590 166 -555 l 166 -555 z"},"’":{"ha":255,"x_min":37,"x_max":215,"o":"m 86 -800 l 208 -800 l 215 -789 q 206 -754 192 -713 q 178 -673 162 -632 q 146 -592 129 -555 l 129 -555 l 37 -555 q 44 -585 51 -617 q 58 -649 65 -681 q 71 -714 77 -744 q 82 -774 86 -800 l 86 -800 z"},"“":{"ha":468,"x_min":37,"x_max":428,"o":"m 379 -556 l 257 -556 l 250 -566 q 259 -602 273 -642 q 287 -683 304 -723 q 320 -764 336 -800 l 336 -800 l 428 -800 q 419 -761 409 -717 q 399 -674 392 -632 q 384 -591 379 -556 l 379 -556 z m 166 -556 l 44 -556 l 37 -566 q 46 -602 60 -642 q 74 -683 91 -723 q 107 -764 123 -800 l 123 -800 l 215 -800 q 206 -761 196 -717 q 186 -674 179 -632 q 171 -591 166 -556 l 166 -556 z"},"”":{"ha":468,"x_min":37,"x_max":428,"o":"m 299 -800 l 421 -800 l 428 -790 q 419 -754 405 -713 q 391 -673 375 -632 q 359 -592 342 -556 l 342 -556 l 250 -556 q 260 -595 269 -638 q 278 -682 286 -724 q 294 -766 299 -800 l 299 -800 z m 86 -800 l 208 -800 l 215 -790 q 206 -754 192 -713 q 178 -673 162 -632 q 146 -592 129 -556 l 129 -556 l 37 -556 q 44 -585 51 -617 q 58 -649 65 -681 q 71 -714 77 -744 q 82 -774 86 -800 l 86 -800 z"},"…":{"ha":836,"x_min":63,"x_max":773,"o":"m 139 13 l 139 13 q 107 13 85 -5 q 63 -24 63 -65 l 63 -65 q 63 -108 85 -125 q 107 -142 139 -142 l 139 -142 q 172 -142 194 -125 q 216 -108 216 -65 l 216 -65 q 216 -24 194 -5 q 172 13 139 13 z m 418 13 l 418 13 q 386 13 364 -5 q 341 -24 341 -65 l 341 -65 q 341 -108 364 -125 q 386 -142 418 -142 l 418 -142 q 450 -142 473 -125 q 495 -108 495 -65 l 495 -65 q 495 -24 473 -5 q 450 13 418 13 z m 697 13 l 697 13 q 665 13 643 -5 q 620 -24 620 -65 l 620 -65 q 620 -108 643 -125 q 665 -142 697 -142 l 697 -142 q 729 -142 751 -125 q 773 -108 773 -65 l 773 -65 q 773 -24 751 -5 q 729 13 697 13 z"},"×":{"ha":572,"x_min":64,"x_max":508,"o":"m 285 -419 l 442 -575 l 508 -510 l 350 -353 l 506 -197 l 442 -131 l 285 -287 l 130 -132 l 65 -197 l 220 -353 l 64 -508 l 129 -575 l 285 -419 z"},"÷":{"ha":572,"x_min":46,"x_max":525,"o":"m 525 -306 l 46 -306 l 46 -399 l 525 -399 l 525 -306 z m 285 -113 l 285 -113 q 258 -113 240 -130 q 222 -147 222 -182 l 222 -182 q 222 -219 240 -235 q 257 -251 285 -251 l 285 -251 q 312 -251 330 -235 q 348 -219 348 -182 l 348 -182 q 348 -147 330 -130 q 312 -113 285 -113 z m 285 -454 l 285 -454 q 258 -454 240 -471 q 222 -488 222 -523 l 222 -523 q 222 -560 240 -576 q 257 -592 285 -592 l 285 -592 q 312 -592 330 -575 q 348 -559 348 -523 l 348 -523 q 348 -487 330 -470 q 312 -454 285 -454 z"},"−":{"ha":572,"x_min":46,"x_max":525,"o":"m 525 -306 l 46 -306 l 46 -399 l 525 -399 l 525 -306 z"},"₹":{"ha":572,"x_min":61,"x_max":520,"o":"m 402 0 l 253 0 l 61 -261 l 76 -352 l 111 -352 q 159 -352 183 -361 q 207 -370 221 -388 l 221 -388 q 234 -404 241 -428 q 248 -453 248 -489 l 248 -489 q 248 -530 240 -556 q 231 -582 216 -597 l 216 -597 q 201 -612 182 -617 q 162 -623 127 -623 l 127 -623 l 61 -623 l 61 -714 l 520 -714 l 520 -623 l 320 -623 q 342 -602 356 -567 q 369 -533 369 -485 l 369 -485 q 369 -423 349 -379 q 328 -335 288 -307 q 248 -279 187 -266 l 187 -266 l 185 -282 l 402 0 z m 520 -447 l 61 -447 l 61 -538 l 520 -538 l 520 -447 z"},"꠰":{"ha":269,"x_min":72,"x_max":196,"o":"m 72 0 l 72 -559 l 196 -559 l 196 0 l 72 0 z"},"꠱":{"ha":486,"x_min":72,"x_max":414,"o":"m 72 0 l 72 -559 l 196 -559 l 196 0 l 72 0 z m 290 0 l 290 -559 l 414 -559 l 414 0 l 290 0 z"},"꠲":{"ha":704,"x_min":72,"x_max":631,"o":"m 72 0 l 72 -559 l 196 -559 l 196 0 l 72 0 z m 290 0 l 290 -559 l 414 -559 l 414 0 l 290 0 z m 507 0 l 507 -559 l 631 -559 l 631 0 l 507 0 z"},"॑":{"ha":0,"x_min":-323,"x_max":-233,"o":"m -323 -653 l -323 -864 l -233 -864 l -233 -653 l -323 -653 z"},"॒":{"ha":0,"x_min":-508,"x_max":-49,"o":"m -49 104 l -49 188 l -508 188 l -508 104 l -49 104 z"},"।":{"ha":374,"x_min":165,"x_max":291,"o":"m 291 49 l 165 49 l 165 -603 l 291 -603 l 291 49 z"},"॥":{"ha":639,"x_min":165,"x_max":556,"o":"m 556 49 l 431 49 l 431 -603 l 556 -603 l 556 49 z m 291 49 l 165 49 l 165 -603 l 291 -603 l 291 49 z"},"᳚":{"ha":0,"x_min":-388,"x_max":-168,"o":"m -388 -653 l -388 -864 l -306 -864 l -306 -653 l -388 -653 z m -250 -653 l -250 -864 l -168 -864 l -168 -653 l -250 -653 z"},"̇":{"ha":0,"x_min":-344,"x_max":-212,"o":"m -344 -701 l -344 -701 q -344 -736 -325 -751 q -306 -766 -278 -766 l -278 -766 q -251 -766 -231 -751 q -212 -736 -212 -701 l -212 -701 q -212 -666 -231 -651 q -251 -636 -278 -636 l -278 -636 q -306 -636 -325 -651 q -344 -666 -344 -701 z"},"̣":{"ha":0,"x_min":-344,"x_max":-212,"o":"m -344 136 l -344 136 q -344 100 -325 86 q -306 71 -278 71 l -278 71 q -251 71 -231 86 q -212 100 -212 136 l -212 136 q -212 171 -231 186 q -251 200 -278 200 l -278 200 q -306 200 -325 186 q -344 171 -344 136 z"},"‐":{"ha":322,"x_min":34,"x_max":288,"o":"m 288 -215 l 34 -215 l 34 -321 l 288 -321 l 288 -215 z"},"​":{"ha":0,"x_min":0,"x_max":0,"o":""},"‌":{"ha":0,"x_min":0,"x_max":0,"o":""},"‍":{"ha":0,"x_min":-161,"x_max":161,"o":"m 29 244 l -29 244 l -29 -565 l -121 -474 l -161 -514 l -40 -631 l -161 -748 l -121 -788 l 0 -669 l 121 -788 l 161 -748 l 40 -631 l 161 -514 l 121 -474 l 29 -565 l 29 244 z"},"◌":{"ha":562,"x_min":57,"x_max":504,"o":"m 89 -231 l 89 -231 q 57 -231 57 -264 l 57 -264 q 57 -295 89 -295 l 89 -295 q 121 -295 121 -264 l 121 -264 q 121 -231 89 -231 z m 138 -95 l 138 -95 q 106 -95 106 -127 l 106 -127 q 106 -158 138 -158 l 138 -158 q 169 -158 169 -127 l 169 -127 q 169 -95 138 -95 z m 281 -40 l 281 -40 q 249 -40 249 -72 l 249 -72 q 249 -104 281 -104 l 281 -104 q 312 -104 312 -72 l 312 -72 q 312 -40 281 -40 z m 138 -369 l 138 -369 q 106 -369 106 -401 l 106 -401 q 106 -432 138 -432 l 138 -432 q 169 -432 169 -401 l 169 -401 q 169 -369 138 -369 z m 423 -95 l 423 -95 q 391 -95 391 -127 l 391 -127 q 391 -158 423 -158 l 423 -158 q 455 -158 455 -127 l 455 -127 q 455 -95 423 -95 z m 281 -424 l 281 -424 q 249 -424 249 -456 l 249 -456 q 249 -487 281 -487 l 281 -487 q 312 -487 312 -456 l 312 -456 q 312 -424 281 -424 z m 472 -231 l 472 -231 q 441 -231 441 -264 l 441 -264 q 441 -295 472 -295 l 472 -295 q 504 -295 504 -264 l 504 -264 q 504 -231 472 -231 z m 423 -369 l 423 -369 q 391 -369 391 -401 l 391 -401 q 391 -432 423 -432 l 423 -432 q 455 -432 455 -401 l 455 -401 q 455 -369 423 -369 z"},"«":{"ha":575,"x_min":40,"x_max":535,"o":"m 40 -263 l 40 -276 l 216 -490 l 307 -441 l 169 -270 l 307 -100 l 216 -50 l 40 -263 z m 269 -263 l 269 -276 l 445 -490 l 535 -441 l 398 -270 l 535 -100 l 445 -50 l 269 -263 z"},"»":{"ha":575,"x_min":40,"x_max":535,"o":"m 535 -276 l 535 -263 l 358 -50 l 268 -100 l 406 -270 l 268 -441 l 358 -490 l 535 -276 z m 306 -276 l 306 -263 l 130 -50 l 40 -100 l 177 -270 l 40 -441 l 130 -490 l 306 -276 z"},"̈":{"ha":0,"x_min":-157,"x_max":157,"o":"m -157 -684 l -157 -684 q -157 -716 -139 -730 q -122 -744 -97 -744 l -97 -744 q -73 -744 -54 -730 q -36 -716 -36 -684 l -36 -684 q -36 -654 -54 -639 q -73 -625 -97 -625 l -97 -625 q -122 -625 -139 -639 q -157 -654 -157 -684 z m 37 -684 l 37 -684 q 37 -716 55 -730 q 72 -744 97 -744 l 97 -744 q 121 -744 140 -730 q 158 -716 158 -684 l 158 -684 q 158 -654 140 -639 q 121 -625 97 -625 l 97 -625 q 72 -625 55 -639 q 37 -654 37 -684 z"},"̀":{"ha":0,"x_min":-516,"x_max":-265,"o":"m -516 -766 l -372 -766 q -359 -744 -340 -716 q -321 -689 -300 -663 q -280 -638 -265 -619 l -265 -619 l -265 -606 l -348 -606 q -367 -619 -390 -638 q -414 -658 -438 -680 q -463 -702 -483 -722 q -504 -742 -516 -756 l -516 -756 l -516 -766 z"},"́":{"ha":0,"x_min":-327,"x_max":-76,"o":"m -76 -766 l -76 -756 q -88 -742 -108 -722 q -129 -702 -153 -680 q -178 -658 -201 -638 q -225 -619 -243 -606 l -243 -606 l -327 -606 l -327 -619 q -311 -638 -291 -663 q -271 -689 -251 -716 q -232 -744 -220 -766 l -220 -766 l -76 -766 z"},"̋":{"ha":0,"x_min":-142,"x_max":265,"o":"m 265 -766 l 265 -756 q 257 -743 240 -723 q 222 -703 199 -681 q 176 -659 154 -639 q 131 -620 113 -606 l 113 -606 l 45 -606 l 45 -619 q 59 -638 77 -664 q 94 -690 111 -717 q 127 -744 137 -766 l 137 -766 l 265 -766 z m 78 -766 l 78 -756 q 70 -743 53 -723 q 35 -703 12 -681 q -11 -659 -33 -639 q -56 -620 -74 -606 l -74 -606 l -142 -606 l -142 -619 q -128 -638 -111 -664 q -94 -690 -78 -717 q -62 -744 -50 -766 l -50 -766 l 78 -766 z"},"̄":{"ha":0,"x_min":-159,"x_max":160,"o":"m -159 -697 l 159 -697 l 159 -606 l -159 -606 l -159 -697 z"},"˙":{"ha":220,"x_min":40,"x_max":180,"o":"m 110 -751 l 110 -751 q 138 -751 159 -736 q 180 -722 180 -685 l 180 -685 q 180 -649 159 -633 q 138 -618 110 -618 l 110 -618 q 81 -618 61 -633 q 40 -649 40 -685 l 40 -685 q 40 -722 61 -736 q 81 -751 110 -751 z"},"°":{"ha":428,"x_min":45,"x_max":382,"o":"m 214 -398 l 214 -398 q 164 -398 126 -419 q 88 -440 67 -476 q 45 -513 45 -561 l 45 -561 q 45 -609 67 -645 q 88 -682 126 -703 q 164 -724 214 -724 l 214 -724 q 264 -724 302 -703 q 340 -683 361 -646 q 382 -609 382 -561 l 382 -561 q 382 -513 361 -476 q 340 -440 302 -419 q 264 -398 214 -398 z m 214 -478 l 214 -478 q 252 -478 275 -501 q 297 -524 297 -561 l 297 -561 q 297 -600 275 -622 q 252 -645 214 -645 l 214 -645 q 177 -645 154 -622 q 131 -600 131 -561 l 131 -561 q 131 -524 154 -501 q 177 -478 214 -478 z"},"A":{"ha":671,"x_min":0,"x_max":670,"o":"m 670 0 l 534 0 l 469 -189 l 200 -189 l 136 0 l 0 0 l 262 -717 l 408 -717 l 670 0 z m 436 -299 l 374 -483 q 370 -497 362 -521 q 354 -545 347 -570 q 339 -596 335 -613 l 335 -613 q 330 -593 323 -567 q 315 -541 309 -518 q 302 -495 298 -483 l 298 -483 l 235 -299 l 436 -299 z"},"Á":{"ha":671,"x_min":0,"x_max":670,"o":"m 670 0 l 534 0 l 469 -189 l 200 -189 l 136 0 l 0 0 l 262 -717 l 408 -717 l 670 0 z m 436 -299 l 374 -483 q 370 -497 362 -521 q 354 -545 347 -570 q 339 -596 335 -613 l 335 -613 q 330 -593 323 -567 q 315 -541 309 -518 q 302 -495 298 -483 l 298 -483 l 235 -299 l 436 -299 z m 522 -938 l 522 -928 q 510 -914 490 -894 q 469 -874 445 -852 q 420 -830 397 -810 q 373 -791 355 -778 l 355 -778 l 271 -778 l 271 -791 q 287 -810 307 -835 q 327 -861 347 -888 q 366 -916 378 -938 l 378 -938 l 522 -938 z"},"Ă":{"ha":671,"x_min":0,"x_max":670,"o":"m 670 0 l 534 0 l 469 -189 l 200 -189 l 136 0 l 0 0 l 262 -717 l 408 -717 l 670 0 z m 436 -299 l 374 -483 q 370 -497 362 -521 q 354 -545 347 -570 q 339 -596 335 -613 l 335 -613 q 330 -593 323 -567 q 315 -541 309 -518 q 302 -495 298 -483 l 298 -483 l 235 -299 l 436 -299 z m 439 -931 l 512 -931 q 509 -886 486 -851 q 463 -817 424 -797 q 385 -778 332 -778 l 332 -778 q 251 -778 206 -820 q 160 -862 156 -931 l 156 -931 l 228 -931 q 231 -904 245 -890 q 259 -877 282 -873 q 305 -870 333 -870 l 333 -870 q 358 -870 381 -874 q 404 -879 420 -892 q 436 -905 439 -931 l 439 -931 z"}}}
